<?xml version="1.0" encoding="utf-8"?>
<!-- Generator: Adobe Illustrator 26.3.1, SVG Export Plug-In . SVG Version: 6.00 Build 0)  -->
<svg version="1.1" id="Capa_1" xmlns:xodm="http://www.corel.com/coreldraw/odm/2003"
	 xmlns="http://www.w3.org/2000/svg" xmlns:xlink="http://www.w3.org/1999/xlink" x="0px" y="0px" viewBox="0 0 495 177.1"
	 style="enable-background:new 0 0 495 177.1;" xml:space="preserve">
<style type="text/css">
	.st0{fill:#FF0600;}
	.st1{fill:#51C5D9;}
	.st2{fill:#FFDA01;}
	.st3{fill:#F42C27;}
</style>
<g>
	<g>
		<g>
			<g>
				<g>
					<path class="st0" d="M140.5,84.8V68h-18.4v16.9h-12.4v-44h12.4v16.4h18.4V40.9H153v44H140.5z"/>
					<path class="st0" d="M158.1,62.9c0-6.5,2.2-11.9,6.5-16.2c4.3-4.3,9.7-6.5,16.1-6.5c6.5,0,11.9,2.2,16.2,6.5
						c4.3,4.3,6.5,9.7,6.5,16.2c0,6.4-2.2,11.8-6.5,16.1c-4.3,4.3-9.7,6.5-16.2,6.5c-6.4,0-11.8-2.2-16.1-6.5
						C160.2,74.7,158.1,69.3,158.1,62.9z M170.2,62.9c0,3.1,1,5.6,3,7.8c2,2.1,4.5,3.2,7.5,3.2c3.1,0,5.6-1,7.5-3.1
						c2-2.1,2.9-4.7,2.9-7.8c0-3.1-1-5.8-2.9-7.9c-2-2.1-4.5-3.1-7.5-3.1c-3.1,0-5.6,1-7.5,3.1C171.2,57.2,170.2,59.8,170.2,62.9z"
						/>
					<path class="st0" d="M240.9,84.8l-20-24.2v24.2h-12.4v-44h10.7l20,24.2V40.9h12.4v44H240.9z"/>
					<path class="st0" d="M259.3,84.8v-44h20.5c6.7,0,12.2,2,16.4,5.9c4.2,3.9,6.3,9.3,6.3,16.2c0,6.9-2.1,12.3-6.3,16.1
						c-4.2,3.9-9.7,5.8-16.4,5.8H259.3z M279.2,51.6h-7.5v22.5h7.5c3.1,0,5.7-1,7.6-3c1.9-2,2.8-4.7,2.8-8.2c0-3.6-0.9-6.4-2.8-8.3
						C284.9,52.6,282.4,51.6,279.2,51.6z"/>
					<path class="st0" d="M319.7,40.9v24.1c0,2.9,0.7,5.1,2.2,6.8c1.4,1.6,3.5,2.4,6.2,2.4c2.8,0,4.9-0.8,6.3-2.5
						c1.5-1.6,2.2-3.9,2.2-6.8v-24h12.4v24.9c0,5.6-1.9,10.2-5.6,14c-3.8,3.8-8.9,5.7-15.3,5.7c-6.6,0-11.7-1.8-15.3-5.5
						c-3.7-3.6-5.5-8.4-5.5-14.3V40.9H319.7z"/>
					<path class="st0" d="M356.2,84.8v-44h22.3c4.5,0,8.4,1.3,11.6,3.8c3.2,2.5,4.8,6.1,4.8,10.8c0,3.2-1,6-2.9,8.3
						c-2,2.3-4.6,3.9-7.8,4.7c1.7,1.5,3,2.5,3.8,3.2c0.9,0.7,2,1.4,3.4,2.1c1.4,0.7,2.6,1.1,3.8,1.1c1.6,0,3-0.2,4.3-0.7l1.2,9.7
						c-2.2,1.1-4.7,1.7-7.5,1.7c-1.9,0-3.9-0.4-5.8-1.3c-1.9-0.9-3.7-2-5.4-3.4c-1.6-1.4-3.2-2.8-4.6-4.2c-1.4-1.4-2.9-2.9-4.3-4.3
						c-1.5-1.5-2.7-2.5-3.7-3.2h-0.6v15.8H356.2z M377.3,51.6h-8.7v9h8.7c1.5,0,2.6-0.4,3.5-1.3c0.9-0.8,1.3-1.9,1.3-3.2
						c0-1.3-0.4-2.4-1.3-3.2C380,52,378.8,51.6,377.3,51.6z"/>
					<path class="st0" d="M395.4,84.8l16.5-44h14.7l16.3,44h-12.5l-2.7-7.4h-17.1l-2.6,7.4H395.4z M419.2,53.1l-5.6,15.2h11.1
						L419.2,53.1z"/>
					<path class="st0" d="M461.3,68.5l-8.1-2.3c-3.5-1-6.1-2.4-7.8-4.4c-1.7-1.9-2.5-4.4-2.5-7.5c0-4.1,1.6-7.5,4.8-10.2
						c3.2-2.6,7.7-3.9,13.5-3.9c3,0,5.9,0.3,8.8,1c2.9,0.7,5.3,1.5,7.1,2.5l-3.4,10.7c-1.8-1.1-3.9-2-6.3-2.8
						c-2.4-0.7-4.7-1.1-6.7-1.1c-3.5,0-5.3,1-5.3,3c0,0.7,0.2,1.3,0.7,1.7c0.5,0.4,1.3,0.8,2.5,1.2l7.5,2.3c4.1,1.3,7.1,2.9,9,4.8
						c1.9,2,2.8,4.4,2.8,7.4c0,4.3-1.7,7.8-5,10.5c-3.3,2.7-7.8,4-13.4,4c-3,0-5.9-0.4-8.9-1.2c-3-0.8-5.3-1.7-7.1-2.6l2.9-10.8
						c4.4,2.9,8.9,4.3,13.4,4.3c1.7,0,3.1-0.3,4-1c0.9-0.7,1.4-1.5,1.4-2.5C465.3,70.3,464,69.3,461.3,68.5z"/>
				</g>
				<g>
					<path class="st1" d="M153.5,139.7v-27.7l-13.5,16.2h-2.3L124,112.1v27.7h-14V90h11.8l17,19.7l17-19.7h11.8v49.8H153.5z"/>
					<path class="st1" d="M176.1,139.7V90h25.6c5.4,0,9.8,1.6,13.3,4.8c3.5,3.2,5.2,7.8,5.2,13.9c0,5.6-1.8,10.1-5.3,13.4
						c-3.6,3.3-8,5-13.2,5h-11.6v12.7H176.1z M199.5,102.1h-9.3v12.7h9.3c1.8,0,3.3-0.6,4.5-1.8c1.2-1.2,1.8-2.7,1.8-4.5
						c0-1.9-0.6-3.5-1.8-4.6C202.8,102.7,201.3,102.1,199.5,102.1z"/>
					<path class="st1" d="M225,139.7V90h25.2c5.1,0,9.5,1.4,13.1,4.3c3.6,2.9,5.4,7,5.4,12.2c0,3.7-1.1,6.8-3.3,9.4
						c-2.2,2.6-5.2,4.4-8.8,5.3c1.9,1.7,3.3,2.9,4.3,3.6c1,0.8,2.2,1.5,3.8,2.3c1.6,0.8,3,1.2,4.2,1.2c1.8,0,3.4-0.3,4.9-0.8l1.3,11
						c-2.5,1.3-5.4,1.9-8.5,1.9c-2.2,0-4.4-0.5-6.6-1.5c-2.2-1-4.2-2.3-6.1-3.8c-1.9-1.6-3.6-3.2-5.2-4.8c-1.6-1.6-3.2-3.2-4.9-4.9
						c-1.7-1.7-3.1-2.9-4.2-3.6h-0.7v17.9H225z M248.9,102.1h-9.8v10.2h9.8c1.7,0,3-0.5,4-1.4c1-1,1.5-2.2,1.5-3.6
						c0-1.5-0.5-2.7-1.5-3.7C251.8,102.6,250.5,102.1,248.9,102.1z"/>
					<path class="st1" d="M318.7,139.7h-40.5V90h40.5v12.2h-27.1v6.6h21.7v11.5h-21.7v7.2h27.1V139.7z"/>
					<path class="st1" d="M361.8,139.7l-22.6-27.4v27.4h-14V90h12.1l22.7,27.4V90h14v49.8H361.8z"/>
					<path class="st1" d="M382.7,139.7V90h23.2c7.6,0,13.8,2.3,18.5,6.6c4.8,4.4,7.1,10.5,7.1,18.3c0,7.8-2.4,13.9-7.1,18.3
						c-4.8,4.4-10.9,6.5-18.5,6.5H382.7z M405.2,102.1h-8.5v25.5h8.5c3.6,0,6.4-1.1,8.6-3.4c2.1-2.2,3.2-5.3,3.2-9.3
						c0-4-1.1-7.2-3.2-9.4C411.6,103.2,408.8,102.1,405.2,102.1z"/>
					<path class="st1" d="M478,139.7h-40.5V90H478v12.2h-27.1v6.6h21.7v11.5h-21.7v7.2H478V139.7z"/>
				</g>
				<g>
					<path class="st1" d="M103.5,139.7H23V40.9h80.5v24.3H49.7v13.1h43.2V101H49.7v14.4h53.8V139.7z"/>
				</g>
			</g>
			<g>
				<polygon class="st1" points="160.7,23.2 160.7,23.2 157.1,34 166.4,27.3 175.6,34 172.1,23.2 172.1,23.2 181.4,16.4 169.9,16.4 
					169.9,16.4 166.4,5.5 162.8,16.4 151.4,16.4 				"/>
				<polygon class="st1" points="202.7,23.2 202.7,23.2 199.2,34 208.4,27.3 217.7,34 214.2,23.2 214.2,23.2 223.4,16.4 212,16.4 
					212,16.4 208.4,5.5 204.9,16.4 193.5,16.4 				"/>
				<polygon class="st1" points="244.8,23.2 244.8,23.2 241.2,34 250.5,27.3 259.8,34 256.2,23.2 256.2,23.2 265.5,16.4 254,16.4 
					254,16.4 250.5,5.5 247,16.4 235.5,16.4 				"/>
				<polygon class="st1" points="286.8,23.2 286.8,23.2 283.3,34 292.6,27.3 301.8,34 298.3,23.2 298.3,23.2 307.5,16.4 296.1,16.4 
					296.1,16.4 292.6,5.5 289,16.4 277.6,16.4 				"/>
				<polygon class="st1" points="328.9,23.2 328.9,23.2 325.4,34 334.6,27.3 343.9,34 340.3,23.2 340.3,23.2 349.6,16.4 338.2,16.4 
					338.2,16.4 334.6,5.5 331.1,16.4 319.6,16.4 				"/>
			</g>
		</g>
	</g>
	<g>
		<g>
			<path class="st2" d="M313.3,145.3c-4,0-7.3,1.3-10,3.9c-2.7,2.6-4,5.9-4,9.8c0,3.9,1.3,7.1,4,9.7c2.7,2.6,6,3.9,10,3.9
				c4.1,0,7.4-1.3,10.1-3.9c2.7-2.6,4-5.8,4-9.7c0-3.9-1.3-7.2-4-9.8C320.8,146.7,317.4,145.3,313.3,145.3z"/>
			<path class="st3" d="M308.8,165.9c0.9,0.3,1.9,0.1,2.6-0.5c1.4-1.1,2.2-1.8,2.6-2.1c0.2-0.2,0.5-0.1,0.7,0c0.2,0.2,0.2,0.5,0,0.7
				l-1,1c-0.1,0.1-0.1,0.2-0.1,0.3c0,0.2,0.2,0.3,0.4,0.2l0.2,0c0,0,0,0,0,0l4.1-1.3c0.2-0.1,0.4,0,0.5,0.2c0.1,0.2,0,0.4-0.2,0.5
				l-3.5,1.2c-0.2,0.1-0.2,0.3-0.1,0.4c0.1,0.1,0.1,0.1,0.2,0.1l3.8-0.5c0.2,0,0.4,0.1,0.5,0.3c0,0.2-0.1,0.4-0.3,0.5l-3.7,0.6
				c-0.1,0-0.2,0.1-0.2,0.2c0,0.1,0.1,0.3,0.3,0.3h3c0.2,0,0.3,0.1,0.4,0.3c0,0.2-0.1,0.4-0.3,0.4l-3.4,0.3c-0.1,0-0.1,0-0.2,0.1
				c-0.1,0.1,0,0.3,0.2,0.3l2.1,0.2c0.2,0,0.3,0.2,0.3,0.3c0,0.2-0.2,0.3-0.3,0.3l-3.2,0c-1.2,0-2.3-0.1-3.4-0.4l-1.1-0.2
				c-0.8-0.2-1.5-0.4-2.3-0.6c0,0-0.1,0-0.1,0c-7.3-2.5-9.3-6.9-7.7-11C299.4,158.2,299.8,163,308.8,165.9z"/>
			<path class="st3" d="M323.4,149.2c0,0,3.9,3.4-6,6.8c-0.9,0.3-1.9,0.1-2.7-0.5c-1.4-1.1-2.2-1.8-2.6-2.1c-0.2-0.2-0.5-0.1-0.7,0
				c-0.2,0.2-0.2,0.5,0,0.7l1,1c0.1,0.1,0.1,0.2,0.1,0.3c0,0.2-0.2,0.3-0.4,0.2l-0.2,0c0,0,0,0,0,0l-4.1-1.3c-0.2-0.1-0.4,0-0.5,0.2
				c-0.1,0.2,0,0.4,0.2,0.5l3.5,1.2c0.2,0.1,0.2,0.3,0.1,0.4c-0.1,0.1-0.1,0.1-0.2,0.1l-3.8-0.5c-0.2,0-0.4,0.1-0.5,0.3
				c0,0.2,0.1,0.4,0.3,0.5l3.7,0.6c0.1,0,0.2,0.1,0.2,0.2c0,0.1-0.1,0.3-0.3,0.3h-3c-0.2,0-0.3,0.1-0.4,0.3c0,0.2,0.1,0.4,0.3,0.4
				l3.4,0.3c0.1,0,0.1,0,0.2,0.1c0.1,0.1,0,0.3-0.2,0.3l-2.1,0.2c-0.2,0-0.3,0.2-0.3,0.3c0,0.2,0.2,0.3,0.3,0.3l3.2,0
				c1.2,0,2.3-0.1,3.4-0.4l1.1-0.2c0.8-0.2,1.5-0.4,2.3-0.6c2.7-0.9,5.3-2.2,7-4.4C327.8,152.4,325.6,148.6,323.4,149.2L323.4,149.2
				z"/>
		</g>
		<path class="st2" d="M297.2,159.3c-1.1-0.9-2.7-1.6-4.7-2.3l-4.6-1.4c-0.7-0.2-1.2-0.4-1.5-0.7c-0.3-0.3-0.5-0.6-0.5-1
			c0-1.2,1.1-1.9,3.3-1.9c1.3,0,2.6,0.2,4.1,0.7c1.5,0.4,2.8,1,3.8,1.7l2.1-6.5c-1.1-0.6-2.6-1.1-4.3-1.5c-1.8-0.4-3.6-0.6-5.4-0.6
			c-3.5,0-6.3,0.8-8.3,2.4c-2,1.6-3,3.7-3,6.2c0,1.9,0.5,3.4,1.5,4.6c1,1.2,2.6,2.1,4.8,2.7l5,1.4c1.6,0.4,2.5,1.1,2.5,1.9
			c0,0.6-0.3,1.1-0.9,1.5c-0.6,0.4-1.4,0.6-2.5,0.6c-2.8,0-5.5-0.9-8.2-2.7l-1.8,6.6c1.1,0.6,2.5,1.1,4.4,1.6
			c1.8,0.5,3.7,0.7,5.5,0.7c3.4,0,6.2-0.8,8.2-2.5c1.4-1.1,2.3-2.5,2.8-4.1C297.5,164.6,296.8,162,297.2,159.3z"/>
		<g>
			<path class="st2" d="M335,166v-20.3h-7.6v3.2c0,0,0,0,0,0c1.2,1.3,1.8,3.2,1.4,4.9c0.6,1.6,0.9,3.4,0.9,5.2c0,3-0.8,5.7-2.3,8
				v5.5h20.5V166H335z"/>
			<path class="st2" d="M349.2,172.6v-26.8h7.6v26.8H349.2z"/>
			<path class="st2" d="M359,172.6v-26.8h12.5c4.1,0,7.4,1.2,10,3.6c2.6,2.4,3.8,5.6,3.8,9.9c0,4.2-1.3,7.5-3.8,9.8
				c-2.6,2.4-5.9,3.5-10,3.5H359z M371.2,152.3h-4.6V166h4.6c1.9,0,3.5-0.6,4.6-1.8c1.2-1.2,1.7-2.9,1.7-5c0-2.2-0.6-3.9-1.7-5.1
				C374.7,152.9,373.1,152.3,371.2,152.3z"/>
			<path class="st2" d="M383.3,172.6l10.1-26.8h9l9.9,26.8h-7.7l-1.6-4.5h-10.5l-1.6,4.5H383.3z M397.8,153.2l-3.4,9.3h6.7
				L397.8,153.2z"/>
			<path class="st2" d="M412.9,172.6v-26.8h13.6c2.8,0,5.1,0.8,7.1,2.3c1.9,1.6,2.9,3.7,2.9,6.6c0,2-0.6,3.7-1.8,5.1
				c-1.2,1.4-2.8,2.4-4.8,2.9c1,0.9,1.8,1.5,2.3,2c0.5,0.4,1.2,0.8,2.1,1.3c0.8,0.4,1.6,0.6,2.3,0.6c1,0,1.9-0.1,2.6-0.4l0.7,5.9
				c-1.4,0.7-2.9,1-4.6,1c-1.2,0-2.4-0.3-3.6-0.8c-1.2-0.5-2.3-1.2-3.3-2.1c-1-0.9-1.9-1.7-2.8-2.6c-0.9-0.9-1.7-1.7-2.6-2.6
				c-0.9-0.9-1.7-1.5-2.3-1.9h-0.4v9.6H412.9z M425.8,152.3h-5.3v5.5h5.3c0.9,0,1.6-0.3,2.1-0.8c0.5-0.5,0.8-1.2,0.8-2
				c0-0.8-0.3-1.4-0.8-2S426.7,152.3,425.8,152.3z"/>
			<path class="st2" d="M440.8,172.6v-26.8h7.6v26.8H440.8z"/>
			<path class="st2" d="M449,172.6l10.1-26.8h9l9.9,26.8h-7.7l-1.6-4.5h-10.5l-1.6,4.5H449z M463.6,153.2l-3.4,9.3h6.7L463.6,153.2z
				"/>
		</g>
	</g>
</g>
</svg>
