<?xml version="1.0" encoding="utf-8"?>
<!-- Generator: Adobe Illustrator 26.3.1, SVG Export Plug-In . SVG Version: 6.00 Build 0)  -->
<svg version="1.1" id="Capa_1" xmlns="http://www.w3.org/2000/svg" xmlns:xlink="http://www.w3.org/1999/xlink" x="0px" y="0px"
	 viewBox="0 0 635.3 469.4" style="enable-background:new 0 0 635.3 469.4;" xml:space="preserve">
<style type="text/css">
	.st0{fill:#FFFFFF;}
	.st1{fill:#DE9130;}
	.st2{fill:#E6AC4A;}
	.st3{fill:#64A6DC;}
	.st4{fill:#5B5B5B;}
	.st5{font-family:'ArialMT';}
	.st6{font-size:12px;}
	.st7{fill:none;stroke:#D9D9D9;stroke-width:0.5;stroke-miterlimit:10;}
	.st8{opacity:9.000000e-02;fill:#64A6DC;enable-background:new    ;}
	.st9{fill:#7F7F7F;}
	.st10{fill:#1A2E35;}
	.st11{opacity:0.2;fill:#FFFFFF;}
	.st12{opacity:0.1;}
	.st13{fill:#007CFF;}
	.st14{opacity:0.3;}
	.st15{fill:#E1E1E1;}
	.st16{fill:#F5F5F5;}
	.st17{fill:#E7E7E7;}
	.st18{fill:#ECECEC;}
	.st19{fill:#F0F0F0;}
	.st20{fill:#FAFAFA;}
	.st21{opacity:0.2;enable-background:new    ;}
	.st22{fill:#FFB570;}
	.st23{opacity:0.5;fill:#FFFFFF;}
	.st24{opacity:0.7;fill:#FFFFFF;}
	.st25{fill:#FF5551;}
	.st26{opacity:0.2;fill:#FFFFFF;enable-background:new    ;}
	.st27{opacity:0.8;}
	.st28{fill:#F48C68;}
	.st29{opacity:0.2;fill:#DF3834;}
	.st30{fill:#DF3834;}
	.st31{opacity:0.1;fill:#FFFFFF;}
	.st32{opacity:0.2;}
	.st33{opacity:0.9;}
	.st34{opacity:0.6;}
	.st35{opacity:0.1;fill:#FFFFFF;enable-background:new    ;}
	.st36{opacity:0.7;}
	.st37{opacity:0.5;}
	.st38{opacity:0.4;fill:#FFFFFF;}
	.st39{fill:#100C25;}
	.st40{fill:#FF9C39;}
	.st41{fill:#FFDEC2;}
	.st42{fill:#F2C8AA;}
	.st43{font-family:'MyriadPro-Regular';}
	.st44{font-size:16.5387px;}
</style>
<g id="BACKGROUND">
</g>
<g id="OBJECTS">
	<rect x="19.3" y="29.6" class="st0" width="593.7" height="416.5"/>
	<g>
		
			<image style="overflow:visible;opacity:0.1;enable-background:new    ;" width="625" height="452" xlink:href="13A2392B.png"  transform="matrix(1 0 0 1 0.9412 14.2353)">
		</image>
		<g>
			<rect x="19.3" y="29.6" class="st0" width="593.7" height="421.4"/>
		</g>
	</g>
	<g>
		
			<image style="overflow:visible;opacity:0.32;enable-background:new    ;" width="613" height="77" xlink:href="13A23929.png"  transform="matrix(1 0 0 1 9.9412 23.2353)">
		</image>
		<g>
			<rect x="19.3" y="29.6" class="st0" width="593.7" height="57.9"/>
		</g>
	</g>
	<g id="Layer_x0020_1">
		<path class="st1" d="M89.7,54.9c-0.5,1.2,2,1.3,2.2,0.7c1.8-2.8,5-4.7,8.6-4.7c5.6,0,10.2,4.5,10.2,10.2c0,2.7-1,5.2-2.9,7.1
			l-0.7,0.8l0.1,1.1c0,0.5,0.2,1.3,0.4,2.1c-0.7-0.4-1.4-0.9-2.1-1.2l-0.8-0.4l-0.9,0.3c-1,0.3-2.1,0.5-3.2,0.5
			c-3.5,0-6.6-1.8-8.4-4.4c-0.4-1-2.9-0.4-2.3,0.6c2.2,3.7,6.2,6.1,10.7,6.1c1.4,0,2.7-0.2,3.9-0.6c0.5,0.2,2.8,1.8,4.3,2.2
			c2.2,0.7,0.9-3.6,0.7-5.3c2.2-2.2,3.5-5.3,3.5-8.7c0-6.9-5.6-12.4-12.4-12.4C95.9,48.7,91.9,51.2,89.7,54.9L89.7,54.9z"/>
		<path class="st2" d="M89.7,54.9c-0.5,1.2,2,1.3,2.2,0.7c1.8-2.8,5-4.7,8.6-4.7c1.6,0,3.2,0.4,4.6,1.1c-0.7-1.3-1.8-2.4-3-3.3
			c-0.5-0.1-1.1-0.1-1.6-0.1C95.9,48.7,91.9,51.2,89.7,54.9L89.7,54.9z"/>
		<path class="st2" d="M89.8,67.5c2.2,3.7,6.2,6.1,10.7,6.1c1.4,0,2.7-0.2,3.9-0.6c0.5,0.2,2.8,1.8,4.3,2.2c2.2,0.7,0.9-3.6,0.7-5.3
			c0.5-0.5,1-1.1,1.4-1.7c-1.1,0.4-2.3,0.7-3.6,0.8l-0.2,0.2l0.1,1.1c0,0.5,0.2,1.3,0.4,2.1c-0.7-0.4-1.4-0.9-2.1-1.2l-0.8-0.4
			l-0.9,0.3c-1,0.3-2.1,0.5-3.2,0.5c-3.5,0-6.6-1.8-8.4-4.4c-0.2-0.4-0.6-0.5-1.1-0.5C90.3,66.4,89.4,66.8,89.8,67.5L89.8,67.5z"/>
		<polygon class="st1" points="44,52 43.2,55.8 42.2,55.8 42.6,53.7 41.4,55.4 40.9,55.4 40.2,53.7 39.8,55.8 38.8,55.8 39.6,52 
			40.4,52 41.3,54.2 43.1,52 		"/>
		<path class="st1" d="M44.3,52c0-0.3,0.3-0.6,0.7-0.6c0.4,0,0.6,0.2,0.6,0.5c0,0.3-0.3,0.6-0.7,0.6C44.5,52.5,44.3,52.2,44.3,52
			L44.3,52z M44.2,52.8h1l-0.6,2.9h-1C43.6,55.8,44.2,52.8,44.2,52.8z"/>
		<polygon class="st1" points="48,52.8 47.8,53.4 49.5,53.4 49.4,54.2 47.7,54.2 47.5,54.9 49.5,54.9 49.3,55.8 46.3,55.8 47.1,52 
			50,52 49.9,52.8 		"/>
		<path class="st1" d="M55,53.8c0,0.1,0,0.2,0,0.4l-0.3,1.6h-1l0.3-1.5c0-0.1,0-0.1,0-0.2c0-0.3-0.1-0.4-0.4-0.4
			c-0.3,0-0.5,0.2-0.6,0.6l-0.3,1.5h-1l0.3-1.5c0-0.1,0-0.1,0-0.2c0-0.3-0.1-0.4-0.4-0.4c-0.3,0-0.5,0.2-0.6,0.7l-0.3,1.5h-1
			l0.6-2.9h1l-0.1,0.3c0.2-0.2,0.6-0.3,0.9-0.3c0.4,0,0.7,0.2,0.9,0.5c0.3-0.3,0.6-0.5,1.1-0.5C54.5,52.8,55,53.1,55,53.8L55,53.8z"
			/>
		<path class="st1" d="M57.5,54.2c0-0.3-0.2-0.6-0.6-0.6c-0.4,0-0.7,0.3-0.7,0.8c0,0.3,0.2,0.6,0.6,0.6C57.2,55,57.5,54.6,57.5,54.2
			L57.5,54.2z M58.5,54.1c0,1-0.7,1.7-1.6,1.7c-0.4,0-0.7-0.1-0.9-0.4l-0.3,1.4h-1l0.8-4h1l-0.1,0.3c0.2-0.2,0.5-0.3,0.8-0.3
			C57.9,52.8,58.5,53.2,58.5,54.1L58.5,54.1z"/>
		<path class="st1" d="M61,52.8l-0.2,0.9c-0.1,0-0.2,0-0.2,0c-0.5,0-0.7,0.2-0.8,0.7l-0.3,1.4h-1l0.6-2.9h1l-0.1,0.3
			C60.2,52.9,60.5,52.8,61,52.8L61,52.8z"/>
		<path class="st1" d="M61.6,54h1.2c0-0.3-0.2-0.5-0.5-0.5C61.9,53.5,61.7,53.7,61.6,54z M63.7,54.5h-2.2c0,0.3,0.3,0.5,0.7,0.5
			c0.3,0,0.5-0.1,0.7-0.2l0.4,0.7c-0.4,0.3-0.8,0.4-1.3,0.4c-1,0-1.6-0.5-1.6-1.3c0-1,0.7-1.7,1.8-1.7c0.9,0,1.5,0.5,1.5,1.3
			C63.8,54.2,63.7,54.4,63.7,54.5L63.7,54.5z"/>
		<path class="st1" d="M63.5,55.5l0.4-0.7c0.3,0.2,0.7,0.3,1,0.3c0.3,0,0.5-0.1,0.5-0.2c0-0.3-1.5,0-1.5-1c0-0.7,0.7-1.1,1.6-1.1
			c0.4,0,0.8,0.1,1.1,0.2l-0.4,0.7c-0.3-0.2-0.6-0.2-0.9-0.2c-0.3,0-0.5,0.1-0.5,0.2c0,0.3,1.5,0,1.5,1c0,0.7-0.7,1.1-1.6,1.1
			C64.2,55.8,63.7,55.7,63.5,55.5L63.5,55.5z"/>
		<path class="st1" d="M68.6,54.2c0-0.3-0.2-0.6-0.6-0.6c-0.4,0-0.7,0.3-0.7,0.8c0,0.3,0.2,0.6,0.6,0.6C68.3,55,68.6,54.6,68.6,54.2
			L68.6,54.2z M69.9,52.8l-0.6,3h-1l0.1-0.3c-0.2,0.2-0.5,0.3-0.8,0.3c-0.6,0-1.2-0.5-1.2-1.3c0-1,0.7-1.7,1.6-1.7
			c0.4,0,0.7,0.1,0.9,0.4l0.1-0.3L69.9,52.8L69.9,52.8z"/>
		<polygon class="st1" points="48.7,66.9 48,68.6 47.7,68.6 47.2,67.3 46.7,68.6 46.4,68.6 45.8,66.9 46.1,66.9 46.6,68.3 
			47.1,66.9 47.4,66.9 47.9,68.3 48.4,66.9 		"/>
		<polygon class="st1" points="51.5,66.9 50.8,68.6 50.5,68.6 50,67.3 49.5,68.6 49.2,68.6 48.5,66.9 48.8,66.9 49.3,68.3 
			49.9,66.9 50.1,66.9 50.7,68.3 51.2,66.9 		"/>
		<polygon class="st1" points="54.2,66.9 53.6,68.6 53.3,68.6 52.8,67.3 52.3,68.6 52,68.6 51.3,66.9 51.6,66.9 52.1,68.3 
			52.7,66.9 52.9,66.9 53.5,68.3 54,66.9 		"/>
		<path class="st1" d="M54.2,68.4c0-0.1,0.1-0.2,0.2-0.2c0.1,0,0.2,0.1,0.2,0.2s-0.1,0.2-0.2,0.2C54.3,68.6,54.2,68.5,54.2,68.4z"/>
		<path class="st1" d="M57.8,67.6v1h-0.3v-1c0-0.3-0.2-0.5-0.5-0.5c-0.3,0-0.5,0.2-0.5,0.6v0.9h-0.3v-1c0-0.3-0.2-0.5-0.5-0.5
			c-0.3,0-0.5,0.2-0.5,0.6v0.9h-0.3v-1.8h0.3v0.3c0.1-0.2,0.3-0.3,0.6-0.3s0.5,0.1,0.6,0.3c0.1-0.2,0.4-0.3,0.7-0.3
			C57.6,66.8,57.8,67.1,57.8,67.6L57.8,67.6z"/>
		<path class="st1" d="M58.2,66.9h0.3v1.8h-0.3V66.9z M58.2,66.3c0-0.1,0.1-0.2,0.2-0.2c0.1,0,0.2,0.1,0.2,0.2
			c0,0.1-0.1,0.2-0.2,0.2C58.3,66.5,58.2,66.4,58.2,66.3z"/>
		<path class="st1" d="M59.1,67.6h1.1c0-0.3-0.3-0.5-0.6-0.5C59.4,67.1,59.2,67.3,59.1,67.6L59.1,67.6z M60.5,67.8h-1.4
			c0,0.3,0.3,0.5,0.6,0.5c0.2,0,0.4-0.1,0.5-0.2l0.2,0.2c-0.2,0.2-0.4,0.3-0.7,0.3c-0.6,0-0.9-0.4-0.9-0.9c0-0.5,0.4-0.9,0.9-0.9
			C60.2,66.8,60.6,67.2,60.5,67.8C60.5,67.8,60.5,67.8,60.5,67.8L60.5,67.8z"/>
		<path class="st1" d="M63.7,67.6v1h-0.3v-1c0-0.3-0.2-0.5-0.5-0.5c-0.3,0-0.5,0.2-0.5,0.6v0.9h-0.3v-1c0-0.3-0.2-0.5-0.5-0.5
			c-0.3,0-0.5,0.2-0.5,0.6v0.9h-0.3v-1.8h0.3v0.3c0.1-0.2,0.3-0.3,0.6-0.3s0.5,0.1,0.6,0.3c0.1-0.2,0.4-0.3,0.7-0.3
			C63.4,66.8,63.7,67.1,63.7,67.6L63.7,67.6z"/>
		<path class="st1" d="M65.6,67.7c0-0.4-0.3-0.6-0.6-0.6c-0.3,0-0.6,0.2-0.6,0.6c0,0.4,0.2,0.6,0.6,0.6S65.6,68.1,65.6,67.7z
			 M65.9,67.7c0,0.5-0.4,0.9-0.9,0.9c-0.2,0-0.5-0.1-0.6-0.3v0.9h-0.3v-2.4h0.3v0.3c0.1-0.2,0.4-0.3,0.6-0.3
			C65.6,66.8,65.9,67.2,65.9,67.7L65.9,67.7z"/>
		<path class="st1" d="M67.1,66.8v0.3c0,0-0.1,0-0.1,0c-0.3,0-0.6,0.2-0.6,0.6v0.9h-0.3v-1.8h0.3v0.3C66.6,66.9,66.8,66.8,67.1,66.8
			L67.1,66.8z"/>
		<path class="st1" d="M67.5,67.6h1.1c0-0.3-0.2-0.5-0.6-0.5C67.7,67.1,67.5,67.3,67.5,67.6z M68.9,67.8h-1.4c0,0.3,0.3,0.5,0.6,0.5
			c0.2,0,0.4-0.1,0.5-0.2l0.2,0.2c-0.2,0.2-0.4,0.3-0.7,0.3c-0.6,0-0.9-0.4-0.9-0.9c0-0.5,0.4-0.9,0.9-0.9
			C68.6,66.8,68.9,67.2,68.9,67.8C68.9,67.8,68.9,67.8,68.9,67.8L68.9,67.8z"/>
		<path class="st1" d="M68.9,68.4l0.1-0.2c0.2,0.1,0.4,0.2,0.6,0.2c0.3,0,0.4-0.1,0.4-0.2c0-0.4-1.1-0.1-1.1-0.8
			c0-0.3,0.3-0.5,0.7-0.5c0.2,0,0.5,0.1,0.6,0.2l-0.1,0.2c-0.2-0.1-0.3-0.1-0.5-0.1c-0.3,0-0.4,0.1-0.4,0.2c0,0.4,1.1,0.1,1.1,0.8
			c0,0.3-0.3,0.5-0.8,0.5C69.4,68.6,69.1,68.5,68.9,68.4L68.9,68.4z"/>
		<path class="st1" d="M71.7,68.1v-0.2h-0.5c-0.3,0-0.4,0.1-0.4,0.3c0,0.2,0.2,0.3,0.4,0.3C71.4,68.4,71.6,68.3,71.7,68.1z M72,67.6
			v1.1h-0.3v-0.2c-0.1,0.2-0.3,0.2-0.6,0.2c-0.4,0-0.7-0.2-0.7-0.5c0-0.3,0.2-0.5,0.7-0.5h0.5v-0.1c0-0.3-0.2-0.4-0.5-0.4
			c-0.2,0-0.4,0.1-0.6,0.2l-0.1-0.2c0.2-0.2,0.4-0.2,0.7-0.2C71.7,66.8,72,67.1,72,67.6L72,67.6z"/>
		<path class="st1" d="M72.6,67.6h1.1c0-0.3-0.3-0.5-0.6-0.5C72.8,67.1,72.6,67.3,72.6,67.6L72.6,67.6z M74,67.8h-1.4
			c0,0.3,0.3,0.5,0.6,0.5c0.2,0,0.4-0.1,0.5-0.2l0.2,0.2c-0.2,0.2-0.4,0.3-0.7,0.3c-0.6,0-0.9-0.4-0.9-0.9c0-0.5,0.4-0.9,0.9-0.9
			C73.7,66.8,74,67.2,74,67.8C74,67.8,74,67.8,74,67.8L74,67.8z"/>
		<path class="st1" d="M75.9,67.6v1h-0.3v-1c0-0.3-0.2-0.5-0.5-0.5c-0.3,0-0.6,0.2-0.6,0.6v0.9h-0.3v-1.8h0.3v0.3
			c0.1-0.2,0.3-0.3,0.6-0.3C75.6,66.8,75.9,67.1,75.9,67.6L75.9,67.6z"/>
		<polygon class="st1" points="76.3,66.2 76.6,66.2 76.6,68.6 76.3,68.6 		"/>
		<path class="st1" d="M77,66.9h0.3v1.8H77V66.9z M77,66.3c0-0.1,0.1-0.2,0.2-0.2c0.1,0,0.2,0.1,0.2,0.2c0,0.1-0.1,0.2-0.2,0.2
			C77.1,66.5,77,66.4,77,66.3z"/>
		<path class="st1" d="M79.4,67.6v1h-0.3v-1c0-0.3-0.2-0.5-0.5-0.5c-0.3,0-0.6,0.2-0.6,0.6v0.9h-0.3v-1.8h0.3v0.3
			c0.1-0.2,0.3-0.3,0.6-0.3C79.1,66.8,79.4,67.1,79.4,67.6L79.4,67.6z"/>
		<path class="st1" d="M80,67.6h1.1c0-0.3-0.2-0.5-0.6-0.5S80,67.3,80,67.6z M81.4,67.8H80c0,0.3,0.3,0.5,0.6,0.5
			c0.2,0,0.4-0.1,0.5-0.2l0.2,0.2c-0.2,0.2-0.4,0.3-0.7,0.3c-0.6,0-0.9-0.4-0.9-0.9c0-0.5,0.4-0.9,0.9-0.9
			C81.1,66.8,81.4,67.2,81.4,67.8C81.4,67.8,81.4,67.8,81.4,67.8L81.4,67.8z"/>
		<path class="st1" d="M82.7,68.1v-0.2h-0.5c-0.3,0-0.4,0.1-0.4,0.3c0,0.2,0.2,0.3,0.4,0.3C82.4,68.4,82.6,68.3,82.7,68.1L82.7,68.1
			z M83,67.6v1.1h-0.3v-0.2c-0.1,0.2-0.3,0.2-0.6,0.2c-0.4,0-0.7-0.2-0.7-0.5c0-0.3,0.2-0.5,0.7-0.5h0.5v-0.1c0-0.3-0.2-0.4-0.5-0.4
			c-0.2,0-0.4,0.1-0.6,0.2l-0.1-0.2c0.2-0.2,0.4-0.2,0.7-0.2C82.8,66.8,83,67.1,83,67.6L83,67.6z"/>
		<path class="st1" d="M83.3,68.4c0-0.1,0.1-0.2,0.2-0.2c0.1,0,0.2,0.1,0.2,0.2s-0.1,0.2-0.2,0.2C83.4,68.6,83.3,68.5,83.3,68.4z"/>
		<path class="st1" d="M85.3,67.7c0-0.4-0.2-0.6-0.6-0.6s-0.6,0.2-0.6,0.6c0,0.4,0.3,0.6,0.6,0.6C85.1,68.4,85.3,68.1,85.3,67.7z
			 M83.8,67.7c0-0.5,0.4-0.9,0.9-0.9c0.5,0,0.9,0.4,0.9,0.9s-0.4,0.9-0.9,0.9C84.2,68.6,83.8,68.3,83.8,67.7z"/>
		<path class="st1" d="M86.8,66.8v0.3c0,0-0.1,0-0.1,0c-0.3,0-0.6,0.2-0.6,0.6v0.9h-0.3v-1.8h0.3v0.3C86.3,66.9,86.5,66.8,86.8,66.8
			L86.8,66.8z"/>
		<path class="st1" d="M88.4,67.7c0-0.3-0.2-0.6-0.6-0.6s-0.6,0.2-0.6,0.6s0.2,0.6,0.6,0.6C88.2,68.3,88.4,68,88.4,67.7z M88.7,66.9
			v1.5c0,0.6-0.3,0.9-0.9,0.9c-0.3,0-0.7-0.1-0.8-0.3l0.2-0.2c0.2,0.1,0.4,0.2,0.7,0.2c0.4,0,0.6-0.2,0.6-0.6v-0.1
			c-0.2,0.2-0.4,0.3-0.6,0.3c-0.5,0-0.9-0.3-0.9-0.8s0.4-0.8,0.9-0.8c0.3,0,0.5,0.1,0.7,0.3v-0.3L88.7,66.9L88.7,66.9z"/>
		<path class="st3" d="M49.5,60.4h3.4c0-0.9-0.6-1.4-1.5-1.4C50.4,59,49.8,59.5,49.5,60.4z M55.3,61.9h-6c0.1,0.9,0.7,1.3,1.9,1.3
			c0.7,0,1.4-0.2,2-0.7l1.2,1.8c-1,0.8-2.3,1.1-3.5,1.1c-2.6,0-4.4-1.5-4.4-3.7c0-2.7,2-4.7,5-4.7c2.5,0,4,1.5,4,3.6
			C55.5,61,55.4,61.5,55.3,61.9L55.3,61.9z"/>
		<path class="st3" d="M64.7,59.7c0,0.3,0,0.7-0.1,1l-0.9,4.5h-2.9l0.9-4.3c0-0.2,0.1-0.4,0.1-0.5c0-0.7-0.4-1.1-1.1-1.1
			c-1,0-1.7,0.6-1.9,1.8l-0.8,4.1H55l1.6-8.2h2.7l-0.2,0.8c0.7-0.7,1.7-1,2.6-1C63.5,56.9,64.7,57.9,64.7,59.7L64.7,59.7z"/>
		<polygon class="st3" points="70.4,54.7 73.4,54.7 71.8,62.9 76.9,62.9 76.4,65.3 68.3,65.3 		"/>
		<path class="st3" d="M80.5,53.8h3l-3.1,2.3h-2.1C78.2,56.1,80.5,53.8,80.5,53.8z M78.1,57.1H81l-1.6,8.2h-2.9L78.1,57.1L78.1,57.1
			z"/>
		<path class="st3" d="M90,59.7c0,0.3,0,0.7-0.1,1L89,65.3h-2.9L87,61c0.1-0.2,0.1-0.4,0.1-0.5c0-0.7-0.4-1.1-1.1-1.1
			c-1,0-1.7,0.6-1.9,1.8l-0.8,4.1h-2.9l1.6-8.2h2.7l-0.2,0.8c0.7-0.7,1.7-1,2.6-1C88.8,56.9,90,57.9,90,59.7L90,59.7z"/>
		<path class="st3" d="M93.3,60.4h3.4c0-0.9-0.6-1.4-1.5-1.4C94.2,59,93.6,59.5,93.3,60.4z M99.2,61.9h-6c0.1,0.9,0.7,1.3,1.9,1.3
			c0.7,0,1.4-0.2,2-0.7l1.2,1.8c-1,0.8-2.3,1.1-3.5,1.1c-2.6,0-4.4-1.5-4.4-3.7c0-2.7,2-4.7,5-4.7c2.5,0,4,1.5,4,3.6
			C99.3,61,99.3,61.5,99.2,61.9L99.2,61.9z"/>
		<path class="st3" d="M105.5,60.8c0-1-0.6-1.6-1.6-1.6c-1.1,0-1.9,0.9-1.9,2.3c0,1,0.6,1.6,1.6,1.6
			C104.7,63.1,105.5,62.2,105.5,60.8L105.5,60.8z M109.1,57.1l-1.6,8.2h-2.7l0.2-0.8c-0.6,0.6-1.4,0.9-2.4,0.9
			c-1.8,0-3.5-1.3-3.5-3.7c0-2.7,2-4.7,4.4-4.7c1.1,0,2,0.3,2.5,1.1l0.2-1L109.1,57.1L109.1,57.1z"/>
	</g>
	<g>
		
			<image style="overflow:visible;opacity:0.32;enable-background:new    ;" width="142" height="352" xlink:href="13A2392F.png"  transform="matrix(1 0 0 1 21.9412 92.2353)">
		</image>
		<g>
			<path class="st0" d="M147.6,431.6H38.8c-3.9,0-7-3.1-7-7V106.2c0-3.9,3.1-7,7-7h108.8c3.9,0,7,3.1,7,7v318.5
				C154.6,428.5,151.4,431.6,147.6,431.6z"/>
		</g>
	</g>
	<g>
		
			<image style="overflow:visible;opacity:0.32;enable-background:new    ;" width="446" height="352" xlink:href="13A23928.png"  transform="matrix(1 0 0 1 157.9412 92.2353)">
		</image>
		<g>
			<path class="st0" d="M587.3,431.6H174.9c-3.9,0-7-3.1-7-7V106.2c0-3.9,3.1-7,7-7h412.5c3.9,0,7,3.1,7,7v318.5
				C594.3,428.5,591.2,431.6,587.3,431.6z"/>
		</g>
	</g>
	<path class="st3" d="M335.1,159.1H193.5c-2.4,0-4.3-1.9-4.3-4.3l0,0c0-2.4,1.9-4.3,4.3-4.3h141.7c2.4,0,4.3,1.9,4.3,4.3l0,0
		C339.4,157.2,337.5,159.1,335.1,159.1z"/>
	<path class="st1" d="M597.1,71.4L597.1,71.4c-17.5,0-31.6-14.2-31.6-31.6l0,0c0-17.5,14.2-31.6,31.6-31.6l0,0
		c17.5,0,31.6,14.2,31.6,31.6l0,0C628.7,57.2,614.6,71.4,597.1,71.4z"/>
	<g>
		
			<image style="overflow:visible;opacity:0.45;enable-background:new    ;" width="82" height="83" xlink:href="13A23926.png"  transform="matrix(1 0 0 1 559.9412 -3.7647)">
		</image>
		<g>
			<path class="st0" d="M598.8,69.3L598.8,69.3c-17.5,0-31.6-14.2-31.6-31.6l0,0c0-17.5,14.2-31.6,31.6-31.6l0,0
				c17.5,0,31.6,14.2,31.6,31.6l0,0C630.4,55.1,616.3,69.3,598.8,69.3z"/>
		</g>
	</g>
	<g>
		<path class="st3" d="M592.2,57.1l4.4-27.6h-5.3l2.2-7.5h13.3l-5.5,35L592.2,57.1L592.2,57.1z"/>
	</g>
	<g>
		<text transform="matrix(1 0 0 1 43.617 117.918)" class="st4 st5 st6">Inicio</text>
	</g>
	<line class="st7" x1="41.9" y1="122.6" x2="139.5" y2="122.6"/>
	<path class="st8" d="M134.2,147h-87c-2.2,0-4-1.8-4-4v-11.8c0-2.2,1.8-4,4-4h87c2.2,0,4,1.8,4,4V143
		C138.2,145.2,136.4,147,134.2,147z"/>
	<g>
		<path class="st9" d="M50.3,140.1c0.3,0.2,0.9,0.4,1.4,0.4c0.8,0,1.3-0.4,1.3-1c0-0.6-0.3-0.9-1.1-1.2c-1-0.4-1.6-0.9-1.6-1.7
			c0-0.9,0.8-1.6,2-1.6c0.6,0,1.1,0.1,1.3,0.3l-0.2,0.6c-0.2-0.1-0.6-0.3-1.2-0.3c-0.8,0-1.1,0.5-1.1,0.9c0,0.6,0.4,0.9,1.2,1.2
			c1,0.4,1.5,0.9,1.5,1.8c0,0.9-0.7,1.8-2.1,1.8c-0.6,0-1.2-0.2-1.5-0.4L50.3,140.1z"/>
		<path class="st9" d="M58.8,138.9c0,1.6-1.1,2.3-2.2,2.3c-1.2,0-2.1-0.9-2.1-2.2c0-1.5,1-2.3,2.2-2.3
			C58,136.6,58.8,137.6,58.8,138.9z M55.4,138.9c0,0.9,0.5,1.7,1.3,1.7c0.8,0,1.3-0.7,1.3-1.7c0-0.7-0.4-1.7-1.3-1.7
			C55.8,137.2,55.4,138.1,55.4,138.9z"/>
		<path class="st9" d="M59.8,134.7h0.8v6.4h-0.8V134.7z"/>
		<path class="st9" d="M62.8,135.5c0,0.3-0.2,0.5-0.5,0.5c-0.3,0-0.5-0.2-0.5-0.5c0-0.3,0.2-0.5,0.5-0.5
			C62.6,135,62.8,135.2,62.8,135.5z M62,141.1v-4.4h0.8v4.4H62z"/>
		<path class="st9" d="M67.2,140.9c-0.2,0.1-0.7,0.2-1.2,0.2c-1.3,0-2.2-0.9-2.2-2.2c0-1.3,0.9-2.3,2.3-2.3c0.5,0,0.9,0.1,1.1,0.2
			l-0.2,0.6c-0.2-0.1-0.5-0.2-0.9-0.2c-1,0-1.5,0.7-1.5,1.6c0,1,0.7,1.6,1.5,1.6c0.4,0,0.8-0.1,1-0.2L67.2,140.9z"/>
		<path class="st9" d="M69,135.5c0,0.3-0.2,0.5-0.5,0.5c-0.3,0-0.5-0.2-0.5-0.5c0-0.3,0.2-0.5,0.5-0.5C68.8,135,69,135.2,69,135.5z
			 M68.1,141.1v-4.4h0.8v4.4H68.1z"/>
		<path class="st9" d="M71.2,135.5v1.2h1.1v0.6h-1.1v2.4c0,0.5,0.2,0.9,0.6,0.9c0.2,0,0.4,0,0.5-0.1l0,0.6c-0.2,0.1-0.4,0.1-0.7,0.1
			c-0.4,0-0.7-0.1-0.8-0.3c-0.2-0.2-0.3-0.6-0.3-1.1v-2.4h-0.7v-0.6h0.7v-1L71.2,135.5z"/>
		<path class="st9" d="M76.8,139.9c0,0.4,0,0.9,0,1.2h-0.7l0-0.7h0c-0.2,0.4-0.7,0.8-1.4,0.8c-0.7,0-1.5-0.4-1.5-1.9v-2.6H74v2.4
			c0,0.8,0.2,1.4,1,1.4c0.5,0,0.9-0.4,1-0.7c0-0.1,0.1-0.3,0.1-0.4v-2.7h0.8C76.8,136.7,76.8,139.9,76.8,139.9z"/>
		<path class="st9" d="M81.9,134.7v5.3c0,0.4,0,0.8,0,1.1h-0.7l0-0.8h0c-0.2,0.5-0.8,0.9-1.5,0.9c-1.1,0-1.9-0.9-1.9-2.2
			c0-1.4,0.9-2.3,1.9-2.3c0.7,0,1.1,0.3,1.3,0.7h0v-2.6H81.9z M81.1,138.5c0-0.1,0-0.2,0-0.3c-0.1-0.5-0.6-0.9-1.1-0.9
			c-0.8,0-1.3,0.7-1.3,1.7c0,0.9,0.4,1.6,1.3,1.6c0.5,0,1-0.4,1.2-0.9c0-0.1,0-0.2,0-0.3C81.1,139.3,81.1,138.5,81.1,138.5z"/>
		<path class="st9" d="M83.7,139.1c0,1.1,0.7,1.5,1.5,1.5c0.6,0,0.9-0.1,1.2-0.2l0.1,0.6c-0.3,0.1-0.8,0.3-1.4,0.3
			c-1.3,0-2.1-0.9-2.1-2.2s0.8-2.4,2-2.4c1.4,0,1.8,1.2,1.8,2.1c0,0.2,0,0.3,0,0.4H83.7z M86,138.5c0-0.5-0.2-1.3-1.1-1.3
			c-0.8,0-1.2,0.7-1.2,1.3H86z"/>
		<path class="st9" d="M87.6,140.3c0.2,0.1,0.7,0.3,1,0.3c0.6,0,0.8-0.3,0.8-0.6c0-0.4-0.2-0.6-0.8-0.8c-0.8-0.3-1.2-0.7-1.2-1.2
			c0-0.7,0.6-1.3,1.5-1.3c0.4,0,0.8,0.1,1.1,0.3l-0.2,0.6c-0.2-0.1-0.5-0.2-0.9-0.2c-0.5,0-0.7,0.3-0.7,0.6c0,0.4,0.3,0.5,0.8,0.7
			c0.8,0.3,1.1,0.7,1.1,1.3c0,0.8-0.6,1.3-1.6,1.3c-0.5,0-0.9-0.1-1.2-0.3L87.6,140.3z"/>
	</g>
	<path class="st8" d="M134.2,171.4h-87c-2.2,0-4-1.8-4-4v-11.8c0-2.2,1.8-4,4-4h87c2.2,0,4,1.8,4,4v11.8
		C138.2,169.6,136.4,171.4,134.2,171.4z"/>
	<g>
		<path class="st9" d="M52.6,161.7h-2.4v2.2h2.6v0.7h-3.4v-6.1h3.3v0.7h-2.5v1.9h2.4V161.7z"/>
		<path class="st9" d="M53.8,161.3c0-0.4,0-0.8,0-1.2h0.7l0,0.7h0c0.2-0.4,0.7-0.8,1.4-0.8c0.6,0,1,0.4,1.2,0.9h0
			c0.1-0.2,0.3-0.4,0.5-0.6c0.3-0.2,0.5-0.3,1-0.3c0.6,0,1.4,0.4,1.4,1.9v2.6h-0.8V162c0-0.8-0.3-1.3-1-1.3c-0.5,0-0.8,0.3-0.9,0.7
			c0,0.1-0.1,0.2-0.1,0.4v2.7h-0.8v-2.6c0-0.7-0.3-1.2-0.9-1.2c-0.5,0-0.8,0.4-1,0.8c0,0.1-0.1,0.2-0.1,0.4v2.6h-0.8L53.8,161.3
			L53.8,161.3z"/>
		<path class="st9" d="M61.3,161.6c0-0.6,0-1,0-1.4H62l0,0.8h0c0.3-0.5,0.8-0.9,1.5-0.9c1.1,0,1.8,0.9,1.8,2.2c0,1.6-0.9,2.3-2,2.3
			c-0.6,0-1.1-0.2-1.3-0.7h0v2.4h-0.8L61.3,161.6L61.3,161.6z M62.1,162.7c0,0.1,0,0.2,0,0.3c0.1,0.6,0.6,0.9,1.2,0.9
			c0.8,0,1.3-0.7,1.3-1.7c0-0.9-0.5-1.6-1.3-1.6c-0.5,0-1,0.4-1.2,1c0,0.1,0,0.2,0,0.3C62.1,162,62.1,162.7,62.1,162.7z"/>
		<path class="st9" d="M66.4,161.5c0-0.5,0-0.9,0-1.4h0.7l0,0.9h0c0.2-0.6,0.7-0.9,1.2-0.9c0.1,0,0.2,0,0.2,0v0.8
			c-0.1,0-0.2,0-0.3,0c-0.6,0-0.9,0.4-1.1,1c0,0.1,0,0.2,0,0.4v2.3h-0.8C66.5,164.5,66.5,161.5,66.4,161.5z"/>
		<path class="st9" d="M69.7,162.5c0,1.1,0.7,1.5,1.5,1.5c0.6,0,0.9-0.1,1.2-0.2l0.1,0.6c-0.3,0.1-0.8,0.3-1.4,0.3
			c-1.3,0-2.1-0.9-2.1-2.2s0.8-2.4,2-2.4c1.4,0,1.8,1.2,1.8,2.1c0,0.2,0,0.3,0,0.4H69.7z M72.1,161.9c0-0.5-0.2-1.3-1.1-1.3
			c-0.8,0-1.2,0.7-1.2,1.3H72.1z"/>
		<path class="st9" d="M73.7,163.7c0.2,0.1,0.7,0.3,1,0.3c0.6,0,0.8-0.3,0.8-0.6c0-0.4-0.2-0.6-0.8-0.8c-0.8-0.3-1.2-0.7-1.2-1.2
			c0-0.7,0.6-1.3,1.5-1.3c0.4,0,0.8,0.1,1.1,0.3l-0.2,0.6c-0.2-0.1-0.5-0.2-0.9-0.2c-0.5,0-0.7,0.3-0.7,0.6c0,0.4,0.3,0.5,0.8,0.7
			c0.8,0.3,1.1,0.7,1.1,1.3c0,0.8-0.6,1.3-1.6,1.3c-0.5,0-0.9-0.1-1.2-0.3L73.7,163.7z"/>
		<path class="st9" d="M79.8,164.5l-0.1-0.6h0c-0.2,0.3-0.7,0.6-1.3,0.6c-0.9,0-1.3-0.6-1.3-1.2c0-1.1,0.9-1.6,2.6-1.6v-0.1
			c0-0.4-0.1-1-1-1c-0.4,0-0.8,0.1-1.1,0.3l-0.2-0.5c0.4-0.2,0.9-0.4,1.4-0.4c1.3,0,1.7,0.9,1.7,1.8v1.6c0,0.4,0,0.8,0.1,1
			L79.8,164.5L79.8,164.5z M79.7,162.3c-0.9,0-1.8,0.1-1.8,1c0,0.5,0.3,0.8,0.8,0.8c0.6,0,0.9-0.4,1.1-0.7c0-0.1,0.1-0.2,0.1-0.2
			C79.7,163,79.7,162.3,79.7,162.3z"/>
		<path class="st9" d="M81.6,163.7c0.2,0.1,0.7,0.3,1,0.3c0.6,0,0.8-0.3,0.8-0.6c0-0.4-0.2-0.6-0.8-0.8c-0.8-0.3-1.2-0.7-1.2-1.2
			c0-0.7,0.6-1.3,1.5-1.3c0.4,0,0.8,0.1,1.1,0.3l-0.2,0.6c-0.2-0.1-0.5-0.2-0.9-0.2c-0.5,0-0.7,0.3-0.7,0.6c0,0.4,0.3,0.5,0.8,0.7
			c0.8,0.3,1.1,0.7,1.1,1.3c0,0.8-0.6,1.3-1.6,1.3c-0.5,0-0.9-0.1-1.2-0.3L81.6,163.7z"/>
		<path class="st9" d="M91.4,164.3c-0.3,0.1-0.9,0.3-1.6,0.3c-1.7,0-3-1.1-3-3.1c0-1.9,1.3-3.2,3.2-3.2c0.8,0,1.2,0.2,1.4,0.3
			l-0.2,0.6c-0.3-0.1-0.7-0.2-1.2-0.2c-1.4,0-2.4,0.9-2.4,2.5c0,1.5,0.9,2.4,2.3,2.4c0.5,0,1-0.1,1.3-0.2L91.4,164.3z"/>
		<path class="st9" d="M96.2,162.3c0,1.6-1.1,2.3-2.2,2.3c-1.2,0-2.1-0.9-2.1-2.2c0-1.5,0.9-2.3,2.2-2.3
			C95.4,160.1,96.2,161,96.2,162.3z M92.8,162.3c0,0.9,0.6,1.7,1.3,1.7c0.8,0,1.3-0.7,1.3-1.7c0-0.7-0.4-1.7-1.3-1.7
			C93.2,160.6,92.8,161.5,92.8,162.3z"/>
		<path class="st9" d="M97.2,161.3c0-0.4,0-0.8,0-1.2h0.7l0,0.7h0c0.2-0.4,0.7-0.8,1.4-0.8c0.6,0,1.5,0.4,1.5,1.9v2.6h-0.8V162
			c0-0.7-0.3-1.3-1-1.3c-0.5,0-0.9,0.4-1.1,0.8c0,0.1-0.1,0.2-0.1,0.4v2.6h-0.8C97.2,164.5,97.2,161.3,97.2,161.3z"/>
		<path class="st9" d="M102.1,163.7c0.2,0.1,0.7,0.3,1,0.3c0.6,0,0.8-0.3,0.8-0.6c0-0.4-0.2-0.6-0.8-0.8c-0.8-0.3-1.2-0.7-1.2-1.2
			c0-0.7,0.6-1.3,1.5-1.3c0.4,0,0.8,0.1,1.1,0.3l-0.2,0.6c-0.2-0.1-0.5-0.2-0.9-0.2c-0.5,0-0.7,0.3-0.7,0.6c0,0.4,0.3,0.5,0.8,0.7
			c0.8,0.3,1.1,0.7,1.1,1.3c0,0.8-0.6,1.3-1.6,1.3c-0.5,0-0.9-0.1-1.2-0.3L102.1,163.7z"/>
		<path class="st9" d="M106.8,158.9v1.2h1.1v0.6h-1.1v2.4c0,0.5,0.2,0.9,0.6,0.9c0.2,0,0.4,0,0.5-0.1l0,0.6
			c-0.2,0.1-0.4,0.1-0.7,0.1c-0.4,0-0.7-0.1-0.8-0.3c-0.2-0.2-0.3-0.6-0.3-1.1v-2.4h-0.7v-0.6h0.7v-1L106.8,158.9z"/>
		<path class="st9" d="M109.7,158.9c0,0.3-0.2,0.5-0.5,0.5c-0.3,0-0.5-0.2-0.5-0.5c0-0.3,0.2-0.5,0.5-0.5
			C109.5,158.4,109.7,158.6,109.7,158.9z M108.8,164.5v-4.4h0.8v4.4H108.8z"/>
		<path class="st9" d="M111.8,158.9v1.2h1.1v0.6h-1.1v2.4c0,0.5,0.2,0.9,0.6,0.9c0.2,0,0.4,0,0.5-0.1l0,0.6
			c-0.2,0.1-0.4,0.1-0.7,0.1c-0.4,0-0.7-0.1-0.8-0.3c-0.2-0.2-0.3-0.6-0.3-1.1v-2.4h-0.7v-0.6h0.7v-1L111.8,158.9z"/>
		<path class="st9" d="M117.5,163.3c0,0.4,0,0.9,0,1.2h-0.7l0-0.7h0c-0.2,0.4-0.7,0.8-1.4,0.8c-0.7,0-1.5-0.4-1.5-1.9v-2.6h0.8v2.4
			c0,0.8,0.2,1.4,1,1.4c0.5,0,0.9-0.4,1-0.7c0-0.1,0.1-0.3,0.1-0.4v-2.7h0.8C117.5,160.1,117.5,163.3,117.5,163.3z"/>
		<path class="st9" d="M119.7,158.9c0,0.3-0.2,0.5-0.5,0.5c-0.3,0-0.5-0.2-0.5-0.5c0-0.3,0.2-0.5,0.5-0.5
			C119.5,158.4,119.7,158.6,119.7,158.9z M118.8,164.5v-4.4h0.8v4.4H118.8z"/>
		<path class="st9" d="M124.7,158.1v5.3c0,0.4,0,0.8,0,1.1H124l0-0.8h0c-0.2,0.5-0.8,0.9-1.5,0.9c-1.1,0-1.9-0.9-1.9-2.2
			c0-1.4,0.9-2.3,1.9-2.3c0.7,0,1.1,0.3,1.3,0.7h0v-2.6H124.7z M123.9,161.9c0-0.1,0-0.2,0-0.3c-0.1-0.5-0.6-0.9-1.1-0.9
			c-0.8,0-1.3,0.7-1.3,1.7c0,0.9,0.4,1.6,1.3,1.6c0.5,0,1-0.4,1.2-0.9c0-0.1,0-0.2,0-0.3C123.9,162.7,123.9,161.9,123.9,161.9z"/>
		<path class="st9" d="M128.4,164.5l-0.1-0.6h0c-0.2,0.3-0.7,0.6-1.3,0.6c-0.9,0-1.3-0.6-1.3-1.2c0-1.1,0.9-1.6,2.6-1.6v-0.1
			c0-0.4-0.1-1-1-1c-0.4,0-0.8,0.1-1.1,0.3l-0.2-0.5c0.4-0.2,0.9-0.4,1.4-0.4c1.3,0,1.7,0.9,1.7,1.8v1.6c0,0.4,0,0.8,0.1,1
			L128.4,164.5L128.4,164.5z M128.3,162.3c-0.9,0-1.8,0.1-1.8,1c0,0.5,0.3,0.8,0.8,0.8c0.6,0,0.9-0.4,1-0.7c0-0.1,0.1-0.2,0.1-0.2
			V162.3z"/>
		<path class="st9" d="M130.2,163.7c0.2,0.1,0.6,0.3,1,0.3c0.6,0,0.9-0.3,0.9-0.6c0-0.4-0.2-0.6-0.8-0.8c-0.8-0.3-1.1-0.7-1.1-1.2
			c0-0.7,0.6-1.3,1.5-1.3c0.4,0,0.8,0.1,1.1,0.3l-0.2,0.6c-0.2-0.1-0.5-0.2-0.9-0.2c-0.5,0-0.7,0.3-0.7,0.6c0,0.4,0.3,0.5,0.8,0.7
			c0.8,0.3,1.1,0.7,1.1,1.3c0,0.8-0.6,1.3-1.6,1.3c-0.5,0-0.9-0.1-1.2-0.3L130.2,163.7z"/>
	</g>
	<path class="st8" d="M134.2,195.8h-87c-2.2,0-4-1.8-4-4V180c0-2.2,1.8-4,4-4h87c2.2,0,4,1.8,4,4v11.8
		C138.2,194,136.4,195.8,134.2,195.8z"/>
	<g>
		<path class="st9" d="M49.4,182.9c0.4-0.1,0.9-0.1,1.5-0.1c0.8,0,1.3,0.2,1.7,0.5c0.3,0.3,0.5,0.7,0.5,1.3c0,0.6-0.2,1-0.5,1.3
			c-0.4,0.4-1.1,0.7-1.8,0.7c-0.2,0-0.5,0-0.6-0.1v2.4h-0.8V182.9z M50.2,185.9c0.2,0.1,0.4,0.1,0.7,0.1c1,0,1.5-0.5,1.5-1.3
			c0-0.8-0.6-1.2-1.4-1.2c-0.3,0-0.6,0-0.7,0.1V185.9z"/>
		<path class="st9" d="M54.4,186.9c0,1.1,0.7,1.5,1.5,1.5c0.6,0,0.9-0.1,1.2-0.2l0.1,0.6c-0.3,0.1-0.8,0.3-1.5,0.3
			c-1.3,0-2.1-0.9-2.1-2.2s0.8-2.4,2-2.4c1.4,0,1.8,1.2,1.8,2.1c0,0.2,0,0.3,0,0.4H54.4z M56.7,186.3c0-0.5-0.2-1.3-1.1-1.3
			c-0.8,0-1.2,0.7-1.2,1.3H56.7z"/>
		<path class="st9" d="M58.5,185.9c0-0.5,0-0.9,0-1.4h0.7l0,0.9h0c0.2-0.6,0.7-0.9,1.2-0.9c0.1,0,0.2,0,0.2,0v0.8
			c-0.1,0-0.2,0-0.3,0c-0.6,0-1,0.4-1.1,1c0,0.1,0,0.2,0,0.4v2.3h-0.8L58.5,185.9L58.5,185.9z"/>
		<path class="st9" d="M61.8,188.9v-3.8h-0.6v-0.6h0.6v-0.2c0-1.1,0.7-1.9,1.9-1.9c0.4,0,0.9,0.1,1.1,0.3l-0.2,0.6
			c-0.2-0.1-0.5-0.2-0.9-0.2c-0.8,0-1.1,0.6-1.1,1.3v0.2h2.5v4.4h-0.8v-3.8h-1.8v3.8L61.8,188.9L61.8,188.9z"/>
		<path class="st9" d="M66.4,182.5h0.8v6.4h-0.8V182.5z"/>
	</g>
	<g>
		<g>
			<g>
				<path class="st10" d="M453.6,365.7h-50.3l6.6,58h55.4L453.6,365.7z"/>
				<path class="st10" d="M475.1,431.6l-92.9,0.1c-2.1,0-3.8-1.7-3.8-3.8v-0.5c0-2.1,1.7-3.8,3.8-3.8h83.1l-11.7-58h-50.3l-2.8-24.6
					c0.1-3.3,2.9-6,6.3-6h43.1c3.4,0,6.1,2.6,6.3,6L475.1,431.6z"/>
				<polygon class="st10" points="465.3,423.6 409.9,423.6 403.8,370.2 403.3,365.7 453.6,365.7 				"/>
				<polygon class="st11" points="465.3,423.6 409.9,423.6 403.8,370.2 403.3,365.7 453.6,365.7 				"/>
				<polygon class="st12" points="405.6,385 403.3,365.7 461.4,365.7 465.5,385 				"/>
			</g>
			<g>
				<path class="st13" d="M550.5,202.6h-13.9l-15.6,169.8h13.9c2.3,0,4.4-2.2,4.6-4.8l14.8-160.1
					C554.5,204.8,552.8,202.6,550.5,202.6z"/>
				<path class="st14" d="M550.5,202.6h-13.9l-15.6,169.8h13.9c2.3,0,4.4-2.2,4.6-4.8l14.8-160.1
					C554.5,204.8,552.8,202.6,550.5,202.6z"/>
				<g>
					<path class="st13" d="M529,372.4H320.4c-2.3,0-4-2.2-3.7-4.8l14.8-160.1c0.2-2.7,2.3-4.8,4.6-4.8h208.6c2.3,0,4,2.2,3.7,4.8
						l-14.8,160.1C533.3,370.2,531.3,372.4,529,372.4z"/>
				</g>
				<g>
					<path class="st13" d="M529,372.4H320.4c-2.3,0-4-2.2-3.7-4.8l14.8-160.1c0.2-2.7,2.3-4.8,4.6-4.8h208.6c2.3,0,4,2.2,3.7,4.8
						l-14.8,160.1C533.3,370.2,531.3,372.4,529,372.4z"/>
				</g>
			</g>
			<polygon class="st13" points="522.7,338.3 333.2,338.3 343.7,218.2 533.2,218.2 			"/>
			<polygon class="st13" points="522.7,338.3 333.2,338.3 343.7,218.2 533.2,218.2 			"/>
		</g>
		<g>
			<path class="st10" d="M518,365.2H331.3c-5.3,0-9.2-4.3-8.8-9.6L335,218.8c0.5-5.3,5.1-9.6,10.4-9.6h186.7c5.3,0,9.2,4.3,8.8,9.6
				l-12.5,136.9C528,360.9,523.3,365.2,518,365.2z"/>
		</g>
		<g>
			<g>
				<polygon class="st0" points="343.2,222.2 332.7,339 428.3,338.8 438,222.2 				"/>
				<g>
					<path class="st15" d="M354,338.4h46.8c10.5,0,19.8-8.5,20.7-19.1l0,0c0.9-10.5-6.9-19.1-17.4-19.1h-46.8
						c-10.5,0-19.8,8.5-20.7,19.1v0C335.7,329.9,343.5,338.4,354,338.4z"/>
					<path class="st16" d="M358.5,338.7h46.8c10.5,0,19.8-8.5,20.7-19.1l0,0c0.9-10.5-6.9-19.1-17.4-19.1h-46.8
						c-10.5,0-19.8,8.5-20.7,19.1l0,0C340.1,330.2,347.9,338.7,358.5,338.7z"/>
					<path class="st15" d="M345.1,318.4h76.6l0,0c0.7-7.9-5.1-14.2-13-14.2h-48.2C352.7,304.2,345.8,310.6,345.1,318.4L345.1,318.4z
						"/>
					<path class="st15" d="M357.9,334.6h48.2c7.9,0,14.8-6.4,15.5-14.2l0,0h-76.6l0,0C344.2,328.2,350,334.6,357.9,334.6z"/>
					<g>
						<polygon class="st17" points="377.3,306.9 366.4,306.9 365.4,318.5 376.3,318.5 						"/>
						<polygon class="st16" points="376.3,318.5 379.1,318.5 380.1,306.9 377.3,306.9 						"/>
						<polygon class="st17" points="371.9,305.2 363.7,305.2 362.6,318.5 370.7,318.5 						"/>
						<polygon class="st16" points="370.7,318.5 373.1,318.5 374.2,305.2 371.9,305.2 						"/>
						<polygon class="st18" points="369.3,306.9 362.5,306.9 361.4,318.5 368.3,318.5 						"/>
						<polygon class="st16" points="368.3,318.5 369.9,318.5 370.9,306.9 369.3,306.9 						"/>
						<polygon class="st17" points="363.5,308.9 354.5,308.9 353.7,318.5 362.7,318.5 						"/>
						<polygon class="st16" points="362.7,318.5 365,318.5 365.8,308.9 363.5,308.9 						"/>
						<polygon class="st17" points="359.1,307.4 352.3,307.4 351.3,318.5 358.1,318.5 						"/>
						<polygon class="st16" points="358.1,318.5 360,318.5 361,307.4 359,307.4 						"/>
						<polygon class="st17" points="356.9,308.9 350.3,308.9 349.5,318.5 356.1,318.5 						"/>
						<polygon class="st19" points="356.1,318.5 357.4,318.5 358.2,308.9 356.9,308.9 						"/>
					</g>
					<g>
						<polygon class="st17" points="409.7,322.6 398.9,322.6 397.8,334.1 408.7,334.1 						"/>
						<polygon class="st16" points="408.7,334.1 411.5,334.1 412.5,322.6 409.7,322.6 						"/>
						<polygon class="st17" points="404.3,320.8 396.2,320.8 395,334.1 403.2,334.1 						"/>
						<polygon class="st16" points="403.1,334.1 405.5,334.1 406.7,320.8 404.3,320.8 						"/>
						<polygon class="st17" points="372.7,322.6 361.8,322.6 360.8,334.1 371.7,334.1 						"/>
						<polygon class="st16" points="371.7,334.1 374.4,334.1 375.4,322.6 372.7,322.6 						"/>
						<polygon class="st17" points="367.3,320.8 359.1,320.8 357.9,334.1 366.1,334.1 						"/>
						<polygon class="st16" points="366.1,334.1 368.5,334.1 369.6,320.8 367.3,320.8 						"/>
						<polygon class="st18" points="401.8,322.6 394.9,322.6 393.9,334.1 400.7,334.1 						"/>
						<polygon class="st16" points="400.7,334.1 402.3,334.1 403.3,322.6 401.8,322.6 						"/>
						<polygon class="st17" points="396,324.5 386.9,324.5 386.1,334.1 395.1,334.1 						"/>
						<polygon class="st16" points="395.1,334.1 397.4,334.1 398.3,324.5 396,324.5 						"/>
						<polygon class="st17" points="391.5,323 384.7,323 383.7,334.1 390.5,334.1 						"/>
						<polygon class="st16" points="390.5,334.1 392.5,334.1 393.4,323 391.5,323 						"/>
						<polygon class="st17" points="389.4,324.5 382.8,324.5 381.9,334.1 388.5,334.1 						"/>
						<polygon class="st19" points="388.5,334.1 389.8,334.1 390.7,324.5 389.4,324.5 						"/>
					</g>
					<g>
						<g>
							<g>
								<g>
									<path class="st18" d="M400.3,307.3c0.3-0.5,0.8-0.7,1.3-0.6c0.5,0.1,0.8,0.6,0.8,1.1c0.4-0.3,0.8-0.3,1.2,0
										c0.3,0.2,0.5,0.7,0.4,1.1c0.4-0.3,1-0.2,1.2,0.3c0.2,0.4,0,1.1-0.5,1.3c0.3,0,0.5,0.3,0.5,0.6c0,0.3-0.3,0.6-0.6,0.6
										c0.3,0,0.6,0.3,0.6,0.6c0,0.3-0.2,0.6-0.5,0.7c0.3,0.1,0.3,0.6,0.1,0.9c-0.3,0.2-0.7,0.1-0.8-0.3c-0.1,0.1-0.2,0.1-0.3,0
										c-0.1-0.1,0-0.2,0.1-0.3c-0.2,0.2-0.5,0.1-0.5-0.1c0.1,0.6-0.7,1.1-1.1,0.8c0.1,0.2-0.1,0.6-0.4,0.6
										c-0.3,0.1-0.5,0-0.7-0.1c-0.2-0.1-0.5-0.3-0.7-0.2c-0.2,0-0.4,0.1-0.7,0.2c-0.7,0.2-1.5,0-2-0.5c-0.4,0.5-1.2,0.4-1.4-0.2
										c-0.1,0.3-0.3,0.5-0.6,0.5c-0.3,0-0.5-0.2-0.6-0.4c0,0.1,0,0.2,0,0.4c-0.5,0.1-0.9-0.5-0.7-1c-0.4,0-0.7-0.3-0.7-0.7
										c0-0.4,0.3-0.8,0.6-0.9c-0.6-0.2-1-0.8-0.9-1.4c0-0.6,0.5-1.3,1.1-1.4c0.2-0.1,0.5-0.1,0.7,0.1c0.2,0.2,0.2,0.5-0.1,0.6
										c-0.1-0.6,0.2-1.3,0.7-1.6c0.5-0.3,1.2-0.1,1.5,0.3c-0.2-0.2-0.1-0.6,0.1-0.9c0.2-0.2,0.5-0.4,0.8-0.3
										c0.1-0.4,0.5-0.7,0.9-0.6c0.4,0.1,0.6,0.5,0.6,0.9C399.7,307,400.2,306.9,400.3,307.3C400.6,307.2,400.3,307.3,400.3,307.3
										z"/>
								</g>
							</g>
							<g>
								<g>
									<path class="st20" d="M399.8,311c0.2-0.1,0.4-0.2,0.5-0.1c0.2,0,0.3,0.2,0.4,0.4c0,0.2-0.1,0.4-0.3,0.4
										c-0.2,0.1-0.4-0.1-0.7-0.1c-0.1,0-0.2,0-0.2,0.1c-0.3,0.1-0.6-0.1-0.9-0.3c-0.1-0.1-0.2-0.1-0.2-0.2
										c-0.1-0.1-0.1-0.2,0-0.3c0.1-0.1,0.3-0.2,0.5-0.1C399.2,310.6,399.5,310.8,399.8,311c-0.1-0.1-0.1-0.1-0.1-0.2L399.8,311z"
										/>
								</g>
								<g>
									<path class="st20" d="M395.1,310.7c0.1-0.1,0.2-0.1,0.3-0.1c0.1,0,0.2,0,0.3,0.1c0.1,0.1,0,0.3-0.1,0.4
										c-0.1,0.1-0.3,0.1-0.4,0.1c-0.2,0-0.3,0-0.4-0.1c0-0.1,0-0.2,0.1-0.3C395,310.7,395.1,310.7,395.1,310.7L395.1,310.7z"/>
								</g>
								<g>
									<path class="st20" d="M402.8,308.3c0.3,0.1,0.5,0.4,0.5,0.7c0,0.1,0,0.2-0.1,0.3c-0.1,0-0.1,0-0.2,0
										c-0.3-0.1-0.6-0.1-0.8-0.2c0.1,0.1,0.3,0.1,0.4,0.2c0.1,0.1,0.2,0.3,0.1,0.4c-0.1,0.2-0.2,0.3-0.4,0.3
										c-0.2,0-0.3-0.1-0.5-0.2c-0.1-0.1-0.3-0.3-0.3-0.4c0-0.2,0.3-0.4,0.4-0.2c-0.3-0.1-0.6-0.2-0.9-0.4
										c-0.1-0.1-0.2-0.1-0.2-0.3c-0.1-0.1-0.1-0.2,0-0.4c0.3-0.5,0.6,0.2,0.8,0.3C401.9,308.5,402.4,308.1,402.8,308.3z"/>
									<path class="st20" d="M403.9,310.6c0,0.1,0,0.2-0.1,0.3c-0.1,0.1-0.2,0-0.3-0.1c0.2,0.1,0.4,0.1,0.5,0.3
										c0.1,0.2,0.1,0.4-0.1,0.5c-0.1,0-0.2,0-0.4-0.1c-0.3-0.2-0.6-0.4-0.8-0.6c0.1,0.2-0.2,0.4-0.4,0.4c-0.2,0-0.4-0.1-0.6-0.2
										c-0.2-0.1-0.5-0.3-0.4-0.6c0.1-0.2,0.4-0.3,0.6-0.3c0.2,0.1,0.4,0.2,0.5,0.4c-0.1-0.2,0.1-0.4,0.3-0.5
										c0.2,0,0.4,0.1,0.5,0.2c-0.2-0.1-0.3-0.5,0.1-0.5C403.6,310,403.9,310.4,403.9,310.6z"/>
									<path class="st20" d="M397.4,309.8c0.2-0.1,0.4,0.1,0.4,0.2c0,0.2-0.1,0.4-0.3,0.4c0.1,0,0.3,0.1,0.3,0.2
										c0,0.1,0.1,0.1,0.1,0.2c0,0.1-0.2,0.2-0.3,0.2c-0.1,0-0.2,0-0.3-0.1c0.1,0,0.2,0,0.3,0.1c0.1,0.1,0.1,0.2,0,0.3
										c-0.1,0.1-0.2,0.1-0.3,0c-0.2-0.1-0.4-0.2-0.5-0.3c-0.1,0.1-0.3,0.2-0.5,0.2c-0.2,0-0.3-0.2-0.2-0.4c0-0.1,0.2-0.2,0.3-0.2
										c0.1,0,0.3,0,0.4,0.1c-0.1-0.1-0.2-0.2-0.3-0.3c0-0.1,0.1-0.3,0.2-0.3c0.2,0,0.2,0.2,0.4,0.3
										C397.3,310.3,397,309.9,397.4,309.8z"/>
									<g>
										<path class="st20" d="M400.5,309.1c0.2,0.1,0.2,0.4,0.2,0.6c0,0.3-0.2,0.5-0.4,0.6c-0.3,0.1-0.7-0.1-0.7-0.5
											c0-0.3,0.2-0.7,0.5-0.8C400.1,309.1,400.4,309,400.5,309.1z"/>
									</g>
									<g>
										<path class="st20" d="M398.4,308.8C398.4,308.8,398.3,308.8,398.4,308.8c0.1-0.1,0.3-0.1,0.5,0c0.1,0.1,0.1,0.4,0,0.6
											c-0.2,0.1-0.4,0.1-0.6,0c-0.2,0.1-0.5,0.1-0.7-0.1c-0.1-0.2-0.1-0.5,0.1-0.6c0.2-0.1,0.5,0.1,0.5,0.3
											C398.3,308.9,398.3,308.8,398.4,308.8L398.4,308.8z"/>
									</g>
									<g>
										<path class="st20" d="M396,309.2c0.1,0.2,0.3,0.3,0.3,0.5c0,0.2-0.1,0.5-0.3,0.5c-0.2,0.1-0.4-0.1-0.5-0.3
											c-0.1-0.2-0.2-0.4-0.1-0.5C395.5,309.2,395.8,309.1,396,309.2L396,309.2z"/>
									</g>
									<path class="st20" d="M399.5,307.9c0.1-0.2,0.3-0.2,0.5-0.1c0.2,0.1,0.2,0.3,0.1,0.5c-0.1,0.2-0.3,0.3-0.5,0.3
										c-0.2,0-0.5-0.2-0.4-0.4c-0.1,0.1-0.3,0.2-0.5,0.2c-0.2,0-0.3-0.1-0.5-0.2c-0.2-0.1-0.4-0.3-0.3-0.5c0-0.2,0.2-0.3,0.4-0.3
										c0.2,0,0.4,0.1,0.5,0.2c0.1,0.1,0.2,0.2,0.3,0.3C399.3,307.9,399.4,308,399.5,307.9L399.5,307.9z"/>
								</g>
							</g>
						</g>
						<g>
							<polygon class="st19" points="395.6,318.5 401.6,318.5 402.7,312.5 395.6,312.5 							"/>
							<polygon class="st20" points="395.1,312.8 403.2,312.8 403.4,312 395,312 							"/>
						</g>
					</g>
					<g>
						<g>
							<polygon class="st15" points="359.1,300.6 366,300.6 364.4,293.7 364.2,292.7 362.7,292.7 							"/>
							<polygon class="st15" points="364.2,292.7 364.4,293.7 366,300.6 372.3,300.5 374.9,293.7 375.3,292.7 							"/>
							<polygon class="st20" points="364.2,292.7 364.4,293.7 366,300.6 379,300.4 376.9,292.7 							"/>
							<polygon class="st18" points="364.2,292.7 364.4,293.7 377.1,293.7 376.9,292.7 							"/>
						</g>
						<g>
							<g>
								<path class="st18" d="M374.3,294.2l2.7,0l0.7,2.8h-2.8L374.3,294.2z M376.8,294.4l-2.2,0l0.5,2.3h2.3L376.8,294.4z"/>
							</g>
							<g>
								<path class="st18" d="M371.1,294.2l2.7,0l0.7,2.8h-2.8L371.1,294.2z M373.6,294.4l-2.2,0l0.5,2.3h2.3L373.6,294.4z"/>
							</g>
							<g>
								<path class="st18" d="M367.9,294.2l2.7,0l0.7,2.8h-2.8L367.9,294.2z M370.4,294.4l-2.2,0l0.5,2.3h2.3L370.4,294.4z"/>
							</g>
							<g>
								<path class="st18" d="M364.7,294.2l2.7,0l0.7,2.8h-2.8L364.7,294.2z M367.2,294.4l-2.2,0l0.5,2.3h2.3L367.2,294.4z"/>
							</g>
						</g>
						<g>
							<g>
								<path class="st18" d="M375,297.2l2.7,0l0.7,2.8h-2.8L375,297.2z M377.5,297.4l-2.2,0l0.5,2.3h2.3L377.5,297.4z"/>
							</g>
							<g>
								<path class="st18" d="M371.8,297.2l2.7,0l0.7,2.8h-2.8L371.8,297.2z M374.4,297.4l-2.2,0l0.5,2.3h2.3L374.4,297.4z"/>
							</g>
							<g>
								<path class="st18" d="M368.6,297.2l2.7,0l0.7,2.8h-2.8L368.6,297.2z M371.2,297.4l-2.2,0l0.5,2.3h2.3L371.2,297.4z"/>
							</g>
							<g>
								<path class="st18" d="M365.4,297.2l2.7,0l0.7,2.8h-2.8L365.4,297.2z M368,297.4l-2.2,0l0.5,2.3h2.3L368,297.4z"/>
							</g>
						</g>
					</g>
					<g>
						<path class="st19" d="M399.8,300.3h8l0.4-4.6c0.2-2.2-1.4-4-3.6-4l0,0c-2.2,0-4.1,1.8-4.3,4L399.8,300.3z"/>
						<g>
							<g>
								<g>
									<g>
										<path class="st0" d="M400.8,296c-0.2,1.9,1.2,3.4,3.1,3.4c1.9,0,3.5-1.5,3.7-3.4c0.2-1.9-1.2-3.4-3.1-3.4
											C402.6,292.6,401,294.1,400.8,296z"/>
										<path class="st18" d="M401.6,296c-0.1,1.5,1,2.7,2.5,2.7s2.8-1.2,2.9-2.7c0.1-1.5-1-2.7-2.5-2.7
											C403,293.3,401.7,294.5,401.6,296z"/>
									</g>
									<g>
										<g>
											<path class="st20" d="M403.9,296c0,0.2,0.1,0.3,0.3,0.3c0.2,0,0.3-0.1,0.3-0.3c0-0.2-0.1-0.3-0.3-0.3
												C404.1,295.7,403.9,295.9,403.9,296z"/>
										</g>
										<g>
											<polygon class="st20" points="404.2,296.1 405.6,295 405.5,294.8 404.3,295.9 402.4,294.1 402.3,294.2 											"/>
										</g>
									</g>
								</g>
							</g>
						</g>
					</g>
				</g>
				<polygon class="st0" points="438,222.2 427.8,337.9 522.8,338.3 532.8,222.2 				"/>
				<g>
					<g>
						<g>
							<g>
								<g>
									<path class="st15" d="M456.8,297.1c-0.1-0.8-0.1-2.2,0.1-3.8c0.1-1.6,0.4-3.1,0.6-3.8c-0.1,0-0.1-0.1-0.2-0.1
										c-0.2-0.2,0.1-0.9,0.1-0.9s0.7-0.2,0.9,0c0,0.1,0,0.1,0.1,0.2c0.5,0.3,1.6-0.2,2.7-0.2c1.1,0,2.1,0.5,2.6,0.2
										c0.2-0.1,0.3-0.4,0.6-0.4s0.3,0.3,0.5,0.4c0.5,0.3,1.6-0.2,2.7-0.2c1.1,0,2.1,0.5,2.6,0.2c0.1,0,0.1-0.1,0.1-0.2
										c0.3-0.2,0.9,0,0.9,0s0.2,0.6-0.1,0.9c-0.1,0.1-0.2,0.1-0.2,0.1c-0.4,0.7,0.1,2.2-0.1,3.8c-0.1,1.6-0.9,3.1-0.6,3.8
										c0,0.1,0.1,0.1,0.2,0.1c0.2,0.2-0.1,0.9-0.1,0.9s-0.7,0.2-0.9,0c0-0.1,0-0.1-0.1-0.2c-0.5-0.3-1.6,0.2-2.7,0.2
										c-1.1,0-2.1-0.5-2.6-0.2c-0.2,0.1-0.3,0.4-0.6,0.4c-0.3,0-0.3-0.3-0.5-0.4c-0.5-0.3-1.6,0.2-2.7,0.2
										c-1.1,0-2.1-0.5-2.6-0.2c-0.1,0-0.1,0.1-0.1,0.2c-0.3,0.2-0.9,0-0.9,0s-0.2-0.6,0.1-0.9
										C456.7,297.1,456.7,297.1,456.8,297.1z"/>
								</g>
								<g>
									<path class="st18" d="M456.8,297.4c-0.1-0.8-0.1-2.2,0.1-3.8s0.4-3.1,0.6-3.8c-0.1,0-0.1-0.1-0.2-0.1
										c-0.2-0.2,0.1-0.9,0.1-0.9s0.7-0.2,0.9,0c0,0.1,0,0.1,0.1,0.2c0.5,0.3,1.6-0.2,2.7-0.2c1.1,0,2.1,0.5,2.6,0.2
										c0.2-0.1,0.3-0.4,0.6-0.4c0.3,0,0.3,0.3,0.5,0.4c0.5,0.3,1.6-0.2,2.7-0.2c1.1,0,2.1,0.5,2.6,0.2c0.1,0,0.1-0.1,0.1-0.2
										c0.3-0.2,0.9,0,0.9,0s0.2,0.6-0.1,0.9c-0.1,0.1-0.2,0.1-0.2,0.1c-0.4,0.7,0.1,2.2-0.1,3.8c-0.1,1.6-0.9,3.1-0.6,3.8
										c0,0.1,0.1,0.1,0.2,0.1c0.2,0.2-0.1,0.9-0.1,0.9s-0.7,0.2-0.9,0c0-0.1,0-0.1-0.1-0.2c-0.5-0.3-1.6,0.2-2.7,0.2
										c-1.1,0-2.1-0.5-2.6-0.2c-0.2,0.1-0.3,0.4-0.6,0.4s-0.3-0.3-0.5-0.4c-0.5-0.3-1.6,0.2-2.7,0.2c-1.1,0-2.1-0.5-2.6-0.2
										c-0.1,0-0.1,0.1-0.1,0.2c-0.3,0.2-0.9,0-0.9,0s-0.2-0.6,0.1-0.9C456.6,297.4,456.7,297.4,456.8,297.4z"/>
								</g>
								<path class="st20" d="M461.4,297.6l4,0c2.3,0,4.3-1.8,4.4-4.1l0,0c0.2-2.3-1.5-4.1-3.7-4.1l-4,0c-2.3,0-4.3,1.8-4.4,4.1l0,0
									C457.5,295.8,459.2,297.6,461.4,297.6z"/>
							</g>
						</g>
						<g>
							<g>
								<g>
									<path class="st15" d="M471.1,285c-0.7,0.1-2,0.2-3.4,0.2c-1.5,0-2.7-0.1-3.4-0.2c0,0.1-0.1,0.1-0.1,0.2
										c-0.2,0.2-0.8,0-0.8,0s-0.2-0.6,0.1-0.8c0.1,0,0.1-0.1,0.2-0.1c0.3-0.5-0.1-1.4,0-2.4c0.1-1,0.5-0.5,0.3-1
										c-0.1-0.2-0.3-0.3-0.3-0.5c0-0.2,0.3-0.3,0.4-0.5c0.3-0.5-0.2-0.2-0.1-1.2c0.1-1,0.6-1.9,0.4-2.4c0-0.1-0.1-0.1-0.2-0.1
										c-0.2-0.2,0.1-0.8,0.1-0.8s0.6-0.2,0.8,0c0.1,0.1,0,0.2,0.1,0.2c0.6,0.3,2-0.2,3.4-0.2c1.5,0,2.8,0.5,3.4,0.2
										c0.1,0,0.1-0.1,0.1-0.2c0.2-0.2,0.8,0,0.8,0s0.2,0.6-0.1,0.8c-0.1,0-0.1,0.1-0.2,0.1c-0.3,0.5,0.1,1.4,0,2.4
										c-0.1,1-0.5,0.7-0.3,1.2c0.1,0.2,0.3,0.3,0.3,0.5s-0.3,0.3-0.4,0.5c-0.3,0.5,0.2,0,0.1,1c-0.1,1-0.6,1.9-0.4,2.4
										c0,0.1,0.1,0.1,0.2,0.1c0.2,0.2-0.1,0.8-0.1,0.8s-0.6,0.2-0.8,0C471.1,285.1,471.1,285,471.1,285z"/>
								</g>
								<g>
									<path class="st18" d="M471.3,285c-0.7,0.1-2,0.2-3.4,0.2c-1.5,0-2.7-0.1-3.4-0.2c0,0.1-0.1,0.1-0.1,0.2
										c-0.2,0.2-0.8,0-0.8,0s-0.2-0.6,0.1-0.8c0.1,0,0.1-0.1,0.2-0.1c0.3-0.5-0.1-1.4,0-2.4c0.1-1,0.5-0.5,0.3-1
										c-0.1-0.2-0.3-0.3-0.3-0.5c0-0.2,0.3-0.3,0.4-0.5c0.3-0.5-0.2-0.2-0.1-1.2c0.1-1,0.6-1.9,0.4-2.4c0-0.1-0.1-0.1-0.2-0.1
										c-0.2-0.2,0.1-0.8,0.1-0.8s0.6-0.2,0.8,0c0.1,0.1,0,0.2,0.1,0.2c0.6,0.3,2-0.2,3.4-0.2c1.5,0,2.8,0.5,3.4,0.2
										c0.1,0,0.1-0.1,0.1-0.2c0.2-0.2,0.8,0,0.8,0s0.2,0.6-0.1,0.8c-0.1,0-0.1,0.1-0.2,0.1c-0.3,0.5,0.1,1.4,0,2.4
										c-0.1,1-0.5,0.7-0.3,1.2c0.1,0.2,0.3,0.3,0.3,0.5c0,0.2-0.3,0.3-0.4,0.5c-0.3,0.5,0.2,0,0.1,1c-0.1,1-0.6,1.9-0.4,2.4
										c0,0.1,0.1,0.1,0.2,0.1c0.2,0.2-0.1,0.8-0.1,0.8s-0.6,0.2-0.8,0C471.3,285.1,471.3,285,471.3,285z"/>
								</g>
								<polygon class="st20" points="471.7,284.4 472.4,276.1 465,276.1 464.3,284.4 								"/>
							</g>
						</g>
						<g>
							<g>
								<g>
									<path class="st15" d="M452.7,271.6c0.8-0.1,2.2-0.2,3.8-0.2c1.6,0,3,0.1,3.8,0.2c0-0.1,0.1-0.1,0.2-0.2
										c0.3-0.2,0.9,0,0.9,0s0.2,0.6-0.1,0.9c-0.1,0.1-0.2,0.1-0.2,0.1c-0.3,0.5,0.1,1.5,0,2.6c-0.1,1.1-0.6,2.1-0.4,2.6
										c0.1,0.2,0.3,0.3,0.3,0.6c0,0.3-0.3,0.4-0.4,0.6c-0.3,0.5,0.1,1.5,0,2.6c-0.1,1.1-0.6,2.1-0.4,2.6c0,0.1,0.1,0.1,0.2,0.1
										c0.2,0.2-0.1,0.9-0.1,0.9s-0.7,0.2-0.9,0c-0.1-0.1-0.1-0.2-0.1-0.2c-0.6-0.4-2.2,0.2-3.8,0.2c-1.6,0-3.1-0.6-3.8-0.2
										c-0.1,0-0.1,0.1-0.2,0.2c-0.3,0.2-0.9,0-0.9,0s-0.2-0.6,0.1-0.9c0.1-0.1,0.2-0.1,0.2-0.1c0.3-0.5-0.1-1.5,0-2.6
										c0.1-1.1,0.6-2.1,0.4-2.6c-0.1-0.2-0.3-0.3-0.3-0.6c0-0.3,0.3-0.4,0.4-0.6c0.3-0.5-0.1-1.5,0-2.6c0.1-1.1,0.6-2.1,0.4-2.6
										c0-0.1-0.1-0.1-0.2-0.1c-0.2-0.2,0.1-0.9,0.1-0.9s0.7-0.2,0.9,0C452.7,271.5,452.7,271.6,452.7,271.6z"/>
								</g>
								<g>
									<path class="st18" d="M452.4,271.6c0.8-0.1,2.2-0.2,3.8-0.2c1.6,0,3,0.1,3.8,0.2c0-0.1,0.1-0.1,0.2-0.2
										c0.3-0.2,0.9,0,0.9,0s0.2,0.6-0.1,0.9c-0.1,0.1-0.2,0.1-0.2,0.1c-0.3,0.5,0.1,1.5,0,2.6c-0.1,1.1-0.6,2.1-0.4,2.6
										c0.1,0.2,0.3,0.3,0.3,0.6c0,0.3-0.3,0.4-0.4,0.6c-0.3,0.5,0.1,1.5,0,2.6c-0.1,1.1-0.6,2.1-0.4,2.6c0,0.1,0.1,0.1,0.2,0.1
										c0.2,0.2-0.1,0.9-0.1,0.9s-0.7,0.2-0.9,0c-0.1-0.1-0.1-0.2-0.1-0.2c-0.6-0.4-2.2,0.2-3.8,0.2c-1.6,0-3.1-0.6-3.8-0.2
										c-0.1,0-0.1,0.1-0.2,0.2c-0.3,0.2-0.9,0-0.9,0s-0.2-0.6,0.1-0.9c0.1-0.1,0.2-0.1,0.2-0.1c0.3-0.5-0.1-1.5,0-2.6
										c0.1-1.1,0.6-2.1,0.4-2.6c-0.1-0.2-0.3-0.3-0.3-0.6c0-0.3,0.3-0.4,0.4-0.6c0.3-0.5-0.1-1.5,0-2.6c0.1-1.1,0.6-2.1,0.4-2.6
										c0-0.1-0.1-0.1-0.2-0.1c-0.2-0.2,0.1-0.9,0.1-0.9s0.7-0.2,0.9,0C452.4,271.5,452.4,271.6,452.4,271.6z"/>
								</g>
								<polygon class="st20" points="452.1,272.2 451.1,284.3 459.2,284.3 459.2,284.3 460.3,272.2 460.3,272.2 								"/>
							</g>
						</g>
						<g>
							<g>
								<g>
									<polygon class="st17" points="480.9,303.5 481.4,297.8 489.4,280.8 490.5,268.2 508.5,268.2 507.4,280.8 512.4,297.8 
										511.9,303.5 									"/>
									<g>
										<path class="st19" d="M504.7,288.3h0.9c1.1,0,2-0.9,2.1-1.9v0c0.1-1.1-0.7-1.9-1.8-1.9h-0.9c-1.1,0-2,0.9-2.1,1.9v0
											C502.9,287.4,503.7,288.3,504.7,288.3z"/>
										<path class="st18" d="M500.9,292.8h2c1.1,0,2-0.9,2.1-1.9l0,0c0.1-1.1-0.7-1.9-1.8-1.9h-2c-1.1,0-2,0.9-2.1,1.9l0,0
											C499,291.9,499.8,292.8,500.9,292.8z"/>
										<path class="st20" d="M499.7,288.4h0.3c1.3,0,2.4-1,2.5-2.3l0,0c0.1-1.3-0.8-2.3-2.1-2.3h-0.3c-1.3,0-2.4,1-2.5,2.3l0,0
											C497.5,287.4,498.4,288.4,499.7,288.4z"/>
									</g>
									<g>
										<path class="st20" d="M484.8,298.3h-0.9c-1.1,0-2,0.9-2.1,1.9l0,0c-0.1,1.1,0.7,1.9,1.8,1.9h0.9c1.1,0,2-0.9,2.1-1.9l0,0
											C486.7,299.2,485.9,298.3,484.8,298.3z"/>
										<path class="st19" d="M489.9,298.2h-0.3c-1.3,0-2.4,1-2.5,2.3l0,0c-0.1,1.3,0.8,2.3,2.1,2.3h0.3c1.3,0,2.4-1,2.5-2.3l0,0
											C492.1,299.2,491.1,298.2,489.9,298.2z"/>
									</g>
									<g>
										<path class="st19" d="M499.9,277.3h-0.9c-1.1,0-2,0.9-2.1,1.9l0,0c-0.1,1.1,0.7,1.9,1.8,1.9h0.9c1.1,0,2-0.9,2.1-1.9l0,0
											C501.8,278.1,501,277.3,499.9,277.3z"/>
										<path class="st16" d="M503.8,272.7h-2c-1.1,0-2,0.9-2.1,1.9l0,0c-0.1,1.1,0.7,1.9,1.8,1.9h2c1.1,0,2-0.9,2.1-1.9l0,0
											C505.6,273.6,504.8,272.7,503.8,272.7z"/>
										<path class="st19" d="M505,277.2h-0.3c-1.3,0-2.4,1-2.5,2.3l0,0c-0.1,1.3,0.8,2.3,2.1,2.3h0.3c1.3,0,2.4-1,2.5-2.3l0,0
											C507.1,278.2,506.2,277.2,505,277.2z"/>
									</g>
									<g>
										<path class="st17" d="M489.5,287.1h-0.9c-1.1,0-2,0.9-2.1,1.9l0,0c-0.1,1.1,0.7,1.9,1.8,1.9h0.9c1.1,0,2-0.9,2.1-1.9l0,0
											C491.4,288,490.6,287.1,489.5,287.1z"/>
										<path class="st20" d="M493.4,282.6h-2c-1.1,0-2,0.9-2.1,1.9l0,0c-0.1,1.1,0.7,1.9,1.8,1.9h2c1.1,0,2-0.9,2.1-1.9l0,0
											C495.3,283.5,494.5,282.6,493.4,282.6z"/>
										<path class="st19" d="M494.6,287h-0.3c-1.3,0-2.4,1-2.5,2.3l0,0c-0.1,1.3,0.8,2.3,2.1,2.3h0.3c1.3,0,2.4-1,2.5-2.3l0,0
											C496.8,288,495.9,287,494.6,287z"/>
									</g>
									<g>
										<path class="st19" d="M500.7,298.2h-0.9c-1.1,0-1.9-0.9-1.8-1.9l0,0c0.1-1.1,1-1.9,2.1-1.9h0.9c1.1,0,1.9,0.9,1.8,1.9l0,0
											C502.8,297.4,501.8,298.2,500.7,298.2z"/>
										<path class="st20" d="M503.8,302.8h-2c-1.1,0-1.9-0.9-1.8-1.9l0,0c0.1-1.1,1-1.9,2.1-1.9h2c1.1,0,1.9,0.9,1.8,1.9l0,0
											C505.9,301.9,504.9,302.8,503.8,302.8z"/>
										<path class="st19" d="M509.3,302.8h-0.9c-1.1,0-1.9-0.9-1.8-1.9l0,0c0.1-1.1,1-1.9,2.1-1.9h0.9c1.1,0,1.9,0.9,1.8,1.9l0,0
											C511.3,301.9,510.3,302.8,509.3,302.8z"/>
										<path class="st19" d="M505.8,298.3h-0.3c-1.3,0-2.2-1-2.1-2.3l0,0c0.1-1.3,1.2-2.3,2.5-2.3h0.3c1.3,0,2.2,1,2.1,2.3l0,0
											C508.1,297.3,507,298.3,505.8,298.3z"/>
									</g>
								</g>
								<g>
									<g>
										<g>
											<polygon class="st20" points="517,306.8 506.8,306.8 504,338.6 514.2,338.6 											"/>
											<g>
												<g>
													<path class="st18" d="M511.7,334.1h0.9c1.1,0,2-0.9,2.1-1.9l0,0c0.1-1.1-0.7-1.9-1.8-1.9h-0.9c-1.1,0-2,0.9-2.1,1.9
														l0,0C509.9,333.2,510.7,334.1,511.7,334.1z"/>
													<path class="st19" d="M507.9,338.6h2c1.1,0,2-0.9,2.1-1.9l0,0c0.1-1.1-0.7-1.9-1.8-1.9h-2c-1.1,0-2,0.9-2.1,1.9v0
														C506,337.7,506.8,338.6,507.9,338.6z"/>
													<path class="st17" d="M506.7,334.2h0.3c1.3,0,2.4-1,2.5-2.3l0,0c0.1-1.3-0.8-2.3-2.1-2.3h-0.3c-1.3,0-2.4,1-2.5,2.3
														l0,0C504.5,333.1,505.4,334.2,506.7,334.2z"/>
												</g>
												<g>
													<path class="st19" d="M512.6,324.4h0.9c1.1,0,2-0.9,2.1-1.9l0,0c0.1-1.1-0.7-1.9-1.8-1.9h-0.9c-1.1,0-2,0.9-2.1,1.9
														l0,0C510.7,323.5,511.5,324.4,512.6,324.4z"/>
													<path class="st19" d="M508.7,328.9h2c1.1,0,2-0.9,2.1-1.9l0,0c0.1-1.1-0.7-1.9-1.8-1.9h-2c-1.1,0-2,0.9-2.1,1.9l0,0
														C506.8,328,507.6,328.9,508.7,328.9z"/>
													<path class="st16" d="M507.5,324.5h0.3c1.3,0,2.4-1,2.5-2.3l0,0c0.1-1.3-0.8-2.3-2.1-2.3h-0.3c-1.3,0-2.4,1-2.5,2.3
														l0,0C505.3,323.5,506.3,324.5,507.5,324.5z"/>
												</g>
												<g>
													<path class="st19" d="M509,314.7h-0.9c-1.1,0-1.9-0.9-1.8-1.9l0,0c0.1-1.1,1-1.9,2.1-1.9h0.9c1.1,0,1.9,0.9,1.8,1.9
														l0,0C511,313.8,510.1,314.7,509,314.7z"/>
													<path class="st18" d="M512.1,319.2h-2c-1.1,0-1.9-0.9-1.8-1.9l0,0c0.1-1.1,1-1.9,2.1-1.9h2c1.1,0,1.9,0.9,1.8,1.9l0,0
														C514.1,318.3,513.2,319.2,512.1,319.2z"/>
													<path class="st19" d="M514.1,314.8h-0.3c-1.3,0-2.2-1-2.1-2.3l0,0c0.1-1.3,1.2-2.3,2.5-2.3h0.3c1.3,0,2.2,1,2.1,2.3
														l0,0C516.4,313.8,515.3,314.8,514.1,314.8z"/>
												</g>
											</g>
										</g>
										<g>
											<polygon class="st20" points="472.4,338.6 482.7,338.6 485.4,306.8 475.2,306.8 											"/>
											<g>
												<g>
													<path class="st16" d="M477.4,314.7h-0.9c-1.1,0-2,0.9-2.1,1.9l0,0c-0.1,1.1,0.7,1.9,1.8,1.9h0.9c1.1,0,2-0.9,2.1-1.9
														l0,0C479.3,315.6,478.5,314.7,477.4,314.7z"/>
													<path class="st19" d="M481.3,310.2h-2c-1.1,0-2,0.9-2.1,1.9l0,0c-0.1,1.1,0.7,1.9,1.8,1.9h2c1.1,0,2-0.9,2.1-1.9l0,0
														C483.2,311.1,482.4,310.2,481.3,310.2z"/>
													<path class="st15" d="M482.5,314.6h-0.3c-1.3,0-2.4,1-2.5,2.3l0,0c-0.1,1.3,0.8,2.3,2.1,2.3h0.3c1.3,0,2.4-1,2.5-2.3
														l0,0C484.7,315.6,483.7,314.6,482.5,314.6z"/>
												</g>
												<g>
													<path class="st15" d="M476.6,324.4h-0.9c-1.1,0-2,0.9-2.1,1.9v0c-0.1,1.1,0.7,1.9,1.8,1.9h0.9c1.1,0,2-0.9,2.1-1.9v0
														C478.5,325.3,477.7,324.4,476.6,324.4z"/>
													<path class="st18" d="M480.5,319.9h-2c-1.1,0-2,0.9-2.1,1.9l0,0c-0.1,1.1,0.7,1.9,1.8,1.9h2c1.1,0,2-0.9,2.1-1.9l0,0
														C482.3,320.7,481.5,319.9,480.5,319.9z"/>
													<path class="st16" d="M481.6,324.3h-0.3c-1.3,0-2.4,1-2.5,2.3l0,0c-0.1,1.3,0.8,2.3,2.1,2.3h0.3c1.3,0,2.4-1,2.5-2.3
														l0,0C483.8,325.3,482.9,324.3,481.6,324.3z"/>
												</g>
												<g>
													<path class="st15" d="M480.2,334.1h0.9c1.1,0,1.9,0.9,1.8,1.9l0,0c-0.1,1.1-1,1.9-2.1,1.9h-0.9c-1.1,0-1.9-0.9-1.8-1.9
														l0,0C478.1,335,479.1,334.1,480.2,334.1z"/>
													<path class="st15" d="M477.1,329.6h2c1.1,0,1.9,0.9,1.8,1.9v0c-0.1,1.1-1,1.9-2.1,1.9h-2c-1.1,0-1.9-0.9-1.8-1.9l0,0
														C475.1,330.4,476,329.6,477.1,329.6z"/>
													<path class="st19" d="M475.1,334h0.3c1.3,0,2.2,1,2.1,2.3v0c-0.1,1.3-1.2,2.3-2.5,2.3h-0.3c-1.3,0-2.2-1-2.1-2.3l0,0
														C472.8,335,473.9,334,475.1,334z"/>
												</g>
											</g>
										</g>
									</g>
									<g>
										<polygon class="st16" points="474.5,309.6 517.3,309.6 517.8,306 474.6,306 										"/>
										<polygon class="st18" points="474.3,306.6 518,306.6 518.6,304.8 474,304.8 										"/>
										<polygon class="st15" points="473.6,305.3 518.9,305.3 519.1,303.5 473.7,303.5 										"/>
									</g>
								</g>
							</g>
						</g>
						<g>
							<g>
								<path class="st17" d="M440.4,297.4c0,0.4,0.4,0.7,0.9,0.7c0.5,0,1-0.3,1-0.7c0-0.4-0.4-0.7-0.9-0.7
									C440.9,296.7,440.4,297,440.4,297.4z"/>
								<g>
									<path class="st17" d="M437.8,334.2h0.7l4.5-51c0-0.2-0.1-0.3-0.3-0.3l0,0c-0.2,0-0.3,0.1-0.4,0.3L437.8,334.2z"/>
								</g>
								<polygon class="st17" points="440.3,305.3 440.9,305.3 442.1,297.7 440.5,297.7 								"/>
								<polygon class="st17" points="440.7,297.1 442,297.1 442.1,295.8 440.8,295.8 								"/>
								<g>
									<polygon class="st17" points="435.3,338.7 440.1,338.7 440.1,338.6 435.3,338.6 									"/>
								</g>
								<g>
									<path class="st17" d="M434.5,337.1l-0.1,1.5h6.6l0.1-1.5l0,0c-1,0-1.8-0.6-2.1-1.4l-0.7-1.8h-0.4l-1,1.8
										C436.5,336.6,435.6,337.1,434.5,337.1L434.5,337.1z"/>
								</g>
							</g>
							<g>
								<path class="st16" d="M433.9,291.5L433.9,291.5c5.3,0.4,10.4,0.4,15.8,0l0,0l-1.4-7.6l0,0c-3.7-0.8-7.8-0.8-11.6,0l0,0
									L433.9,291.5z"/>
							</g>
						</g>
					</g>
					<g>
						<g>
							<g>
								<g>
									<path class="st18" d="M515.7,296.6c-0.1-0.3-0.4-0.4-0.7-0.4c-0.3,0.1-0.6,0.3-0.6,0.7c-0.2-0.2-0.5-0.2-0.7,0
										c-0.2,0.1-0.4,0.4-0.3,0.7c-0.2-0.2-0.6-0.1-0.8,0.2c-0.2,0.3-0.1,0.7,0.2,0.8c-0.2,0-0.4,0.2-0.4,0.4
										c0,0.2,0.1,0.4,0.3,0.4c-0.2,0-0.4,0.2-0.4,0.4c0,0.2,0.1,0.4,0.2,0.4c-0.2,0.1-0.3,0.4-0.1,0.5c0.1,0.1,0.4,0.1,0.5-0.2
										c0,0.1,0.1,0.1,0.2,0c0,0,0-0.1,0-0.2c0.1,0.1,0.3,0.1,0.3-0.1c-0.1,0.3,0.3,0.7,0.6,0.5c-0.1,0.1,0,0.3,0.2,0.4
										c0.1,0,0.3,0,0.5-0.1c0.1-0.1,0.3-0.2,0.5-0.2c0.1,0,0.3,0.1,0.4,0.1c0.4,0.1,0.9,0,1.2-0.3c0.2,0.3,0.7,0.2,0.9-0.1
										c0,0.2,0.2,0.3,0.3,0.3c0.2,0,0.3-0.1,0.4-0.3c0,0.1,0,0.1,0,0.2c0.3,0.1,0.6-0.3,0.5-0.6c0.2,0,0.4-0.2,0.5-0.4
										c0-0.2-0.1-0.5-0.3-0.5c0.4-0.1,0.7-0.5,0.7-0.9c0-0.4-0.2-0.8-0.5-0.9c-0.1,0-0.3,0-0.4,0.1c-0.1,0.1-0.2,0.3,0,0.4
										c0.1-0.4,0-0.8-0.3-0.9c-0.3-0.2-0.7-0.1-1,0.2c0.1-0.1,0.1-0.4,0.1-0.5c-0.1-0.2-0.3-0.2-0.5-0.2c0-0.2-0.2-0.4-0.5-0.4
										c-0.2,0-0.4,0.3-0.4,0.5C516.1,296.4,515.8,296.4,515.7,296.6C515.5,296.5,515.7,296.6,515.7,296.6z"/>
								</g>
							</g>
							<g>
								<g>
									<path class="st20" d="M515.6,298.9c-0.1-0.1-0.2-0.1-0.3-0.1c-0.1,0-0.2,0.1-0.3,0.2c0,0.1,0,0.2,0.1,0.3
										c0.1,0,0.3-0.1,0.4-0.1c0,0,0.1,0,0.1,0c0.2,0.1,0.4-0.1,0.6-0.2c0.1,0,0.1-0.1,0.2-0.1c0-0.1,0.1-0.1,0-0.2
										c0-0.1-0.2-0.1-0.3-0.1C516,298.6,515.8,298.7,515.6,298.9c0.1,0,0.1-0.1,0.1-0.1L515.6,298.9z"/>
								</g>
								<g>
									<path class="st20" d="M518.5,298.7c-0.1,0-0.1-0.1-0.2-0.1c-0.1,0-0.1,0-0.2,0.1c-0.1,0.1,0,0.2,0,0.2
										c0.1,0.1,0.2,0.1,0.2,0.1c0.1,0,0.2,0,0.3-0.1c0-0.1,0-0.1,0-0.2C518.6,298.7,518.5,298.7,518.5,298.7L518.5,298.7z"/>
								</g>
								<g>
									<path class="st20" d="M514,297.2c-0.2,0.1-0.3,0.2-0.4,0.4c0,0.1,0,0.1,0,0.2c0,0,0.1,0,0.1,0c0.2,0,0.4-0.1,0.5-0.1
										c-0.1,0-0.2,0.1-0.2,0.1c-0.1,0.1-0.1,0.2-0.1,0.2c0,0.1,0.1,0.2,0.2,0.2c0.1,0,0.2-0.1,0.3-0.1c0.1-0.1,0.2-0.2,0.2-0.3
										c0-0.1-0.1-0.2-0.2-0.1c0.2-0.1,0.4-0.1,0.6-0.3c0.1,0,0.1-0.1,0.2-0.2c0-0.1,0.1-0.1,0-0.2c-0.2-0.3-0.4,0.2-0.5,0.2
										C514.5,297.3,514.3,297.1,514,297.2z"/>
									<path class="st20" d="M513.1,298.6c0,0.1,0,0.1,0,0.2c0,0,0.1,0,0.2,0c-0.1,0-0.2,0.1-0.3,0.2c-0.1,0.1-0.1,0.3,0,0.3
										c0.1,0,0.2,0,0.2,0c0.2-0.1,0.4-0.2,0.6-0.4c-0.1,0.1,0.1,0.3,0.2,0.3c0.1,0,0.3-0.1,0.4-0.1c0.1-0.1,0.3-0.2,0.3-0.4
										c0-0.1-0.2-0.2-0.3-0.2c-0.1,0-0.2,0.1-0.4,0.3c0.1-0.1,0-0.3-0.1-0.3c-0.1,0-0.3,0.1-0.3,0.2c0.2-0.1,0.2-0.3,0-0.3
										C513.4,298.2,513.1,298.5,513.1,298.6z"/>
									<path class="st20" d="M517.2,298.1c-0.1,0-0.3,0-0.3,0.1s0,0.2,0.1,0.3c-0.1,0-0.2,0.1-0.2,0.1c0,0-0.1,0.1-0.1,0.1
										c0,0.1,0.1,0.1,0.1,0.1c0.1,0,0.1,0,0.2-0.1c-0.1,0-0.1,0-0.2,0.1c-0.1,0-0.1,0.1,0,0.2c0,0,0.1,0,0.2,0
										c0.1,0,0.3-0.1,0.4-0.2c0.1,0.1,0.2,0.1,0.3,0.1c0.1,0,0.2-0.1,0.2-0.2c0-0.1-0.1-0.1-0.2-0.1c-0.1,0-0.2,0-0.2,0
										c0.1-0.1,0.2-0.1,0.2-0.2c0-0.1,0-0.2-0.1-0.2c-0.1,0-0.2,0.1-0.3,0.2C517.2,298.4,517.4,298.2,517.2,298.1z"/>
									<g>
										<path class="st20" d="M515.3,297.7c-0.1,0.1-0.2,0.2-0.2,0.4c0,0.2,0.1,0.3,0.2,0.4c0.2,0.1,0.4-0.1,0.5-0.3
											c0.1-0.2-0.1-0.4-0.2-0.5C515.6,297.7,515.5,297.6,515.3,297.7z"/>
									</g>
									<g>
										<path class="st20" d="M516.7,297.5C516.7,297.5,516.7,297.5,516.7,297.5c0-0.1-0.2-0.1-0.3,0c-0.1,0.1-0.1,0.3,0,0.3
											c0.1,0.1,0.3,0.1,0.3,0c0.1,0.1,0.3,0,0.4-0.1c0.1-0.1,0.1-0.3,0-0.4C517,297.3,516.8,297.4,516.7,297.5
											C516.7,297.5,516.7,297.5,516.7,297.5L516.7,297.5z"/>
									</g>
									<g>
										<path class="st20" d="M518.1,297.8c-0.1,0.1-0.2,0.2-0.3,0.3c0,0.1,0,0.3,0.1,0.3c0.1,0,0.3-0.1,0.3-0.2
											c0.1-0.1,0.1-0.2,0.1-0.3C518.4,297.8,518.2,297.7,518.1,297.8L518.1,297.8z"/>
									</g>
									<path class="st20" d="M516.1,297c0-0.1-0.2-0.1-0.3-0.1c-0.1,0.1-0.2,0.2-0.1,0.3c0,0.1,0.1,0.2,0.3,0.2
										c0.1,0,0.3-0.1,0.3-0.2c0.1,0.1,0.2,0.1,0.3,0.1c0.1,0,0.2-0.1,0.3-0.1c0.1-0.1,0.3-0.2,0.3-0.3c0-0.1-0.1-0.2-0.2-0.2
										c-0.1,0-0.2,0-0.3,0.1c-0.1,0.1-0.1,0.1-0.2,0.2C516.2,297,516.1,297,516.1,297L516.1,297z"/>
								</g>
							</g>
						</g>
						<g>
							<polygon class="st18" points="517.3,303.4 513.7,303.4 513.6,299.8 518,299.8 							"/>
							<polygon class="st16" points="518.2,300 513.3,300 513.3,299.5 518.4,299.5 							"/>
						</g>
					</g>
				</g>
				<g>
					<g>
						<g>
							<path class="st10" d="M434.3,292.8C434.3,292.8,434.3,292.8,434.3,292.8c0.5,1,1.3,1.9,2.3,2.4c1.2,0.5,2.5,0.9,3,1.1
								c0,0,7.3,2.8,9,3.3c2.8,0.8,6,2,8.9,2.7c0,0,4.6,1.9,6.4,2.4c1.6,0.4,4.2-5.6,5.4-6.7c0.5-0.4,0.9-0.8,1.2-1.2
								c0.6-0.7,1.1-1.4,1.3-2c0.3-0.9,0-1.7-1.1-2.4c-1.1-0.8-3-1.6-5.9-2.4c-2.6-0.7-6.4-1.8-10.4-3c-0.8-0.2-1.6-0.5-2.4-0.7
								c-0.2,0-0.3-0.1-0.5-0.1c-0.7-0.2-1.5-0.4-2.2-0.6c-0.7-0.2-1.4-0.4-2.1-0.6c0,0-0.1,0-0.1,0c-2.7-0.7-5-1.4-6.9-1.9
								c-1.1-0.3-2.3-0.6-3.5-0.7C435.9,285,433.4,291.1,434.3,292.8z"/>
							<path class="st21" d="M445.1,298.1C445.1,298.1,445.2,298.2,445.1,298.1c1.3,0.6,2.7,1.2,4.1,1.7c1.6,0.6,3.2,1.1,4.9,1.6
								c2.8,0.8,5.6,1.6,8.5,2.3c0,0,0.1,0,0.1,0c1.5-2.7,5.2-7.7,5.2-7.7C455.1,301.5,445.5,298.3,445.1,298.1z"/>
						</g>
						<path class="st21" d="M434.1,290.6c0.1,0,0.2,0,0.3,0.1c5.1,1.3,11.4,2,15.6-1.7c0.6-0.5,1-1.7,1.2-2.8
							c-0.8-0.2-1.5-0.4-2.3-0.7c-0.6-0.2-1.2-0.3-1.8-0.5c0,0-0.1,0-0.1,0c-0.3,0.2-0.5,0.4-0.8,0.5c-2.9,1.5-5.7,3.1-8.5,4.6
							c-1,0.5-2.4-0.4-3.2,0C434.3,290.2,434.2,290.4,434.1,290.6z"/>
						<path class="st22" d="M449.7,250.1c2.8-3.5,6.9,0.9,6.9,0.9c-0.8,1.6-1.5,5.4-2.6,6.7c-0.9,1.2-2.4,4.4-3.8,4.8
							c-1.3,0.4-2.7,0.1-3.3-0.8c-0.7-1-0.1-5.3,0.4-6.5C447.8,253.8,448.5,251.5,449.7,250.1z"/>
						<path class="st10" d="M437.4,295.2c1,0.1,2,0,2.9-0.3c3.7-1.3,6.6-5.2,6.6-9c0.1-0.3,0.1-0.5,0.2-0.8c1.5-5.5,3.6-13.7,4.5-19
							c0.3-1.8,0.9-2.5,0.6-4.3c-1.7-2.3-3.7-3-7.7-1.5c0,0-6.1,15.5-7.9,22c-0.7,2.6-1.4,5.1-2,7.4
							C434.3,290.8,436.3,294.6,437.4,295.2z"/>
					</g>
					<g>
						<g>
							<g>
								<g>
									<path class="st13" d="M465.1,338.7h16.5c0,0,4.6-26.1,11.9-36.9l0,0c2-2.9,2.7-5,2.4-6.5c-1-0.3-2.1-0.6-3.3-0.9
										c-2.5-0.5-5.3-0.8-8-0.9c-0.5,0-1,0-1.7,0c-0.2,0-0.5,0-0.8,0c0,0,0,0,0,0c-0.1,0-0.1,0-0.2,0.1c-0.2,0.1-0.4,0.2-0.6,0.2
										c-0.6,0.2-1.1,0.5-1.4,0.6c-0.6,0.4-1.2,0.9-1.7,1.5c-1.2,1.3-2.4,3-3.6,5.2c-0.4,0.7-0.7,1.4-1,2.1c0,0.1-0.1,0.1-0.1,0.2
										C469.9,311.4,466.9,323.3,465.1,338.7z"/>
									<g>
										<path class="st23" d="M465.1,338.7h15.7c0.9-7.6,2.2-14.1,4.3-20.1c2-6,4.8-11.4,8.4-16.8l0,0c2-2.9,2.7-5,2.4-6.5
											c-1.1-0.3-2.2-0.6-3.3-0.9c-2.5-0.5-5.2-0.8-8-0.9c-0.5,0-1,0-1.7,0h-0.8c-0.1,0-0.1,0-0.2,0.1c-0.2,0.1-0.4,0.1-0.6,0.2
											c-0.6,0.2-1.1,0.5-1.4,0.7c-0.6,0.4-1.2,0.8-1.7,1.5c-1.2,1.3-2.4,3-3.6,5.2c-0.4,0.7-0.7,1.4-1,2.1c0,0-0.1,0.1-0.1,0.2
											C469.9,311.3,466.9,323.5,465.1,338.7z"/>
										<g>
											<path class="st10" d="M456.3,338.7h9.5c1.6-13.8,4.3-25.1,7.5-33c0.6-1.6,1.3-3,1.9-4.2c1.1-2.1,2.2-3.8,3.4-5.1
												c0.7-0.8,1.4-1.4,2.1-1.9c0.3-0.2,0.7-0.4,1.2-0.6c0.3-0.1,0.7-0.3,1.1-0.4c-0.2,0-0.4,0-0.6,0c-0.1,0-0.3,0-0.4,0
												c-0.2,0-0.4,0-0.6,0c-1.7,0.1-9.6-2.2-12.2-2.3C461.2,291.3,456.3,338.7,456.3,338.7z"/>
										</g>
										<g>
											<path class="st10" d="M510.9,313.4c0.2-0.8,3.2-8.2,3-8.7c-2.4-7.5-11.3-7.5-17.9-9.6c0,0,0,0,0,0
												c0.2,1.5-0.4,3.6-2.4,6.5l0,0c-7.3,10.8-11,21.8-12.8,37.1h19.7C500.5,338.7,509.1,319.1,510.9,313.4z"/>
										</g>
										<g>
											<path class="st13" d="M496.6,298.4c-0.4,1.1-1.3,1.9-2.1,2.7c-3.7,3.5-7.5,7-11.2,10.4c-1.6-1.4-2.8-2.6-4.9-4.5
												c-1.5,0.8-3,1.1-4.7,1.4c0.1-2.2-2.9-4.1,5.5-12.5c1.8-1.9,5.9-3.1,8.4-3.3C495.7,291.9,497.2,296.5,496.6,298.4z"/>
										</g>
									</g>
								</g>
								<g>
									<g>
										<g>
											<path class="st22" d="M495.7,281.4c-2,4.5-2.3,12.2-4,17.2c-1.2,3.5-14,7.7-14,7.7s-4.3-4.8,0.2-7.7
												c3.8-2.4,4.8-5.5,4.8-9.4L495.7,281.4z"/>
											<path class="st21" d="M490.4,284.6l-7.7,4.6c0,1.1,0,2.2-0.2,3.3c2.5,0,6.5-2.2,7.3-4.7
												C490.2,286.7,490.4,285.7,490.4,284.6z"/>
											<path class="st22" d="M474.5,278.6c-0.1,0.7-0.1,1.4-0.1,2.1c0,8.1,8.7,13,15.9,7.9c1.7-1.2,2.9-2.5,3.9-4.1
												c1.8-2.9,2.7-6.6,4.2-11.7c0.5-1.6,0.6-3.3,0.4-5c-1-5.8-6.5-9.2-12.4-7.8C478.9,261.9,475.1,271.5,474.5,278.6z"/>
											<path class="st10" d="M495.9,279l-5.4,1l2.7-7.3l-2.5-3.4l0.6-5.3c0,0,10.4,0.7,13.3,1.4c1,0.2,1.3,1.3,1.3,2.6
												c-0.1,3.7-2.5,7.2-5.9,9.1C498.7,277.9,497.3,278.6,495.9,279z"/>
											<path class="st24" d="M495.9,279l-5.4,1l2.7-7.3l-2.5-3.4l0.6-5.3c0,0,10.4,0.7,13.3,1.4c1,0.2,1.3,1.3,1.3,2.6
												c-0.1,3.7-2.5,7.2-5.9,9.1C498.7,277.9,497.3,278.6,495.9,279z"/>
											<path class="st10" d="M479.7,282.1L479.7,282.1c1.8,0.3,3.8-0.3,5.2-1.6c0.1-0.1,0-0.2,0-0.3c-0.1,0-0.2,0-0.2,0
												c-1.4,1.2-3.2,1.8-4.9,1.5c-0.1,0-0.2,0.1-0.2,0.2c0,0,0,0,0,0C479.5,281.9,479.6,282,479.7,282.1
												C479.7,282.1,479.7,282.1,479.7,282.1z"/>
											<path class="st22" d="M493.4,279c-0.9,2.1-0.2,4.2,1.7,4.2l0,0c0.3,0,0.5,0,0.8-0.1c2-0.5,3.7-1.7,4.9-3.4
												c1.4-2.1,0.8-4.8-1.7-5.2c-2.4-0.4-4.8,2.3-5.7,4.4C493.5,278.9,493.5,279,493.4,279z"/>
											<path class="st10" d="M487.3,273.3c-0.1,0.6-0.6,1.1-1,1c-0.4-0.1-0.6-0.6-0.5-1.3c0.2-0.6,0.6-1.1,1-1
												C487.2,272.1,487.4,272.7,487.3,273.3z"/>
											<path class="st10" d="M480.2,272.3c-0.1,0.6-0.6,1.1-1,1c-0.4-0.1-0.6-0.6-0.5-1.3c0.2-0.6,0.6-1.1,1-1
												C480.1,271.1,480.3,271.7,480.2,272.3z"/>
											<path class="st25" d="M481.3,272.9c-1.2,1.8-2.6,3.5-4.3,5c0.9,1.2,3,0.9,3,0.9L481.3,272.9z"/>
											<path class="st10" d="M488.9,271.3c-0.1,0-0.3-0.1-0.3-0.2c-0.4-0.9-1.1-1.4-2.1-1.6c-0.2,0-0.3-0.2-0.3-0.4
												c0-0.2,0.2-0.4,0.4-0.3c0,0,0,0,0,0c1.2,0.2,2.2,0.9,2.6,2c0.1,0.2,0,0.4-0.2,0.5C489,271.3,489,271.3,488.9,271.3z"/>
											<path class="st24" d="M488.9,271.3c-0.1,0-0.3-0.1-0.3-0.2c-0.4-0.9-1.1-1.4-2.1-1.6c-0.2,0-0.3-0.2-0.3-0.4
												c0-0.2,0.2-0.4,0.4-0.3c0,0,0,0,0,0c1.2,0.2,2.2,0.9,2.6,2c0.1,0.2,0,0.4-0.2,0.5C489,271.3,489,271.3,488.9,271.3z"/>
											<path class="st10" d="M476.6,269.4c-0.1,0-0.2,0-0.2,0c-0.2-0.1-0.2-0.4-0.1-0.5c0.8-1,1.9-1.7,3.2-1.7
												c0.2,0,0.4,0.2,0.3,0.4c0,0.2-0.2,0.4-0.4,0.4c0,0,0,0,0,0l0,0c-1,0.1-1.9,0.6-2.5,1.4
												C476.9,269.4,476.8,269.4,476.6,269.4z"/>
											<path class="st24" d="M476.6,269.4c-0.1,0-0.2,0-0.2,0c-0.2-0.1-0.2-0.4-0.1-0.5c0.8-1,1.9-1.7,3.2-1.7
												c0.2,0,0.4,0.2,0.3,0.4c0,0.2-0.2,0.4-0.4,0.4c0,0,0,0,0,0l0,0c-1,0.1-1.9,0.6-2.5,1.4
												C476.9,269.4,476.8,269.4,476.6,269.4z"/>
										</g>
										<path class="st26" d="M474.5,278.6c-0.1,0.7-0.1,1.4-0.1,2.1c0,8.1,8.7,13,15.9,7.9c1.7-1.2,2.9-2.5,3.9-4.1
											c0-0.1,0-0.2,0-0.3c0,0,1.1-2.7-1.6-4.4c-1.7-1.6-6.8-1.1-8.8-1C480.6,279.1,477.2,279.7,474.5,278.6z"/>
									</g>
									<g>
										<path class="st10" d="M506.7,263.2c0.4,1.4-0.6,3-1.9,3.9c-1.3,0.8-2.9,1-4.4,1c-3.8,0-7.5-1-10.6-2.8
											c-1.9-1.1-3.6-2.5-5.8-3.1c-2.2-0.5-5,0.2-6,2.3c-0.7-1.9-0.5-4.2,0.6-6.1c1.1-1.9,3-3.3,5.1-3.7
											c3.9-0.8,7.4,1.8,11.2,2.4c1.9,0.3,3.8,0.2,5.7,0.2c1.9,0.1,3.9,0.4,5.3,1.6C507.3,260.1,506.7,263.2,506.7,263.2z"/>
									</g>
									<g class="st27">
										<path class="st0" d="M506.7,263.2c0.4,1.4-0.6,3-1.9,3.9c-1.3,0.8-2.9,1-4.4,1c-3.8,0-7.5-1-10.6-2.8
											c-1.9-1.1-3.6-2.5-5.8-3.1c-2.2-0.5-5,0.2-6,2.3c-0.7-1.9-0.5-4.2,0.6-6.1c1.1-1.9,3-3.3,5.1-3.7
											c3.9-0.8,7.4,1.8,11.2,2.4c1.9,0.3,3.8,0.2,5.7,0.2c1.9,0.1,3.9,0.4,5.3,1.6C507.3,260.1,506.7,263.2,506.7,263.2z"/>
									</g>
								</g>
							</g>
							<g>
								<path class="st21" d="M510.1,314.9c-7.1-7.8-11.6,6.3-12,12.6c0,0.1,0,0.2,0,0.2c-0.4,7.8,3.1,9.7,3.1,9.7L510.1,314.9z"/>
								<path class="st10" d="M500.2,320.7c0.6,0.7,5,18,5,18h13.7c-0.7-4.1-4.6-33-5-34c-0.4-1.1-1.9-5.2-5-4.7
									c-1.7,0.3-6.4,9.1-8.4,15.3c-0.1,0.5-0.3,1-0.4,1.4l-0.1,0.2c-0.3,1.4-0.5,2.4-0.3,3c0,0.1,0.1,0.2,0.1,0.3
									c0,0.1,0.1,0.2,0.2,0.3c0,0,0,0,0,0C500.1,320.6,500.1,320.6,500.2,320.7z"/>
							</g>
						</g>
						<path class="st21" d="M488.5,273.4c0.6-0.1,1.2,0,1.7,0.2c-0.2,0.2-0.8,0.2-0.9,0.2C489.1,273.7,488.5,273.6,488.5,273.4z"/>
						<path class="st21" d="M488.4,274c0.6,0.1,1.2,0.3,1.6,0.6c-0.3,0.1-0.9,0-1-0.1C488.8,274.4,488.3,274.2,488.4,274z"/>
						<path class="st21" d="M477.9,271.9c-0.4-0.3-1-0.5-1.6-0.5c0.1,0.3,0.6,0.5,0.7,0.5C477.3,271.9,477.8,272,477.9,271.9z"/>
						<path class="st21" d="M477.7,272.4c-0.6-0.2-1.2-0.2-1.7-0.1c0.2,0.2,0.8,0.3,0.9,0.3C477.1,272.6,477.7,272.6,477.7,272.4z"
							/>
					</g>
				</g>
				<g>
					<path class="st10" d="M384.2,254.6c2.7-2.1,6.3-1.6,8.3,0.8c4,4.6,5.4,11.6,3.1,17.8c-0.8,2.1-1.9,4.3-1.6,6.4
						c0.3,1.9,1.7,3.4,3.6,3.8c-4.5,2.1-11.4-4-11.4-4c-1.5-4.2,0.3-9,0.5-13.6c0.2-3.9-0.9-7.7-3.1-10.8
						C383.8,254.9,384,254.7,384.2,254.6z"/>
					<g>
						<g>
							<g>
								<g>
									<g>
										<path class="st28" d="M365,292.1l0.6,7.2c0,0,3.4,2,4.8,3.2l0,0c0.1,0.1,0.3,0.2,0.4,0.3l0.6,1.9l0.2,0.6l0.4,1.2
											c0,0,1.8-0.3,3.6-0.6c0.1,0,0.8-0.1,1.7-0.3c0.2,0,0.4-0.1,0.6-0.1l0.1,0c0.2,0,0.3-0.1,0.5-0.1c0.1,0,0.1,0,0.2,0l0,0
											c0.2,0,0.3-0.1,0.4-0.1l0.1,0c0.2,0,0.4-0.1,0.6-0.1c1.2-0.2,2.2-0.4,2.4-0.5c0.3-0.2,1.6-0.2,2.6-0.9
											c0.2-0.1,0.3-0.2,0.5-0.4c0.2-0.2,0.4-0.4,0.5-0.7c0.4-0.7,0.6-1.8,0.8-2.9c0.3-1.6,0.4-3.2,0.4-3.2l-1.8-5.8
											c0,0-0.7,0.4-1.6,0.3c0,0,0-0.4-0.2,0c-0.5-0.1-1-0.3-1.5-0.7c-0.2-0.2-0.4-0.5-0.5-1l0,0c0-0.1,0-0.1,0-0.2
											c-0.1-0.3-0.2-0.7-0.2-1c0-0.2-0.1-0.5-0.1-0.7c0-0.1,0-0.2,0-0.3c0-0.2,0-0.3-0.1-0.5c0-0.3-0.1-0.7-0.1-1
											c0-0.2,0-0.3,0-0.4c0-0.6,0-1,0-1l-7.9-3.7v0l-0.2-0.1l-0.1,0c0,0,0,0.1-1,0.4v0c0.9,0.2,0.8,0.6,0.7,1
											c0,0.2-0.1,0.4-0.1,0.6c0,0.1,0,0.2-0.1,0.3c0,0.1,0,0.1,0,0.2l0,0c-0.1,0.5-0.2,1-0.4,1.6h0c0,0,0,0,0,0
											c-0.2,0.6-0.3,1.3-0.6,2l0,0c-0.6,1.9-1.4,3.8-2.2,4.5c-0.4,0.4-1,0.5-1.6,0.6l-0.2,0C366.4,291.9,365.7,291.9,365,292.1z
											"/>
										<path class="st12" d="M380.7,284.5c0,0,0.1,3.3,0.7,5.1c-7,0.3-8.4-6-8.7-8.8L380.7,284.5z"/>
										<g>
											<path class="st28" d="M370.7,267c-0.4,7.5-0.7,10.7,2.6,14.6c5,5.9,14.3,4,17-3.4c2.4-6.7,2.6-17.8-4.4-21
												c-5-2.3-11.2,0-13.9,5.2C371.2,263.9,370.8,265.5,370.7,267z"/>
											<path class="st29" d="M380,269c-3.2-1.2-6.3,1.8-5.4,4.8c0.3,1.3,1.4,2.2,2.7,2.4c3.1,0.5,5.8-2.9,4.3-5.8
												C381.2,269.7,380.7,269.2,380,269z"/>
											<path class="st29" d="M391.5,270.4c0.1,0,0.3,0,0.4,0c-0.2,2.5-0.7,5-1.5,7.4c-2-0.4-3.2-2.3-2.6-4.4
												C388.3,271.7,389.8,270.5,391.5,270.4L391.5,270.4z"/>
											<path class="st10" d="M381.4,269.4c0,0.6,0.2,1.1,0.6,1.1c0.4,0,0.8-0.5,0.8-1.1c0.1-0.6-0.2-1.1-0.6-1.1
												C381.9,268.3,381.5,268.9,381.4,269.4z"/>
											<path class="st10" d="M388.2,269.4c0,0.6,0.2,1.1,0.6,1.1c0.4,0,0.8-0.5,0.8-1.1c0.1-0.6-0.2-1.1-0.6-1.1
												S388.3,268.8,388.2,269.4z"/>
											<path class="st10" d="M388.9,268.4l1.5-0.4C390.4,268,389.5,269.1,388.9,268.4z"/>
											<path class="st30" d="M387.1,270.4c0.4,1.4,1,2.7,1.7,3.9c-0.7,0.4-1.5,0.5-2.2,0.3L387.1,270.4z"/>
											<path class="st10" d="M380.8,266.2c0.1,0.1,0.3,0,0.4-0.1c0.9-0.8,2.1-1.1,3.3-1c0.2,0,0.4-0.1,0.4-0.3
												c0-0.2-0.1-0.4-0.3-0.4c0,0,0,0,0,0c-1.4-0.2-2.8,0.3-3.9,1.2C380.6,265.7,380.6,266,380.8,266.2L380.8,266.2
												C380.8,266.1,380.8,266.1,380.8,266.2z"/>
											<path class="st10" d="M391.7,266.3c0.1,0,0.3,0,0.4-0.1c0.1-0.1,0.1-0.4,0-0.5c-0.8-0.8-1.9-1.1-3.1-0.8
												c-0.2,0-0.3,0.2-0.3,0.4c0,0,0,0,0,0c0,0.2,0.2,0.3,0.4,0.2c0,0,0,0,0,0l0,0c0.9-0.2,1.8,0.1,2.4,0.7
												C391.6,266.3,391.7,266.3,391.7,266.3z"/>
											<path class="st10" d="M382.1,268.4l1.5-0.4C383.5,268,382.7,269.1,382.1,268.4z"/>
											<path class="st28" d="M369.1,272.6c0.3,1.4,1.2,2.5,2.4,3.1c1.6,0.8,2.9-0.6,2.9-2.4c0-1.6-0.9-4-2.7-4.1
												c-1.3-0.1-2.5,1-2.7,2.3C369,271.9,369,272.3,369.1,272.6z"/>
										</g>
									</g>
									<path class="st28" d="M419,302.3c0.3-1.6,0.2-2.6,0.2-4.3c0-4.6,1.7-6.6,5.3-9.8c1.5,0.2,3.6,4.1,3.6,4.1
										c-0.1,2.2,0.1,1.4-0.1,2.9c-0.7,5.1-5.2,9-5.2,9c-2.7,7.5-5.3,15-6.5,16.3c-3,3-9.7,2.2-6.7-2.5
										C412.5,313.4,418.6,304.6,419,302.3z"/>
									<g>
										<g>
											<path class="st13" d="M389.5,303.3c0.5,6.7,2.7,13.2,6.1,18.8c1.7,2.7,3.9,5.3,6.9,6.4c4,1.4,7.5,0.8,11.1-1.9
												c3.6-2.7,5.5-5.1,8-11.8c0.4-0.9,1.8-5,1.8-6c0-2.8-1.6-3.2-3.5-3.6c-1.4-0.3-1.5-0.7-3-0.6c-3,0.1-5,2.8-6.5,5.8
												c-3.5,7.2-6.6-1.9-7.4-4.5c-1.8-5.7-4.5-12.7-10.8-15.5c-0.9-0.4-0.7-0.1-1.7,0.2c-1.1,0.4-1.7,1.5-2.1,2.6
												c-1,2.8-1.1,5.8-0.1,8.5L389.5,303.3z"/>
											<path class="st31" d="M389.5,303.3c0.5,6.7,2.7,13.2,6.1,18.8c1.7,2.7,3.9,5.3,6.9,6.4c4,1.4,7.5,0.8,11.1-1.9
												c3.6-2.7,5.5-5.1,8-11.8c0.4-0.9,1.8-5,1.8-6c0-2.8-1.6-3.2-3.5-3.6c-1.4-0.3-1.5-0.7-3-0.6c-3,0.1-5,2.8-6.5,5.8
												c-3.5,7.2-6.6-1.9-7.4-4.5c-1.8-5.7-4.5-12.7-10.8-15.5c-0.9-0.4-0.7-0.1-1.7,0.2c-1.1,0.4-1.7,1.5-2.1,2.6
												c-1,2.8-1.1,5.8-0.1,8.5L389.5,303.3z"/>
										</g>
										<path class="st12" d="M394.9,295l1.9,6.8c1.5,5.2,0.8,14.9-1.2,20.2c0,0-6.2-6.6-4.2-14.3
											C392.5,303.7,394.9,295,394.9,295z"/>
									</g>
									<g>
										<path class="st13" d="M352.6,296.8l0.9,12.3l0.4,1.1l3.9,12.4l0,0l0.3,1.1c0.6,2,0.8,4.1,1,6.2c0.3,5-1.6,8.4-1.6,8.8
											c4.2-0.1,19.6,0,19.6,0h12.1c0.7-2.9,3.9-16.6,4.7-20c0-0.1,0-0.1,0-0.2c0.6-2.5,1-4.5,1.2-5.2c0.8-4.5,0.5-9.8-0.2-14.1
											c-0.6-4-1.5-7.3-2-8.4c0,0,0,0,0,0c0-0.1-0.1-0.1-0.1-0.2c0-0.1-0.1-0.1-0.1-0.1c0,0,0,0,0,0c0,0-0.1-0.1-0.1-0.1
											c-0.2,0-0.4-0.1-0.6-0.1c-0.1,0-0.2,0-0.3,0c-0.1,0-0.2,0-0.3,0c-0.6-0.1-1.2-0.2-2-0.3l-1.4-0.1l-0.3,0
											c-0.8,0-1.7-0.1-2.9-0.2c-0.4,0-0.9-0.1-1.4-0.1l-0.6,1.3l-1.5,3.2c-0.1,0.2-0.2,0.4-0.3,0.6c-0.5,1.2-1,2.5-1.5,3.7
											c-0.1,0.3-0.3,0.6-0.4,1c-0.3,0.8-0.6,1.6-0.8,2.2c-0.1,0.2-0.1,0.3-0.2,0.5c0,0.1-0.1,0.3-0.1,0.4c0,0.1-0.1,0.2-0.1,0.3
											c0,0.1,0,0.1-0.1,0.2l0,0l0,0v0.2l0.8,0.3c0,0.1-0.1,0.2-0.1,0.2s0,0-0.1-0.1c0,0,0,0,0,0c0,0,0,0,0,0l0,0l-0.5-0.1l0-0.4
											c0,0,0-0.1-0.1-0.1l0,0c-0.1-0.1-0.2-0.2-0.3-0.3l-0.2-0.2c0,0,0,0,0,0l-0.2-0.2l-0.2-0.3c0,0,0-0.1-0.1-0.1l0,0
											c-0.1-0.1-0.2-0.2-0.3-0.3l-0.3-0.3l-0.9-0.9l-0.4-0.4l-0.4-0.4l-2-2c-0.1-0.1-0.3-0.3-0.4-0.4c-0.1-0.1-0.3-0.3-0.4-0.4
											c-0.1-0.2-0.3-0.3-0.4-0.4c-0.6-0.6-1.1-1.2-1.7-1.7c-0.2-0.2-0.4-0.5-0.7-0.7l0,0c-0.1-0.1-0.2-0.2-0.4-0.3
											c-0.1-0.1-0.2-0.2-0.3-0.4c-0.3-0.3-0.7-0.6-0.9-0.9c-0.3-0.4-0.7-0.7-0.9-0.9c-3.9,0.8-7.8,2-11.2,3.8
											c-0.1,0-0.1,0.1-0.2,0.1c-0.1,0.1-0.2,0.1-0.3,0.2c0,0-0.1,0.1-0.2,0.1c-0.1,0.1-0.2,0.1-0.2,0.1c0,0,0,0,0,0
											c-0.1,0.1-0.2,0.2-0.3,0.3l0,0c0,0-0.1,0.1-0.1,0.1c0,0,0,0,0,0V296l-1.1,0c0,0,0,0,0,0c0,0-0.1,0.1-0.1,0.2
											c0,0.1-0.1,0.1-0.1,0.2c0,0,0,0.1,0,0.1v-0.2c0,0.1-0.1,0.2-0.1,0.3C352.6,296.6,352.6,296.7,352.6,296.8z"/>
									</g>
									<g class="st32">
										<path class="st0" d="M352.6,296.8l0.9,12.3l0.4,1.1l3.9,12.4l0,0l0.3,1.1c0.6,2,0.8,4.1,1,6.2c0.3,5-1.6,8.4-1.6,8.8
											c4.2-0.1,19.6,0,19.6,0h12.1c0.7-2.9,3.9-16.6,4.7-20c0-0.1,0-0.1,0-0.2c0.6-2.5,1-4.5,1.2-5.2c0.8-4.5,0.5-9.8-0.2-14.1
											c-0.6-4-1.5-7.3-2-8.4c0,0,0,0,0,0c0-0.1-0.1-0.1-0.1-0.2c0-0.1-0.1-0.1-0.1-0.1c0,0,0,0,0,0c0,0-0.1-0.1-0.1-0.1
											c-0.2,0-0.4-0.1-0.6-0.1c-0.1,0-0.2,0-0.3,0c-0.1,0-0.2,0-0.3,0c-0.6-0.1-1.2-0.2-2-0.3l-1.4-0.1l-0.3,0
											c-0.8,0-1.7-0.1-2.9-0.2c-0.4,0-0.9-0.1-1.4-0.1l-0.6,1.3l-1.5,3.2c-0.1,0.2-0.2,0.4-0.3,0.6c-0.5,1.2-1,2.5-1.5,3.7
											c-0.1,0.3-0.3,0.6-0.4,1c-0.3,0.8-0.6,1.6-0.8,2.2c-0.1,0.2-0.1,0.3-0.2,0.5c0,0.1-0.1,0.3-0.1,0.4c0,0.1-0.1,0.2-0.1,0.3
											c0,0.1,0,0.1-0.1,0.2l0,0l0,0v0.2l0.8,0.3c0,0.1-0.1,0.2-0.1,0.2s0,0-0.1-0.1c0,0,0,0,0,0c0,0,0,0,0,0l0,0l-0.5-0.1l0-0.4
											c0,0,0-0.1-0.1-0.1l0,0c-0.1-0.1-0.2-0.2-0.3-0.3l-0.2-0.2c0,0,0,0,0,0l-0.2-0.2l-0.2-0.3c0,0,0-0.1-0.1-0.1l0,0
											c-0.1-0.1-0.2-0.2-0.3-0.3l-0.3-0.3l-0.9-0.9l-0.4-0.4l-0.4-0.4l-2-2c-0.1-0.1-0.3-0.3-0.4-0.4c-0.1-0.1-0.3-0.3-0.4-0.4
											c-0.1-0.2-0.3-0.3-0.4-0.4c-0.6-0.6-1.1-1.2-1.7-1.7c-0.2-0.2-0.4-0.5-0.7-0.7l0,0c-0.1-0.1-0.2-0.2-0.4-0.3
											c-0.1-0.1-0.2-0.2-0.3-0.4c-0.3-0.3-0.7-0.6-0.9-0.9c-0.3-0.4-0.7-0.7-0.9-0.9c-3.9,0.8-7.8,2-11.2,3.8
											c-0.1,0-0.1,0.1-0.2,0.1c-0.1,0.1-0.2,0.1-0.3,0.2c0,0-0.1,0.1-0.2,0.1c-0.1,0.1-0.2,0.1-0.2,0.1c0,0,0,0,0,0
											c-0.1,0.1-0.2,0.2-0.3,0.3l0,0c0,0-0.1,0.1-0.1,0.1c0,0,0,0,0,0V296l-1.1,0c0,0,0,0,0,0c0,0-0.1,0.1-0.1,0.2
											c0,0.1-0.1,0.1-0.1,0.2c0,0,0,0.1,0,0.1v-0.2c0,0.1-0.1,0.2-0.1,0.3C352.6,296.6,352.6,296.7,352.6,296.8z"/>
									</g>
									<g>
										<g>
											<g>
												<g>
													<g class="st33">
														<path class="st0" d="M378.5,303.4L378.5,303.4c0.1,0,0.9-0.3,2.1-0.9c1.6-0.7,3.9-1.8,6-2.7c0.7-0.3,1.3-0.6,1.8-0.8
															c1.2-0.5,2-0.9,2.2-1c0.5-0.3,2.1-6.1,2.4-7.3c0,0,0,0,0,0c0-0.1,0.1-0.2,0.1-0.2l-3.2-0.3l-1.3-0.1l-0.3,0l-4.1-0.4
															l-0.1,0.2l-0.6,1.3l-1.5,3.2c-0.1,0.2-0.2,0.4-0.3,0.6c-0.5,1.2-1,2.5-1.4,3.7c-0.1,0.3-0.2,0.6-0.4,1
															c-0.3,0.8-0.6,1.6-0.8,2.2c-0.1,0.3-0.2,0.6-0.3,0.8c-0.1,0.2-0.1,0.3-0.2,0.5c0,0,0,0,0,0c0,0,0,0.1,0,0.1
															C378.6,303.3,378.6,303.4,378.5,303.4z"/>
														<path class="st0" d="M353,295.9C353,295.9,353,295.9,353,295.9c3.5,1.3,9.2,5.6,9.2,5.6l16.2,1.9
															c-1.2-1.2-8-8.4-11.3-11.6c-0.4-0.4-0.7-0.7-1-0.9c-4.2,0.8-8.3,2.1-11.9,4.1c-0.1,0.1-0.3,0.1-0.5,0.3
															c-0.1,0-0.4,0.2-0.5,0.3c0,0,0,0,0,0C353.2,295.7,353,295.8,353,295.9z"/>
													</g>
												</g>
												<g>
													<g>
														<path class="st12" d="M353.9,310.5l3.8,12.4l0,0l0.3,1.1c0.6,2,0.9,4.1,1,6.2c0,0.4,0,0.8,0,1.2c0,0.1,0,0.1,0,0.2
															c0,0.3,0,0.7-0.1,1c0.1-0.3,0.8-2.6,0.8-3.1c0.2-1.4,0.4-2.8,0.5-4.3c0.1-2.8,0-5.6-0.5-8.3c-0.3-1.6-1.2-7-2.9-9.9
															c-0.8-1.4-1.8-2.2-2.9-1.8C353.7,307,353.7,308.8,353.9,310.5z"/>
														<g>
															<path class="st13" d="M347.9,315.9c0.6,2.9,1,20.4,0.2,22.9h9.9c0-2.2,0.2-12.1,0.1-15.3c-0.1-5.1,0.8-11.8,0.4-16.7
																c-0.4-4.8-1-8.7-1.8-10.3c-0.2-0.5-0.5-0.7-0.8-0.7l0,0c-0.2,0-0.3,0-0.5,0c0,0-0.1,0-0.1,0c-0.3,0.1-0.7,0.2-1,0.3
																c0,0,0,0,0,0c-2.4,0.9-4.3,2.9-5.1,5.3c-0.1,0.4-0.3,0.8-0.5,1.3C348,304.6,347,311.7,347.9,315.9z"/>
														</g>
														<g class="st32">
															<path class="st0" d="M347.9,315.9c0.6,2.9,1,20.4,0.2,22.9h9.9c0-2.2,0.2-12.1,0.1-15.3c-0.1-5.1,0.8-11.8,0.4-16.7
																c-0.4-4.8-1-8.7-1.8-10.3c-0.2-0.5-0.5-0.7-0.8-0.7l0,0c-0.2,0-0.3,0-0.5,0c0,0-0.1,0-0.1,0c-0.3,0.1-0.7,0.2-1,0.3
																c0,0,0,0,0,0c-2.4,0.9-4.3,2.9-5.1,5.3c-0.1,0.4-0.3,0.8-0.5,1.3C348.1,304.6,347.1,311.7,347.9,315.9z"/>
														</g>
													</g>
												</g>
												<g>
													<g class="st33">
														<path class="st13" d="M378.5,303.4L378.5,303.4c0.1,0,0.9-0.3,2.1-0.9c1.6-0.7,3.9-1.8,6-2.7c0.7-0.3,1.3-0.6,1.8-0.8
															c1.2-0.5,2-0.9,2.2-1c0.5-0.3,2.1-6.1,2.4-7.3c0,0,0,0,0,0c0-0.1,0.1-0.2,0.1-0.2l-3.2-0.3l-1.3-0.1l-0.3,0l-4.1-0.4
															l-0.1,0.2l-0.6,1.3l-1.5,3.2c-0.1,0.2-0.2,0.4-0.3,0.6c-0.5,1.2-1,2.5-1.4,3.7c-0.1,0.3-0.2,0.6-0.4,1
															c-0.3,0.8-0.6,1.6-0.8,2.2c-0.1,0.3-0.2,0.6-0.3,0.8c-0.1,0.2-0.1,0.3-0.2,0.5c0,0,0,0,0,0c0,0,0,0.1,0,0.1
															C378.6,303.3,378.6,303.4,378.5,303.4z"/>
														<path class="st13" d="M353,295.9C353,295.9,353,295.9,353,295.9c3.5,1.3,9.2,5.6,9.2,5.6l16.2,1.9
															c-1.2-1.2-8-8.4-11.3-11.6c-0.4-0.4-0.7-0.7-1-0.9c-4.2,0.8-8.3,2.1-11.9,4.1c-0.1,0.1-0.3,0.1-0.5,0.3
															c-0.1,0-0.4,0.2-0.5,0.3c0,0,0,0,0,0C353.2,295.7,353,295.8,353,295.9z"/>
													</g>
												</g>
												<path class="st10" d="M381.8,295l-3.2,8.5l-0.2,0l-7-7.3C371.4,296.1,377.8,299.3,381.8,295z"/>
											</g>
											<g>
												<path class="st10" d="M379,302.9C379,302.9,379,302.9,379,302.9l11-5.3c0.1,0,0.1-0.1,0.2-0.2l2.3-6.8
													c0.1-0.1,0-0.3-0.2-0.3c-0.1,0-0.3,0.1-0.3,0.2l-2.3,6.6l-10.8,5.2c-0.1,0.1-0.2,0.2-0.2,0.4
													C378.7,302.8,378.9,302.9,379,302.9z"/>
											</g>
											<g>
												<path class="st10" d="M377.7,302.7c0.1,0,0.2-0.1,0.3-0.2c0-0.1-0.1-0.3-0.2-0.3l-14.9-2c-0.5-0.4-4-3.1-9-5.1
													c-0.1-0.1-0.3,0-0.4,0.2c-0.1,0.1,0,0.3,0.1,0.4c5.2,2.2,8.9,5.1,8.9,5.1c0,0,0.1,0,0.1,0.1L377.7,302.7
													C377.7,302.7,377.7,302.7,377.7,302.7z"/>
											</g>
										</g>
										<g>
											<g>
												<path class="st10" d="M372.7,310.2c0.1,0,0.1,0,0.2,0c1.4-0.1,2.8-1.6,3.8-2.8c0.5-0.6,0.9-1.2,1.2-1.7c0,0,0,0,0,0
													c0,0,0-0.1,0.1-0.1c0.2-0.3,0.3-0.6,0.5-1c0.2,0.3,0.4,0.6,0.7,0.8c0,0.1,0.1,0.1,0.2,0.2c0,0,0,0,0,0
													c0.9,0.9,1.9,1.5,3,2.2c0.9,0.6,1.7,0.7,2.3,0.4c0.6-0.3,1.6-1.2,1.3-3.3c-0.1-0.5-0.3-1-0.6-1.4
													c-0.7-0.9-1.9-1.3-3.6-1.1l-0.2,0c-0.2,0-0.5,0.1-0.8,0.2c-0.4,0.1-0.9,0.2-1.4,0.4c-0.2,0.1-0.3,0.1-0.5,0.2l0,0
													c-0.2,0-0.3,0.1-0.5,0.1l0,0c-0.1,0-0.2,0.1-0.4,0.1l0,0c-0.2,0-0.3,0.1-0.4,0.1c-0.6,0.1-1.2,0.1-1.8,0.1
													c-0.7,0-1.4,0-2,0.1c-0.8,0.2-1.6,0.6-2.2,1.1c-0.7,0.6-1.1,1.4-1.2,2.3C370.1,308.5,371.2,310.2,372.7,310.2z
													 M379.8,305.2c-0.4-0.4-0.8-0.9-1.2-1.4c0,0,0-0.1-0.1-0.1c0.3-0.1,0.6-0.2,0.9-0.3c0.8-0.2,1.6-0.5,2.1-0.5
													c0.6-0.1,2.4-0.2,3.2,0.9c0.3,0.3,0.4,0.6,0.5,1.1c0.2,1.3-0.1,2.3-0.9,2.7c-0.4,0.2-1,0.1-1.8-0.4
													C381.6,306.6,380.6,306,379.8,305.2z M370.8,307c0.1-0.6,0.4-1.2,0.8-1.7c0.5-0.6,1.3-1,2-1.1c0.6-0.1,1.3-0.1,1.9-0.1
													c0.6,0,1.2,0,1.9-0.1c0.2,0,0.4-0.1,0.6-0.1c0,0,0,0,0,0c-0.2,0.7-0.5,1.2-0.9,1.8c-0.3,0.5-0.6,0.9-1,1.4
													c-0.8,1-2.2,2.6-3.5,2.6C371.5,309.7,370.7,308.2,370.8,307z"/>
											</g>
											<g>
												<path class="st10" d="M381.2,315.4C381.2,315.4,381.2,315.4,381.2,315.4c0.2,0,0.3-0.2,0.3-0.3
													c-0.5-3.7-1.3-7.4-2.6-10.9c-0.1-0.2-0.2-0.3-0.4-0.2c-0.2,0-0.3,0.2-0.4,0.4c-0.5,3.3-1.2,6.6-2.2,10.4
													c0,0.1,0,0.3,0.2,0.3c0.1,0,0.3-0.1,0.3-0.2c1-3.6,1.7-6.7,2.2-9.9c1.1,3.3,1.9,6.7,2.4,10.2
													C380.9,315.3,381,315.4,381.2,315.4z"/>
											</g>
										</g>
									</g>
								</g>
							</g>
						</g>
					</g>
					<path class="st10" d="M388.1,260.5c-2.2,1.3-9.1,5-11.1,6.7c-2.7,2.3-4.3,5.7-4.8,9c-0.5,3.4,0,6.7,1,9.9
						c-3.3-3.4-6.5-4.4-9.4-8.9c-2.5-4-2.1-12-0.2-16.7c1.9-4.7,8.1-9.1,13.1-9.9C384.1,249.5,397.3,255.2,388.1,260.5z"/>
					<g>
						<path class="st10" d="M385.9,277.4c0,0-1.5-1-6.2-2.4c-0.3,2.1,0,4.1,2.5,4.7C384.6,280.4,385.9,277.4,385.9,277.4z"/>
						<path class="st25" d="M381.7,277.8c1,0.2,1.7,0.8,2.2,1.7c-0.6,0.3-1.3,0.3-1.8,0.1c-1-0.2-1.7-0.8-2.2-1.7
							C380.5,277.6,381.2,277.6,381.7,277.8z"/>
						<path class="st0" d="M385.6,277.2c-0.3,0.5-0.8,0.8-1.2,0.8c-1.4-0.4-2.7-1-4-1.7c-0.4-0.2-0.7-0.6-0.7-1.3
							C381.9,275.5,383.8,276.3,385.6,277.2z"/>
					</g>
				</g>
				<g>
					<g>
						<polygon class="st10" points="427.4,339 428.3,339 438.5,222.2 437.5,222.2 						"/>
					</g>
					<g>
						<polygon class="st10" points="334.3,338.8 523.7,338.7 523.8,337.8 334.4,337.9 						"/>
					</g>
				</g>
				<polygon class="st13" points="342.8,226.9 532.5,226.9 533.3,217.4 343.6,217.4 				"/>
				<path class="st0" d="M525.4,221.8c-0.1,1,0.7,1.9,1.7,1.9s2-0.8,2-1.9c0.1-1-0.7-1.9-1.7-1.9S525.5,220.7,525.4,221.8z"/>
				
					<ellipse transform="matrix(0.7224 -0.6915 0.6915 0.7224 -8.8283 421.5191)" class="st0" cx="520.6" cy="221.8" rx="2" ry="1.8"/>
				<path class="st0" d="M512,221.8c-0.1,1,0.7,1.9,1.7,1.9s2-0.8,2-1.9c0.1-1-0.7-1.9-1.7-1.9S512.1,220.7,512,221.8z"/>
				<g>
					<path class="st10" d="M522.1,234.8c-0.2,1.9,1.3,3.5,3.2,3.5c1.9,0,3.6-1.6,3.8-3.5c0.2-1.9-1.3-3.5-3.2-3.5
						C523.9,231.3,522.2,232.8,522.1,234.8z"/>
					<polygon class="st10" points="505.6,236.1 519,236.1 519.2,234.4 505.7,234.4 					"/>
				</g>
				<path class="st13" d="M351.5,230.7l-0.5,5.8h8.2l0.5-5.8h-1.2l-1.2-1.2H354l-1.2,1.2H351.5z M358.2,232.2l-0.3,0.7
					c0,0.1-0.1,0.1-0.2,0.2c0,0-0.1,0-0.1,0s-0.1,0-0.1,0l-0.7-0.3c-0.1-0.1-0.2-0.2-0.1-0.3c0.1-0.1,0.2-0.2,0.3-0.1l0.2,0.1
					c-0.2-0.7-0.9-1.2-1.7-1.2c-1,0-1.9,0.7-2.1,1.7c0,0.1-0.1,0.2-0.3,0.2c0,0,0,0,0,0c-0.1,0-0.2-0.2-0.2-0.3
					c0.3-1.2,1.4-2.1,2.6-2.1c1,0,1.8,0.6,2.1,1.4l0,0c0.1-0.1,0.2-0.2,0.3-0.2C358.2,231.9,358.2,232.1,358.2,232.2z M352.6,234.3
					l0.3-0.7c0-0.1,0.1-0.1,0.2-0.1c0.1,0,0.1,0,0.2,0l0.7,0.3c0.1,0.1,0.2,0.2,0.1,0.3c-0.1,0.1-0.2,0.2-0.3,0.1l-0.2-0.1
					c0.2,0.7,0.9,1.2,1.7,1.2c1,0,1.9-0.7,2.1-1.7c0-0.1,0.2-0.2,0.3-0.2c0.1,0,0.2,0.2,0.2,0.3c-0.3,1.2-1.4,2.1-2.6,2.1
					c-1,0-1.8-0.6-2.1-1.4l0,0c0,0.1-0.1,0.2-0.3,0.2c0,0-0.1,0-0.1,0C352.6,234.6,352.5,234.4,352.6,234.3z"/>
				<g>
					<g>
						<path class="st10" d="M426.3,234.8c-0.2,1.9,1.3,3.5,3.2,3.5c1.9,0,3.6-1.6,3.8-3.5c0.2-1.9-1.3-3.5-3.2-3.5
							C428.2,231.3,426.4,232.8,426.3,234.8z"/>
					</g>
					<polygon class="st10" points="410,236.1 423.4,236.1 423.6,234.4 410.1,234.4 					"/>
				</g>
				<g>
					<polygon class="st13" points="330.8,359.7 521,359.7 522.8,339 332.7,339 					"/>
					<polygon class="st34" points="330.8,359.7 521,359.7 522.8,339 332.7,339 					"/>
				</g>
				<g>
					<g>
						<path class="st13" d="M407.5,351.4c-0.2,2.7,1.8,5,4.5,5s5.2-2.2,5.4-5c0.2-2.7-1.8-5-4.5-5
							C410.1,346.4,407.7,348.6,407.5,351.4z"/>
						<g>
							<path class="st0" d="M410.5,354.3h1.5l0.1-1.1c-0.9-0.1-1.5-0.8-1.4-1.7l0.1-0.6c0-0.1,0.1-0.1,0.1-0.1h0.2
								c0.1,0,0.1,0,0.1,0.1c0,0.1-0.1,0.1-0.1,0.1h-0.1l0,0.5c-0.1,0.9,0.6,1.5,1.4,1.5c0.9,0,1.6-0.7,1.7-1.5l0-0.5h-0.1
								c-0.1,0-0.1,0-0.1-0.1c0-0.1,0.1-0.1,0.1-0.1h0.2c0.1,0,0.1,0,0.1,0.1l-0.1,0.6c-0.1,0.9-0.8,1.6-1.7,1.7l-0.1,1.1h1.5
								c0.1,0,0.2,0.1,0.2,0.2l0,0.2h-3.7l0-0.2C410.3,354.4,410.4,354.3,410.5,354.3z"/>
							<path class="st0" d="M413.6,351.5c-0.1,0.6-0.6,1.2-1.3,1.2c-0.6,0-1.1-0.5-1.1-1.2c0,0,0.2-2.1,0.2-2.3
								c0.1-0.6,0.6-1.2,1.3-1.2c0.6,0,1.1,0.5,1.1,1.2C413.8,349.5,413.6,351.5,413.6,351.5z"/>
						</g>
						<g>
							<g>
								<path class="st0" d="M415,354.2L415,354.2c0.2-0.2,0.2-0.4,0.1-0.6l-4.7-5.1c-0.1-0.2-0.4-0.2-0.6,0l0,0
									c-0.2,0.2-0.2,0.4-0.1,0.6l4.7,5.1C414.6,354.4,414.9,354.4,415,354.2z"/>
								<path class="st13" d="M414.4,354.3l-4.7-5.1c-0.1-0.1-0.1-0.2-0.1-0.4c0-0.1,0.1-0.3,0.2-0.4c0.2-0.2,0.5-0.2,0.7,0l4.7,5.1
									c0.2,0.2,0.2,0.5-0.1,0.7l0,0c-0.1,0.1-0.2,0.2-0.4,0.2S414.5,354.4,414.4,354.3z M415,354.1c0.1-0.1,0.1-0.3,0-0.4
									l-4.7-5.1c-0.1-0.1-0.3-0.1-0.4,0c-0.1,0.1-0.1,0.1-0.1,0.2c0,0.1,0,0.2,0.1,0.2l4.7,5.1C414.6,354.3,414.8,354.3,415,354.1
									L415,354.1z"/>
							</g>
						</g>
					</g>
					<g>
						<g>
							<path class="st13" d="M436.5,351.3c-0.2,2.8,1.8,5.1,4.6,5.1c2.8,0,5.3-2.3,5.5-5.1c0.2-2.8-1.8-5.1-4.6-5.1
								S436.7,348.5,436.5,351.3z"/>
							<path class="st13" d="M436.5,351.3c-0.2,2.8,1.8,5.1,4.6,5.1c2.8,0,5.3-2.3,5.5-5.1c0.2-2.8-1.8-5.1-4.6-5.1
								S436.7,348.5,436.5,351.3z"/>
						</g>
						<polygon class="st0" points="443.2,349.7 443.1,351 444.8,349.8 444.5,352.8 443,351.6 442.9,352.9 439.1,352.9 439.4,349.7 
													"/>
						<g>
							<g>
								<path class="st0" d="M443.9,354.3L443.9,354.3c0.2-0.2,0.2-0.4,0.1-0.6l-4.7-5.1c-0.1-0.2-0.4-0.2-0.6,0l0,0
									c-0.2,0.2-0.2,0.4-0.1,0.6l4.7,5.1C443.5,354.5,443.7,354.5,443.9,354.3z"/>
								<path class="st13" d="M443.2,354.4l-4.7-5.1c-0.1-0.1-0.1-0.2-0.1-0.4c0-0.1,0.1-0.3,0.2-0.4c0.2-0.2,0.5-0.2,0.7,0l4.7,5.1
									c0.2,0.2,0.2,0.5-0.1,0.7l0,0c-0.1,0.1-0.2,0.2-0.4,0.2S443.3,354.5,443.2,354.4z M443.8,354.2c0.1-0.1,0.1-0.3,0-0.4
									l-4.7-5.1c-0.1-0.1-0.3-0.1-0.4,0c-0.1,0.1-0.1,0.1-0.1,0.2c0,0.1,0,0.2,0.1,0.2l4.7,5.1
									C443.5,354.3,443.7,354.3,443.8,354.2L443.8,354.2z"/>
							</g>
						</g>
					</g>
					<g>
						<path class="st13" d="M420.8,349.8c-0.3,3.6,2.3,6.5,5.9,6.5c3.6,0,6.8-2.9,7.1-6.5c0.3-3.6-2.3-6.5-5.9-6.5
							C424.2,343.3,421.1,346.2,420.8,349.8z"/>
						<path class="st0" d="M421.9,350.9l-0.1,0.8h2.6l0.1-0.8h-0.2l0-1.1c0.8-1.1,2-0.9,3-0.8c0.9,0,2.1-0.1,2.6,0.8l-0.2,1.1h-0.2
							l-0.1,0.8h2.6l0.1-0.8h-0.3l-0.3-1.1c0-0.1-0.1-0.2-0.2-0.2l0,0c-0.5-1.5-2-1.8-3.8-1.9c-1.9-0.1-3.6,0.3-4.5,1.9l0,0l0,0
							c-0.1,0-0.2,0-0.2,0.1l-0.5,1.1H421.9z"/>
					</g>
				</g>
			</g>
		</g>
		<g>
			<polygon class="st35" points="468.2,209.2 503.1,365.2 490.7,365.2 456.1,209.2 			"/>
			<polygon class="st35" points="448.9,209.2 483.9,365.2 459.2,365.2 424.7,209.2 			"/>
		</g>
		<g>
			<polyline points="449.7,201.4 452.7,202.6 449.7,202.6 449.7,201.4 			"/>
			<g>
				
					<rect x="438.1" y="197.7" transform="matrix(-1 4.491950e-11 -4.491950e-11 -1 882.8358 399.4155)" class="st10" width="6.6" height="4.1"/>
				<g>
					<g>
						
							<ellipse transform="matrix(0.9732 -0.2298 0.2298 0.9732 -31.8646 106.5045)" class="st13" cx="441.4" cy="190.1" rx="9.7" ry="9.7"/>
					</g>
					
						<ellipse transform="matrix(0.7071 -0.7071 0.7071 0.7071 -5.1882 367.7816)" class="st10" cx="441.4" cy="190.2" rx="6.4" ry="6.4"/>
					
						<ellipse transform="matrix(0.9871 -0.1602 0.1602 0.9871 -24.7742 73.1408)" class="st36" cx="441.3" cy="190.2" rx="8.2" ry="8.2"/>
					<path class="st11" d="M438.4,190.1c0,1.6,1.3,3,3,3s3-1.3,3-3s-1.3-3-3-3S438.4,188.5,438.4,190.1z"/>
					<path class="st37" d="M439.7,190.1c0,0.9,0.7,1.6,1.6,1.6s1.6-0.7,1.6-1.6c0-0.9-0.7-1.6-1.6-1.6S439.7,189.2,439.7,190.1z"/>
					<circle class="st38" cx="440.7" cy="189.4" r="0.6"/>
				</g>
				<path class="st10" d="M429,207.7h20.6v-6.4h-17.4c-1.8,0-3.3,1.5-3.3,3.3V207.7z"/>
				<path class="st31" d="M429,207.7h20.6v-6.4h-17.4c-1.8,0-3.3,1.5-3.3,3.3V207.7z"/>
			</g>
		</g>
	</g>
	<g>
		
			<image style="overflow:visible;opacity:0.26;" width="138" height="138" xlink:href="13A23927.png"  transform="matrix(1 0 0 1 234 303.41)">
		</image>
		<g>
			<path class="st0" d="M343,418.6h-94.2c-3.5,0-6.3-2.8-6.3-6.3v-94.2c0-3.5,2.8-6.3,6.3-6.3H343c3.5,0,6.3,2.8,6.3,6.3v94.2
				C349.3,415.7,346.5,418.6,343,418.6z"/>
		</g>
	</g>
	<g>
		<g>
			<g>
				<g>
					<g>
						<path class="st39" d="M259.6,408.2c0,2.2,1.7,3.9,3.9,3.9h77.2c2.2,0,3.9-1.7,3.9-3.9v-69.7h-85V408.2z"/>
						<path class="st39" d="M340.7,316.5h-77.2c-2.2,0-3.9,1.7-3.9,3.9v18.2h85v-18.2C344.6,318.2,342.8,316.5,340.7,316.5z"/>
					</g>
					<g>
						<path class="st0" d="M253.4,408.2c0,2.2,1.7,3.9,3.9,3.9h77.2c2.2,0,3.9-1.7,3.9-3.9v-69.7h-85V408.2z"/>
						<path class="st40" d="M334.6,316.4h-77.2c-2.2,0-3.9,1.7-3.9,3.9v18.2h85v-18.2C338.5,318.2,336.7,316.4,334.6,316.4z"/>
					</g>
				</g>
				<g>
					<g>
						<circle class="st39" cx="277.1" cy="328" r="4.5"/>
						<g>
							<path class="st0" d="M276.1,325.6L276.1,325.6c-1.3,0-2.3-1-2.3-2.3v-9.7c0-1.1,0.8-2.2,1.9-2.4c1.5-0.3,2.8,0.8,2.8,2.3v3
								h3.9v-2.7c0-3.3-2.5-6.2-5.8-6.5c-3.6-0.2-6.7,2.7-6.7,6.2v9.6c0,3.3,2.4,6.1,5.7,6.4c0.3,0,0.7,0,1,0
								c2.5-0.2,2.3-3.9-0.2-3.9H276.1L276.1,325.6z"/>
						</g>
					</g>
					<g>
						<circle class="st39" cx="312.7" cy="328" r="4.5"/>
						<g>
							<path class="st0" d="M311.8,325.6L311.8,325.6c-1.3,0-2.3-1-2.3-2.3v-9.7c0-1.1,0.8-2.2,1.9-2.4c1.5-0.3,2.8,0.8,2.8,2.3v3
								h3.9v-2.7c0-3.3-2.5-6.2-5.8-6.5c-3.6-0.2-6.7,2.7-6.7,6.2v9.6c0,3.3,2.4,6.1,5.7,6.4c0.3,0,0.7,0,1,0
								c2.5-0.2,2.3-3.9-0.2-3.9H311.8L311.8,325.6z"/>
						</g>
					</g>
				</g>
			</g>
			<g>
				<g>
					<rect x="266.2" y="349.1" class="st41" width="12.7" height="12.7"/>
					<rect x="266.2" y="367.8" class="st41" width="12.7" height="12.7"/>
					<rect x="266.2" y="386.5" class="st41" width="12.7" height="12.7"/>
				</g>
				<g>
					<rect x="287.8" y="349.1" class="st40" width="12.7" height="12.7"/>
					<rect x="287.8" y="367.8" class="st41" width="12.7" height="12.7"/>
					<rect x="287.8" y="386.5" class="st41" width="12.7" height="12.7"/>
				</g>
				<g>
					<rect x="309.4" y="349.1" class="st40" width="12.7" height="12.7"/>
					<rect x="309.4" y="367.8" class="st40" width="12.7" height="12.7"/>
					<rect x="309.4" y="386.5" class="st41" width="12.7" height="12.7"/>
				</g>
			</g>
		</g>
		<g>
			<g>
				<rect x="241.2" y="351.3" class="st40" width="8.6" height="5.7"/>
				<rect x="237.6" y="349.3" class="st39" width="15.9" height="3.4"/>
			</g>
			<g>
				
					<ellipse transform="matrix(0.2369 -0.9715 0.9715 0.2369 -185.3452 531.0848)" class="st39" cx="245.4" cy="383.5" rx="28.6" ry="28.6"/>
				
					<ellipse transform="matrix(0.2266 -0.974 0.974 0.2266 -183.7517 535.6571)" class="st0" cx="245.4" cy="383.5" rx="23.5" ry="23.5"/>
				<g>
					<g>
						<g>
							<g>
								<path class="st42" d="M232.1,370.9c-0.2,0-0.3-0.1-0.4-0.2l-1-1c-0.2-0.2-0.2-0.6,0-0.8c0.2-0.2,0.6-0.2,0.8,0l1,1
									c0.2,0.2,0.2,0.6,0,0.8C232.4,370.8,232.3,370.9,232.1,370.9z"/>
								<path class="st42" d="M259.9,398.6c-0.2,0-0.3-0.1-0.4-0.2l-1-1c-0.2-0.2-0.2-0.6,0-0.8c0.2-0.2,0.6-0.2,0.8,0l1,1
									c0.2,0.2,0.2,0.6,0,0.8C260.2,398.6,260,398.6,259.9,398.6z"/>
							</g>
							<g>
								<path class="st42" d="M231.2,398.6c-0.2,0-0.3-0.1-0.4-0.2c-0.2-0.2-0.2-0.6,0-0.8l1-1c0.2-0.2,0.6-0.2,0.8,0
									c0.2,0.2,0.2,0.6,0,0.8l-1,1C231.5,398.6,231.3,398.6,231.2,398.6z"/>
								<path class="st42" d="M258.9,370.9c-0.2,0-0.3-0.1-0.4-0.2c-0.2-0.2-0.2-0.6,0-0.8l1-1c0.2-0.2,0.6-0.2,0.8,0
									c0.2,0.2,0.2,0.6,0,0.8l-1,1C259.2,370.8,259.1,370.9,258.9,370.9z"/>
							</g>
						</g>
						<g>
							<circle class="st39" cx="245.5" cy="363.9" r="1.4"/>
							<circle class="st39" cx="245.5" cy="403.2" r="1.4"/>
						</g>
						<g>
							<path class="st39" d="M225.8,382.2c0.7,0,1.4,0.6,1.4,1.4c0,0.7-0.6,1.4-1.4,1.4c-0.7,0-1.4-0.6-1.4-1.4
								C224.5,382.8,225.1,382.2,225.8,382.2z"/>
							<path class="st39" d="M265.2,382.2c0.7,0,1.4,0.6,1.4,1.4c0,0.7-0.6,1.4-1.4,1.4c-0.7,0-1.4-0.6-1.4-1.4
								C263.8,382.8,264.4,382.2,265.2,382.2z"/>
						</g>
					</g>
					<path class="st40" d="M253.9,371.4l-9.6,11.3c-0.3,0.3-0.5,0.7-0.4,1.2c0.1,0.8,0.8,1.5,1.6,1.4c0.6,0,1.1-0.5,1.3-1.1
						l7.5-12.6C254.4,371.4,254.1,371.2,253.9,371.4z"/>
				</g>
			</g>
		</g>
	</g>
	<text transform="matrix(1 0 0 1 189.1796 144.155)" class="st43 st44">Solicitar una asesora</text>
</g>
</svg>
