<?xml version="1.0" encoding="utf-8"?>
<!-- Generator: Adobe Illustrator 26.3.1, SVG Export Plug-In . SVG Version: 6.00 Build 0)  -->
<svg version="1.1" id="Capa_1" xmlns="http://www.w3.org/2000/svg" xmlns:xlink="http://www.w3.org/1999/xlink" x="0px" y="0px"
	 viewBox="0 0 635.3 469.4" style="enable-background:new 0 0 635.3 469.4;" xml:space="preserve">
<style type="text/css">
	.st0{fill:#FFFFFF;}
	.st1{fill:#DE9130;}
	.st2{fill:#E6AC4A;}
	.st3{fill:#64A6DC;}
	.st4{fill:#D9D9D9;}
	.st5{enable-background:new    ;}
	.st6{fill:#5B5B5B;}
	.st7{fill:none;stroke:#D9D9D9;stroke-width:0.5;stroke-miterlimit:10;}
	.st8{opacity:9.000000e-02;fill:#64A6DC;enable-background:new    ;}
	.st9{fill:#7F7F7F;}
	.st10{display:none;fill:#64A6DC;}
	.st11{font-family:'FuturaBT-BoldItalic';}
	.st12{font-size:50.0102px;}
</style>
<g id="BACKGROUND">
</g>
<g id="OBJECTS">
	<rect x="19.3" y="29.6" class="st0" width="593.7" height="416.5"/>
	<g>
		
			<image style="overflow:visible;opacity:0.1;enable-background:new    ;" width="625" height="452" xlink:href="619ECE82.png"  transform="matrix(1 0 0 1 0.9412 14.2353)">
		</image>
		<g>
			<rect x="19.3" y="29.6" class="st0" width="593.7" height="421.4"/>
		</g>
	</g>
	<g>
		
			<image style="overflow:visible;opacity:0.32;enable-background:new    ;" width="613" height="77" xlink:href="619ECE86.png"  transform="matrix(1 0 0 1 9.9412 23.2353)">
		</image>
		<g>
			<rect x="19.3" y="29.6" class="st0" width="593.7" height="57.9"/>
		</g>
	</g>
	<g id="Layer_x0020_1">
		<path class="st1" d="M89.7,54.9c-0.5,1.2,2,1.3,2.2,0.7c1.8-2.8,5-4.7,8.6-4.7c5.6,0,10.2,4.5,10.2,10.2c0,2.7-1,5.2-2.9,7.1
			l-0.7,0.8l0.1,1.1c0,0.5,0.2,1.3,0.4,2.1c-0.7-0.4-1.4-0.9-2.1-1.2l-0.8-0.4l-0.9,0.3c-1,0.3-2.1,0.5-3.2,0.5
			c-3.5,0-6.6-1.8-8.4-4.4c-0.4-1-2.9-0.4-2.3,0.6c2.2,3.7,6.2,6.1,10.7,6.1c1.4,0,2.7-0.2,3.9-0.6c0.5,0.2,2.8,1.8,4.3,2.2
			c2.2,0.7,0.9-3.6,0.7-5.3c2.2-2.2,3.5-5.3,3.5-8.7c0-6.9-5.6-12.4-12.4-12.4C95.9,48.7,91.9,51.2,89.7,54.9L89.7,54.9z"/>
		<path class="st2" d="M89.7,54.9c-0.5,1.2,2,1.3,2.2,0.7c1.8-2.8,5-4.7,8.6-4.7c1.6,0,3.2,0.4,4.6,1.1c-0.7-1.3-1.8-2.4-3-3.3
			c-0.5-0.1-1.1-0.1-1.6-0.1C95.9,48.7,91.9,51.2,89.7,54.9L89.7,54.9z"/>
		<path class="st2" d="M89.8,67.5c2.2,3.7,6.2,6.1,10.7,6.1c1.4,0,2.7-0.2,3.9-0.6c0.5,0.2,2.8,1.8,4.3,2.2c2.2,0.7,0.9-3.6,0.7-5.3
			c0.5-0.5,1-1.1,1.4-1.7c-1.1,0.4-2.3,0.7-3.6,0.8l-0.2,0.2l0.1,1.1c0,0.5,0.2,1.3,0.4,2.1c-0.7-0.4-1.4-0.9-2.1-1.2l-0.8-0.4
			l-0.9,0.3c-1,0.3-2.1,0.5-3.2,0.5c-3.5,0-6.6-1.8-8.4-4.4c-0.2-0.4-0.6-0.5-1.1-0.5C90.3,66.4,89.4,66.8,89.8,67.5L89.8,67.5z"/>
		<polygon class="st1" points="44,52 43.2,55.8 42.2,55.8 42.6,53.7 41.4,55.4 40.9,55.4 40.2,53.7 39.8,55.8 38.8,55.8 39.6,52 
			40.4,52 41.3,54.2 43.1,52 		"/>
		<path class="st1" d="M44.3,52c0-0.3,0.3-0.6,0.7-0.6c0.4,0,0.6,0.2,0.6,0.5c0,0.3-0.3,0.6-0.7,0.6C44.5,52.5,44.3,52.2,44.3,52
			L44.3,52z M44.2,52.8h1l-0.6,2.9h-1C43.6,55.8,44.2,52.8,44.2,52.8z"/>
		<polygon class="st1" points="48,52.8 47.8,53.4 49.5,53.4 49.4,54.2 47.7,54.2 47.5,54.9 49.5,54.9 49.3,55.8 46.3,55.8 47.1,52 
			50,52 49.9,52.8 		"/>
		<path class="st1" d="M55,53.8c0,0.1,0,0.2,0,0.4l-0.3,1.6h-1l0.3-1.5c0-0.1,0-0.1,0-0.2c0-0.3-0.1-0.4-0.4-0.4
			c-0.3,0-0.5,0.2-0.6,0.6l-0.3,1.5h-1l0.3-1.5c0-0.1,0-0.1,0-0.2c0-0.3-0.1-0.4-0.4-0.4c-0.3,0-0.5,0.2-0.6,0.7l-0.3,1.5h-1
			l0.6-2.9h1l-0.1,0.3c0.2-0.2,0.6-0.3,0.9-0.3c0.4,0,0.7,0.2,0.9,0.5c0.3-0.3,0.6-0.5,1.1-0.5C54.5,52.8,55,53.1,55,53.8L55,53.8z"
			/>
		<path class="st1" d="M57.5,54.2c0-0.3-0.2-0.6-0.6-0.6c-0.4,0-0.7,0.3-0.7,0.8c0,0.3,0.2,0.6,0.6,0.6C57.2,55,57.5,54.6,57.5,54.2
			L57.5,54.2z M58.5,54.1c0,1-0.7,1.7-1.6,1.7c-0.4,0-0.7-0.1-0.9-0.4l-0.3,1.4h-1l0.8-4h1l-0.1,0.3c0.2-0.2,0.5-0.3,0.8-0.3
			C57.9,52.8,58.5,53.2,58.5,54.1L58.5,54.1z"/>
		<path class="st1" d="M61,52.8l-0.2,0.9c-0.1,0-0.2,0-0.2,0c-0.5,0-0.7,0.2-0.8,0.7l-0.3,1.4h-1l0.6-2.9h1l-0.1,0.3
			C60.2,52.9,60.5,52.8,61,52.8L61,52.8z"/>
		<path class="st1" d="M61.6,54h1.2c0-0.3-0.2-0.5-0.5-0.5C61.9,53.5,61.7,53.7,61.6,54z M63.7,54.5h-2.2c0,0.3,0.3,0.5,0.7,0.5
			c0.3,0,0.5-0.1,0.7-0.2l0.4,0.7c-0.4,0.3-0.8,0.4-1.3,0.4c-1,0-1.6-0.5-1.6-1.3c0-1,0.7-1.7,1.8-1.7c0.9,0,1.5,0.5,1.5,1.3
			C63.8,54.2,63.7,54.4,63.7,54.5L63.7,54.5z"/>
		<path class="st1" d="M63.5,55.5l0.4-0.7c0.3,0.2,0.7,0.3,1,0.3c0.3,0,0.5-0.1,0.5-0.2c0-0.3-1.5,0-1.5-1c0-0.7,0.7-1.1,1.6-1.1
			c0.4,0,0.8,0.1,1.1,0.2l-0.4,0.7c-0.3-0.2-0.6-0.2-0.9-0.2c-0.3,0-0.5,0.1-0.5,0.2c0,0.3,1.5,0,1.5,1c0,0.7-0.7,1.1-1.6,1.1
			C64.2,55.8,63.7,55.7,63.5,55.5L63.5,55.5z"/>
		<path class="st1" d="M68.6,54.2c0-0.3-0.2-0.6-0.6-0.6c-0.4,0-0.7,0.3-0.7,0.8c0,0.3,0.2,0.6,0.6,0.6C68.3,55,68.6,54.6,68.6,54.2
			L68.6,54.2z M69.9,52.8l-0.6,3h-1l0.1-0.3c-0.2,0.2-0.5,0.3-0.8,0.3c-0.6,0-1.2-0.5-1.2-1.3c0-1,0.7-1.7,1.6-1.7
			c0.4,0,0.7,0.1,0.9,0.4l0.1-0.3L69.9,52.8L69.9,52.8z"/>
		<polygon class="st1" points="48.7,66.9 48,68.6 47.7,68.6 47.2,67.3 46.7,68.6 46.4,68.6 45.8,66.9 46.1,66.9 46.6,68.3 
			47.1,66.9 47.4,66.9 47.9,68.3 48.4,66.9 		"/>
		<polygon class="st1" points="51.5,66.9 50.8,68.6 50.5,68.6 50,67.3 49.5,68.6 49.2,68.6 48.5,66.9 48.8,66.9 49.3,68.3 
			49.9,66.9 50.1,66.9 50.7,68.3 51.2,66.9 		"/>
		<polygon class="st1" points="54.2,66.9 53.6,68.6 53.3,68.6 52.8,67.3 52.3,68.6 52,68.6 51.3,66.9 51.6,66.9 52.1,68.3 
			52.7,66.9 52.9,66.9 53.5,68.3 54,66.9 		"/>
		<path class="st1" d="M54.2,68.4c0-0.1,0.1-0.2,0.2-0.2c0.1,0,0.2,0.1,0.2,0.2s-0.1,0.2-0.2,0.2C54.3,68.6,54.2,68.5,54.2,68.4z"/>
		<path class="st1" d="M57.8,67.6v1h-0.3v-1c0-0.3-0.2-0.5-0.5-0.5c-0.3,0-0.5,0.2-0.5,0.6v0.9h-0.3v-1c0-0.3-0.2-0.5-0.5-0.5
			c-0.3,0-0.5,0.2-0.5,0.6v0.9h-0.3v-1.8h0.3v0.3c0.1-0.2,0.3-0.3,0.6-0.3s0.5,0.1,0.6,0.3c0.1-0.2,0.4-0.3,0.7-0.3
			C57.6,66.8,57.8,67.1,57.8,67.6L57.8,67.6z"/>
		<path class="st1" d="M58.2,66.9h0.3v1.8h-0.3V66.9z M58.2,66.3c0-0.1,0.1-0.2,0.2-0.2c0.1,0,0.2,0.1,0.2,0.2
			c0,0.1-0.1,0.2-0.2,0.2C58.3,66.5,58.2,66.4,58.2,66.3z"/>
		<path class="st1" d="M59.1,67.6h1.1c0-0.3-0.3-0.5-0.6-0.5C59.4,67.1,59.2,67.3,59.1,67.6L59.1,67.6z M60.5,67.8h-1.4
			c0,0.3,0.3,0.5,0.6,0.5c0.2,0,0.4-0.1,0.5-0.2l0.2,0.2c-0.2,0.2-0.4,0.3-0.7,0.3c-0.6,0-0.9-0.4-0.9-0.9c0-0.5,0.4-0.9,0.9-0.9
			C60.2,66.8,60.6,67.2,60.5,67.8C60.5,67.8,60.5,67.8,60.5,67.8L60.5,67.8z"/>
		<path class="st1" d="M63.7,67.6v1h-0.3v-1c0-0.3-0.2-0.5-0.5-0.5c-0.3,0-0.5,0.2-0.5,0.6v0.9h-0.3v-1c0-0.3-0.2-0.5-0.5-0.5
			c-0.3,0-0.5,0.2-0.5,0.6v0.9h-0.3v-1.8h0.3v0.3c0.1-0.2,0.3-0.3,0.6-0.3s0.5,0.1,0.6,0.3c0.1-0.2,0.4-0.3,0.7-0.3
			C63.4,66.8,63.7,67.1,63.7,67.6L63.7,67.6z"/>
		<path class="st1" d="M65.6,67.7c0-0.4-0.3-0.6-0.6-0.6c-0.3,0-0.6,0.2-0.6,0.6c0,0.4,0.2,0.6,0.6,0.6S65.6,68.1,65.6,67.7z
			 M65.9,67.7c0,0.5-0.4,0.9-0.9,0.9c-0.2,0-0.5-0.1-0.6-0.3v0.9h-0.3v-2.4h0.3v0.3c0.1-0.2,0.4-0.3,0.6-0.3
			C65.6,66.8,65.9,67.2,65.9,67.7L65.9,67.7z"/>
		<path class="st1" d="M67.1,66.8v0.3c0,0-0.1,0-0.1,0c-0.3,0-0.6,0.2-0.6,0.6v0.9h-0.3v-1.8h0.3v0.3C66.6,66.9,66.8,66.8,67.1,66.8
			L67.1,66.8z"/>
		<path class="st1" d="M67.5,67.6h1.1c0-0.3-0.2-0.5-0.6-0.5C67.7,67.1,67.5,67.3,67.5,67.6z M68.9,67.8h-1.4c0,0.3,0.3,0.5,0.6,0.5
			c0.2,0,0.4-0.1,0.5-0.2l0.2,0.2c-0.2,0.2-0.4,0.3-0.7,0.3c-0.6,0-0.9-0.4-0.9-0.9c0-0.5,0.4-0.9,0.9-0.9
			C68.6,66.8,68.9,67.2,68.9,67.8C68.9,67.8,68.9,67.8,68.9,67.8L68.9,67.8z"/>
		<path class="st1" d="M68.9,68.4l0.1-0.2c0.2,0.1,0.4,0.2,0.6,0.2c0.3,0,0.4-0.1,0.4-0.2c0-0.4-1.1-0.1-1.1-0.8
			c0-0.3,0.3-0.5,0.7-0.5c0.2,0,0.5,0.1,0.6,0.2l-0.1,0.2c-0.2-0.1-0.3-0.1-0.5-0.1c-0.3,0-0.4,0.1-0.4,0.2c0,0.4,1.1,0.1,1.1,0.8
			c0,0.3-0.3,0.5-0.8,0.5C69.4,68.6,69.1,68.5,68.9,68.4L68.9,68.4z"/>
		<path class="st1" d="M71.7,68.1v-0.2h-0.5c-0.3,0-0.4,0.1-0.4,0.3c0,0.2,0.2,0.3,0.4,0.3C71.4,68.4,71.6,68.3,71.7,68.1z M72,67.6
			v1.1h-0.3v-0.2c-0.1,0.2-0.3,0.2-0.6,0.2c-0.4,0-0.7-0.2-0.7-0.5c0-0.3,0.2-0.5,0.7-0.5h0.5v-0.1c0-0.3-0.2-0.4-0.5-0.4
			c-0.2,0-0.4,0.1-0.6,0.2l-0.1-0.2c0.2-0.2,0.4-0.2,0.7-0.2C71.7,66.8,72,67.1,72,67.6L72,67.6z"/>
		<path class="st1" d="M72.6,67.6h1.1c0-0.3-0.3-0.5-0.6-0.5C72.8,67.1,72.6,67.3,72.6,67.6L72.6,67.6z M74,67.8h-1.4
			c0,0.3,0.3,0.5,0.6,0.5c0.2,0,0.4-0.1,0.5-0.2l0.2,0.2c-0.2,0.2-0.4,0.3-0.7,0.3c-0.6,0-0.9-0.4-0.9-0.9c0-0.5,0.4-0.9,0.9-0.9
			C73.7,66.8,74,67.2,74,67.8C74,67.8,74,67.8,74,67.8L74,67.8z"/>
		<path class="st1" d="M75.9,67.6v1h-0.3v-1c0-0.3-0.2-0.5-0.5-0.5c-0.3,0-0.6,0.2-0.6,0.6v0.9h-0.3v-1.8h0.3v0.3
			c0.1-0.2,0.3-0.3,0.6-0.3C75.6,66.8,75.9,67.1,75.9,67.6L75.9,67.6z"/>
		<polygon class="st1" points="76.3,66.2 76.6,66.2 76.6,68.6 76.3,68.6 		"/>
		<path class="st1" d="M77,66.9h0.3v1.8H77V66.9z M77,66.3c0-0.1,0.1-0.2,0.2-0.2c0.1,0,0.2,0.1,0.2,0.2c0,0.1-0.1,0.2-0.2,0.2
			C77.1,66.5,77,66.4,77,66.3z"/>
		<path class="st1" d="M79.4,67.6v1h-0.3v-1c0-0.3-0.2-0.5-0.5-0.5c-0.3,0-0.6,0.2-0.6,0.6v0.9h-0.3v-1.8h0.3v0.3
			c0.1-0.2,0.3-0.3,0.6-0.3C79.1,66.8,79.4,67.1,79.4,67.6L79.4,67.6z"/>
		<path class="st1" d="M80,67.6h1.1c0-0.3-0.2-0.5-0.6-0.5S80,67.3,80,67.6z M81.4,67.8H80c0,0.3,0.3,0.5,0.6,0.5
			c0.2,0,0.4-0.1,0.5-0.2l0.2,0.2c-0.2,0.2-0.4,0.3-0.7,0.3c-0.6,0-0.9-0.4-0.9-0.9c0-0.5,0.4-0.9,0.9-0.9
			C81.1,66.8,81.4,67.2,81.4,67.8C81.4,67.8,81.4,67.8,81.4,67.8L81.4,67.8z"/>
		<path class="st1" d="M82.7,68.1v-0.2h-0.5c-0.3,0-0.4,0.1-0.4,0.3c0,0.2,0.2,0.3,0.4,0.3C82.4,68.4,82.6,68.3,82.7,68.1L82.7,68.1
			z M83,67.6v1.1h-0.3v-0.2c-0.1,0.2-0.3,0.2-0.6,0.2c-0.4,0-0.7-0.2-0.7-0.5c0-0.3,0.2-0.5,0.7-0.5h0.5v-0.1c0-0.3-0.2-0.4-0.5-0.4
			c-0.2,0-0.4,0.1-0.6,0.2l-0.1-0.2c0.2-0.2,0.4-0.2,0.7-0.2C82.8,66.8,83,67.1,83,67.6L83,67.6z"/>
		<path class="st1" d="M83.3,68.4c0-0.1,0.1-0.2,0.2-0.2c0.1,0,0.2,0.1,0.2,0.2s-0.1,0.2-0.2,0.2C83.4,68.6,83.3,68.5,83.3,68.4z"/>
		<path class="st1" d="M85.3,67.7c0-0.4-0.2-0.6-0.6-0.6s-0.6,0.2-0.6,0.6c0,0.4,0.3,0.6,0.6,0.6C85.1,68.4,85.3,68.1,85.3,67.7z
			 M83.8,67.7c0-0.5,0.4-0.9,0.9-0.9c0.5,0,0.9,0.4,0.9,0.9s-0.4,0.9-0.9,0.9C84.2,68.6,83.8,68.3,83.8,67.7z"/>
		<path class="st1" d="M86.8,66.8v0.3c0,0-0.1,0-0.1,0c-0.3,0-0.6,0.2-0.6,0.6v0.9h-0.3v-1.8h0.3v0.3C86.3,66.9,86.5,66.8,86.8,66.8
			L86.8,66.8z"/>
		<path class="st1" d="M88.4,67.7c0-0.3-0.2-0.6-0.6-0.6s-0.6,0.2-0.6,0.6s0.2,0.6,0.6,0.6C88.2,68.3,88.4,68,88.4,67.7z M88.7,66.9
			v1.5c0,0.6-0.3,0.9-0.9,0.9c-0.3,0-0.7-0.1-0.8-0.3l0.2-0.2c0.2,0.1,0.4,0.2,0.7,0.2c0.4,0,0.6-0.2,0.6-0.6v-0.1
			c-0.2,0.2-0.4,0.3-0.6,0.3c-0.5,0-0.9-0.3-0.9-0.8s0.4-0.8,0.9-0.8c0.3,0,0.5,0.1,0.7,0.3v-0.3L88.7,66.9L88.7,66.9z"/>
		<path class="st3" d="M49.5,60.4h3.4c0-0.9-0.6-1.4-1.5-1.4C50.4,59,49.8,59.5,49.5,60.4z M55.3,61.9h-6c0.1,0.9,0.7,1.3,1.9,1.3
			c0.7,0,1.4-0.2,2-0.7l1.2,1.8c-1,0.8-2.3,1.1-3.5,1.1c-2.6,0-4.4-1.5-4.4-3.7c0-2.7,2-4.7,5-4.7c2.5,0,4,1.5,4,3.6
			C55.5,61,55.4,61.5,55.3,61.9L55.3,61.9z"/>
		<path class="st3" d="M64.7,59.7c0,0.3,0,0.7-0.1,1l-0.9,4.5h-2.9l0.9-4.3c0-0.2,0.1-0.4,0.1-0.5c0-0.7-0.4-1.1-1.1-1.1
			c-1,0-1.7,0.6-1.9,1.8l-0.8,4.1H55l1.6-8.2h2.7l-0.2,0.8c0.7-0.7,1.7-1,2.6-1C63.5,56.9,64.7,57.9,64.7,59.7L64.7,59.7z"/>
		<polygon class="st3" points="70.4,54.7 73.4,54.7 71.8,62.9 76.9,62.9 76.4,65.3 68.3,65.3 		"/>
		<path class="st3" d="M80.5,53.8h3l-3.1,2.3h-2.1C78.2,56.1,80.5,53.8,80.5,53.8z M78.1,57.1H81l-1.6,8.2h-2.9L78.1,57.1L78.1,57.1
			z"/>
		<path class="st3" d="M90,59.7c0,0.3,0,0.7-0.1,1L89,65.3h-2.9L87,61c0.1-0.2,0.1-0.4,0.1-0.5c0-0.7-0.4-1.1-1.1-1.1
			c-1,0-1.7,0.6-1.9,1.8l-0.8,4.1h-2.9l1.6-8.2h2.7l-0.2,0.8c0.7-0.7,1.7-1,2.6-1C88.8,56.9,90,57.9,90,59.7L90,59.7z"/>
		<path class="st3" d="M93.3,60.4h3.4c0-0.9-0.6-1.4-1.5-1.4C94.2,59,93.6,59.5,93.3,60.4z M99.2,61.9h-6c0.1,0.9,0.7,1.3,1.9,1.3
			c0.7,0,1.4-0.2,2-0.7l1.2,1.8c-1,0.8-2.3,1.1-3.5,1.1c-2.6,0-4.4-1.5-4.4-3.7c0-2.7,2-4.7,5-4.7c2.5,0,4,1.5,4,3.6
			C99.3,61,99.3,61.5,99.2,61.9L99.2,61.9z"/>
		<path class="st3" d="M105.5,60.8c0-1-0.6-1.6-1.6-1.6c-1.1,0-1.9,0.9-1.9,2.3c0,1,0.6,1.6,1.6,1.6
			C104.7,63.1,105.5,62.2,105.5,60.8L105.5,60.8z M109.1,57.1l-1.6,8.2h-2.7l0.2-0.8c-0.6,0.6-1.4,0.9-2.4,0.9
			c-1.8,0-3.5-1.3-3.5-3.7c0-2.7,2-4.7,4.4-4.7c1.1,0,2,0.3,2.5,1.1l0.2-1L109.1,57.1L109.1,57.1z"/>
	</g>
	<g>
		
			<image style="overflow:visible;opacity:0.32;enable-background:new    ;" width="142" height="352" xlink:href="619ECE81.png"  transform="matrix(1 0 0 1 21.9412 92.2353)">
		</image>
		<g>
			<path class="st0" d="M147.6,431.6H38.8c-3.9,0-7-3.1-7-7V106.2c0-3.9,3.1-7,7-7h108.8c3.9,0,7,3.1,7,7v318.5
				C154.6,428.5,151.4,431.6,147.6,431.6z"/>
		</g>
	</g>
	<g>
		
			<image style="overflow:visible;opacity:0.32;enable-background:new    ;" width="446" height="352" xlink:href="619ECE83.png"  transform="matrix(1 0 0 1 157.9412 92.2353)">
		</image>
		<g>
			<path class="st0" d="M587.3,431.6H174.9c-3.9,0-7-3.1-7-7V106.2c0-3.9,3.1-7,7-7h412.5c3.9,0,7,3.1,7,7v318.5
				C594.3,428.5,591.2,431.6,587.3,431.6z"/>
		</g>
	</g>
	<path class="st3" d="M335.1,159.1H193.5c-2.4,0-4.3-1.9-4.3-4.3l0,0c0-2.4,1.9-4.3,4.3-4.3h141.7c2.4,0,4.3,1.9,4.3,4.3l0,0
		C339.4,157.2,337.5,159.1,335.1,159.1z"/>
	<path class="st4" d="M362.8,228.2H198.9c-5.4,0-9.7-4.4-9.7-9.7v-10.8c0-5.4,4.4-9.7,9.7-9.7h163.9c5.4,0,9.7,4.4,9.7,9.7v10.8
		C372.5,223.9,368.1,228.2,362.8,228.2z"/>
	<path class="st4" d="M563.9,228.2H400c-5.4,0-9.7-4.4-9.7-9.7v-10.8c0-5.4,4.4-9.7,9.7-9.7h163.9c5.4,0,9.7,4.4,9.7,9.7v10.8
		C573.7,223.9,569.3,228.2,563.9,228.2z"/>
	<path class="st4" d="M362.8,267.3H198.9c-5.4,0-9.7-4.4-9.7-9.7v-10.8c0-5.4,4.4-9.7,9.7-9.7h163.9c5.4,0,9.7,4.4,9.7,9.7v10.8
		C372.5,262.9,368.1,267.3,362.8,267.3z"/>
	<path class="st4" d="M563.9,267.3H400c-5.4,0-9.7-4.4-9.7-9.7v-10.8c0-5.4,4.4-9.7,9.7-9.7h163.9c5.4,0,9.7,4.4,9.7,9.7v10.8
		C573.7,262.9,569.3,267.3,563.9,267.3z"/>
	<path class="st4" d="M362.8,306.3H198.9c-5.4,0-9.7-4.4-9.7-9.7v-10.8c0-5.4,4.4-9.7,9.7-9.7h163.9c5.4,0,9.7,4.4,9.7,9.7v10.8
		C372.5,302,368.1,306.3,362.8,306.3z"/>
	<path class="st4" d="M563.9,306.3H400c-5.4,0-9.7-4.4-9.7-9.7v-10.8c0-5.4,4.4-9.7,9.7-9.7h163.9c5.4,0,9.7,4.4,9.7,9.7v10.8
		C573.7,302,569.3,306.3,563.9,306.3z"/>
	<path class="st4" d="M362.8,345.3H198.9c-5.4,0-9.7-4.4-9.7-9.7v-10.8c0-5.4,4.4-9.7,9.7-9.7h163.9c5.4,0,9.7,4.4,9.7,9.7v10.8
		C372.5,341,368.1,345.3,362.8,345.3z"/>
	<path class="st4" d="M362.8,384.4H198.9c-5.4,0-9.7-4.4-9.7-9.7v-10.8c0-5.4,4.4-9.7,9.7-9.7h163.9c5.4,0,9.7,4.4,9.7,9.7v10.8
		C372.5,380,368.1,384.4,362.8,384.4z"/>
	<path class="st3" d="M557.4,415.4H479c-5.4,0-9.7-4.4-9.7-9.7v-10.8c0-5.4,4.4-9.7,9.7-9.7h78.5c5.4,0,9.7,4.4,9.7,9.7v10.8
		C567.1,411,562.8,415.4,557.4,415.4z"/>
	<path class="st4" d="M563.9,345.3H400c-5.4,0-9.7-4.4-9.7-9.7v-10.8c0-5.4,4.4-9.7,9.7-9.7h163.9c5.4,0,9.7,4.4,9.7,9.7v10.8
		C573.7,341,569.3,345.3,563.9,345.3z"/>
	<g>
		<path d="M190.1,142.3c0.5,0.3,1.3,0.6,2.2,0.6c1.2,0,2-0.6,2-1.6c0-0.9-0.5-1.4-1.8-1.9c-1.5-0.5-2.5-1.3-2.5-2.7
			c0-1.5,1.2-2.6,3-2.6c1,0,1.7,0.2,2.1,0.5l-0.3,1c-0.3-0.2-0.9-0.4-1.8-0.4c-1.3,0-1.8,0.8-1.8,1.4c0,0.9,0.6,1.3,1.9,1.8
			c1.6,0.6,2.4,1.4,2.4,2.8c0,1.4-1.1,2.7-3.3,2.7c-0.9,0-1.9-0.3-2.4-0.6L190.1,142.3z"/>
		<path d="M203.2,140.3c0,2.5-1.7,3.6-3.4,3.6c-1.8,0-3.2-1.3-3.2-3.5c0-2.2,1.5-3.6,3.3-3.6C201.9,136.9,203.2,138.2,203.2,140.3z
			 M197.9,140.4c0,1.5,0.9,2.6,2.1,2.6c1.2,0,2.1-1.1,2.1-2.6c0-1.1-0.6-2.6-2-2.6S197.9,139.1,197.9,140.4z"/>
		<path d="M204.8,133.9h1.2v9.9h-1.2V133.9z"/>
		<path d="M209.4,135.1c0,0.4-0.3,0.8-0.8,0.8c-0.4,0-0.7-0.3-0.7-0.8c0-0.4,0.3-0.8,0.8-0.8C209.1,134.3,209.4,134.7,209.4,135.1z
			 M208.1,143.7V137h1.2v6.7H208.1z"/>
		<path d="M216.1,143.5c-0.3,0.2-1,0.4-1.9,0.4c-2,0-3.4-1.4-3.4-3.4c0-2.1,1.4-3.6,3.6-3.6c0.7,0,1.4,0.2,1.7,0.4l-0.3,0.9
			c-0.3-0.2-0.8-0.3-1.4-0.3c-1.5,0-2.4,1.1-2.4,2.6c0,1.6,1,2.5,2.3,2.5c0.7,0,1.2-0.2,1.5-0.3L216.1,143.5z"/>
		<path d="M218.9,135.1c0,0.4-0.3,0.8-0.8,0.8c-0.4,0-0.7-0.3-0.7-0.8c0-0.4,0.3-0.8,0.8-0.8C218.6,134.3,218.9,134.7,218.9,135.1z
			 M217.6,143.7V137h1.2v6.7H217.6z"/>
		<path d="M222.3,135.1v1.9h1.8v0.9h-1.8v3.6c0,0.8,0.2,1.3,0.9,1.3c0.3,0,0.6,0,0.7-0.1l0.1,0.9c-0.2,0.1-0.6,0.2-1.1,0.2
			c-0.6,0-1-0.2-1.3-0.5c-0.4-0.4-0.5-1-0.5-1.8v-3.7h-1V137h1v-1.6L222.3,135.1z"/>
		<path d="M231.1,141.9c0,0.7,0,1.3,0.1,1.8H230l-0.1-1.1h0c-0.3,0.5-1,1.2-2.2,1.2c-1.1,0-2.3-0.6-2.3-2.9V137h1.2v3.7
			c0,1.3,0.4,2.1,1.5,2.1c0.8,0,1.4-0.6,1.6-1.1c0.1-0.2,0.1-0.4,0.1-0.6V137h1.2L231.1,141.9L231.1,141.9z"/>
		<path d="M238.9,133.9v8.1c0,0.6,0,1.3,0.1,1.7h-1.1l-0.1-1.2h0c-0.4,0.8-1.2,1.3-2.3,1.3c-1.6,0-2.9-1.4-2.9-3.4
			c0-2.2,1.4-3.6,3-3.6c1,0,1.7,0.5,2,1h0v-4L238.9,133.9L238.9,133.9z M237.7,139.7c0-0.1,0-0.4-0.1-0.5c-0.2-0.8-0.9-1.4-1.8-1.4
			c-1.3,0-2,1.1-2,2.6c0,1.4,0.7,2.5,2,2.5c0.8,0,1.6-0.5,1.8-1.5c0-0.2,0.1-0.3,0.1-0.5V139.7z"/>
		<path d="M249.7,133.9v8.1c0,0.6,0,1.3,0.1,1.7h-1.1l-0.1-1.2h0c-0.4,0.8-1.2,1.3-2.3,1.3c-1.6,0-2.9-1.4-2.9-3.4
			c0-2.2,1.4-3.6,3-3.6c1,0,1.7,0.5,2,1h0v-4L249.7,133.9L249.7,133.9z M248.5,139.7c0-0.1,0-0.4-0.1-0.5c-0.2-0.8-0.9-1.4-1.8-1.4
			c-1.3,0-2,1.1-2,2.6c0,1.4,0.7,2.5,2,2.5c0.8,0,1.6-0.5,1.8-1.5c0-0.2,0.1-0.3,0.1-0.5V139.7z"/>
		<path d="M252.4,140.6c0,1.7,1.1,2.3,2.3,2.3c0.9,0,1.4-0.1,1.9-0.4l0.2,0.9c-0.4,0.2-1.2,0.4-2.2,0.4c-2.1,0-3.3-1.4-3.3-3.4
			s1.2-3.6,3.2-3.6c2.2,0,2.8,1.9,2.8,3.2c0,0.2,0,0.4,0,0.6L252.4,140.6L252.4,140.6z M256,139.7c0-0.8-0.3-2-1.7-2
			c-1.2,0-1.8,1.1-1.9,2H256z"/>
		<path d="M268.2,143.4c-0.5,0.2-1.3,0.4-2.5,0.4c-2.6,0-4.6-1.7-4.6-4.8c0-2.9,2-4.9,4.9-4.9c1.2,0,1.9,0.2,2.2,0.4l-0.3,1
			c-0.5-0.2-1.1-0.4-1.9-0.4c-2.2,0-3.7,1.4-3.7,3.9c0,2.3,1.3,3.8,3.6,3.8c0.7,0,1.5-0.1,2-0.4L268.2,143.4z"/>
		<path d="M275.7,140.3c0,2.5-1.7,3.6-3.4,3.6c-1.8,0-3.2-1.3-3.2-3.5c0-2.2,1.5-3.6,3.3-3.6C274.4,136.9,275.7,138.2,275.7,140.3z
			 M270.3,140.4c0,1.5,0.9,2.6,2,2.6c1.2,0,2-1.1,2-2.6c0-1.1-0.6-2.6-2-2.6S270.3,139.1,270.3,140.4z"/>
		<path d="M277.2,138.8c0-0.7,0-1.3-0.1-1.8h1.1l0.1,1.1h0c0.3-0.6,1.1-1.3,2.2-1.3c0.9,0,2.4,0.6,2.4,2.9v4h-1.2v-3.9
			c0-1.1-0.4-2-1.6-2c-0.8,0-1.4,0.6-1.6,1.2c-0.1,0.1-0.1,0.4-0.1,0.6v4.1h-1.2L277.2,138.8L277.2,138.8z"/>
		<path d="M284.8,142.5c0.4,0.2,1,0.5,1.6,0.5c0.9,0,1.3-0.4,1.3-1c0-0.6-0.4-0.9-1.2-1.2c-1.2-0.4-1.8-1.1-1.8-1.9
			c0-1.1,0.9-2,2.3-2c0.7,0,1.3,0.2,1.7,0.4l-0.3,0.9c-0.3-0.2-0.8-0.4-1.4-0.4c-0.7,0-1.1,0.4-1.1,0.9c0,0.6,0.4,0.8,1.3,1.1
			c1.2,0.4,1.8,1,1.8,2c0,1.2-0.9,2-2.5,2c-0.7,0-1.4-0.2-1.9-0.5L284.8,142.5z"/>
		<path d="M291.9,135.1v1.9h1.8v0.9h-1.8v3.6c0,0.8,0.2,1.3,0.9,1.3c0.3,0,0.6,0,0.7-0.1l0.1,0.9c-0.2,0.1-0.6,0.2-1.1,0.2
			c-0.6,0-1-0.2-1.3-0.5c-0.4-0.4-0.5-1-0.5-1.8v-3.7h-1V137h1v-1.6L291.9,135.1z"/>
		<path d="M296.4,135.1c0,0.4-0.3,0.8-0.8,0.8c-0.4,0-0.7-0.3-0.7-0.8c0-0.4,0.3-0.8,0.8-0.8C296.1,134.3,296.4,134.7,296.4,135.1z
			 M295.1,143.7V137h1.2v6.7H295.1z"/>
		<path d="M299.8,135.1v1.9h1.8v0.9h-1.8v3.6c0,0.8,0.2,1.3,0.9,1.3c0.3,0,0.6,0,0.7-0.1l0.1,0.9c-0.2,0.1-0.6,0.2-1.1,0.2
			c-0.6,0-1-0.2-1.3-0.5c-0.4-0.4-0.5-1-0.5-1.8v-3.7h-1V137h1v-1.6L299.8,135.1z"/>
		<path d="M308.6,141.9c0,0.7,0,1.3,0.1,1.8h-1.1l-0.1-1.1h0c-0.3,0.5-1,1.2-2.2,1.2c-1.1,0-2.3-0.6-2.3-2.9V137h1.2v3.7
			c0,1.3,0.4,2.1,1.5,2.1c0.8,0,1.4-0.6,1.6-1.1c0.1-0.2,0.1-0.4,0.1-0.6V137h1.2L308.6,141.9L308.6,141.9z"/>
		<path d="M315.4,143.5c-0.3,0.2-1,0.4-1.9,0.4c-2,0-3.4-1.4-3.4-3.4c0-2.1,1.4-3.6,3.6-3.6c0.7,0,1.4,0.2,1.7,0.4l-0.3,0.9
			c-0.3-0.2-0.8-0.3-1.4-0.3c-1.5,0-2.4,1.1-2.4,2.6c0,1.6,1,2.5,2.3,2.5c0.7,0,1.1-0.2,1.5-0.3L315.4,143.5z"/>
		<path d="M318.2,135.1c0,0.4-0.3,0.8-0.8,0.8c-0.4,0-0.7-0.3-0.7-0.8c0-0.4,0.3-0.8,0.8-0.8C317.9,134.3,318.2,134.7,318.2,135.1z
			 M316.8,143.7V137h1.2v6.7H316.8z"/>
		<path d="M326.2,140.3c0,2.5-1.7,3.6-3.4,3.6c-1.8,0-3.2-1.3-3.2-3.5c0-2.2,1.5-3.6,3.3-3.6C324.9,136.9,326.2,138.2,326.2,140.3z
			 M320.8,140.4c0,1.5,0.9,2.6,2,2.6c1.2,0,2-1.1,2-2.6c0-1.1-0.6-2.6-2-2.6S320.8,139.1,320.8,140.4z M324.7,134.1l-1.7,2h-0.9
			l1.2-2H324.7z"/>
		<path d="M327.7,138.8c0-0.7,0-1.3-0.1-1.8h1.1l0.1,1.1h0c0.3-0.6,1.1-1.3,2.2-1.3c0.9,0,2.4,0.6,2.4,2.9v4h-1.2v-3.9
			c0-1.1-0.4-2-1.6-2c-0.8,0-1.4,0.6-1.6,1.2c-0.1,0.1-0.1,0.4-0.1,0.6v4.1h-1.2L327.7,138.8L327.7,138.8z"/>
	</g>
	<g>
		<path class="st0" d="M495.6,404.1c0.5,0.3,1.3,0.6,2.2,0.6c1.2,0,2-0.6,2-1.6c0-0.9-0.5-1.4-1.8-1.9c-1.5-0.5-2.5-1.3-2.5-2.7
			c0-1.5,1.2-2.5,3-2.5c1,0,1.7,0.2,2.1,0.5l-0.3,1c-0.3-0.2-0.9-0.5-1.8-0.5c-1.3,0-1.8,0.8-1.8,1.4c0,0.9,0.6,1.3,1.9,1.8
			c1.6,0.6,2.4,1.4,2.4,2.8c0,1.5-1.1,2.7-3.3,2.7c-0.9,0-1.9-0.3-2.4-0.6L495.6,404.1z"/>
		<path class="st0" d="M508.8,402.2c0,2.5-1.7,3.6-3.4,3.6c-1.8,0-3.2-1.3-3.2-3.5c0-2.2,1.5-3.6,3.3-3.6
			C507.5,398.7,508.8,400.1,508.8,402.2z M503.5,402.2c0,1.5,0.9,2.6,2,2.6c1.2,0,2-1.1,2-2.6c0-1.1-0.6-2.6-2-2.6
			S503.5,401,503.5,402.2z"/>
		<path class="st0" d="M510.4,395.7h1.2v9.9h-1.2V395.7z"/>
		<path class="st0" d="M515,397c0,0.4-0.3,0.8-0.8,0.8c-0.4,0-0.7-0.3-0.7-0.8c0-0.4,0.3-0.8,0.8-0.8C514.7,396.2,515,396.5,515,397
			z M513.6,405.6v-6.7h1.2v6.7H513.6z"/>
		<path class="st0" d="M521.7,405.4c-0.3,0.2-1,0.4-1.9,0.4c-2,0-3.3-1.4-3.3-3.4c0-2.1,1.4-3.6,3.6-3.6c0.7,0,1.4,0.2,1.7,0.4
			l-0.3,1c-0.3-0.2-0.8-0.3-1.4-0.3c-1.5,0-2.4,1.1-2.4,2.5c0,1.6,1,2.5,2.3,2.5c0.7,0,1.2-0.2,1.5-0.3L521.7,405.4z"/>
		<path class="st0" d="M524.5,397c0,0.4-0.3,0.8-0.8,0.8c-0.4,0-0.7-0.3-0.7-0.8c0-0.4,0.3-0.8,0.8-0.8
			C524.2,396.2,524.5,396.5,524.5,397z M523.1,405.6v-6.7h1.2v6.7H523.1z"/>
		<path class="st0" d="M527.9,396.9v1.9h1.8v0.9h-1.8v3.6c0,0.8,0.2,1.3,0.9,1.3c0.3,0,0.6,0,0.7-0.1l0.1,0.9
			c-0.2,0.1-0.6,0.2-1.1,0.2c-0.6,0-1-0.2-1.3-0.5c-0.3-0.4-0.5-1-0.5-1.8v-3.7h-1v-0.9h1v-1.6L527.9,396.9z"/>
		<path class="st0" d="M534.7,405.6l-0.1-0.9h0c-0.4,0.5-1.1,1-2.1,1c-1.4,0-2.1-1-2.1-1.9c0-1.6,1.5-2.5,4-2.5v-0.1
			c0-0.6-0.2-1.6-1.5-1.6c-0.6,0-1.3,0.2-1.8,0.5l-0.3-0.8c0.6-0.4,1.4-0.6,2.2-0.6c2.1,0,2.6,1.4,2.6,2.8v2.5c0,0.6,0,1.2,0.1,1.6
			L534.7,405.6L534.7,405.6z M534.5,402.2c-1.3,0-2.8,0.2-2.8,1.5c0,0.8,0.5,1.2,1.2,1.2c0.9,0,1.4-0.6,1.6-1.1
			c0-0.1,0.1-0.3,0.1-0.4L534.5,402.2L534.5,402.2z"/>
		<path class="st0" d="M537.7,401c0-0.8,0-1.5-0.1-2.1h1.1l0,1.3h0.1c0.3-0.9,1-1.5,1.9-1.5c0.1,0,0.2,0,0.3,0v1.2
			c-0.1,0-0.2,0-0.4,0c-0.9,0-1.5,0.6-1.6,1.6c0,0.2-0.1,0.4-0.1,0.6v3.6h-1.2L537.7,401L537.7,401z"/>
	</g>
	<path class="st1" d="M597.1,71.4L597.1,71.4c-17.5,0-31.6-14.2-31.6-31.6l0,0c0-17.5,14.2-31.6,31.6-31.6l0,0
		c17.5,0,31.6,14.2,31.6,31.6l0,0C628.7,57.2,614.6,71.4,597.1,71.4z"/>
	<g>
		
			<image style="overflow:visible;opacity:0.45;enable-background:new    ;" width="82" height="83" xlink:href="619ECE80.png"  transform="matrix(1 0 0 1 559.9412 -3.7647)">
		</image>
		<g>
			<path class="st0" d="M598.8,69.3L598.8,69.3c-17.5,0-31.6-14.2-31.6-31.6l0,0c0-17.5,14.2-31.6,31.6-31.6l0,0
				c17.5,0,31.6,14.2,31.6,31.6l0,0C630.4,55.1,616.3,69.3,598.8,69.3z"/>
		</g>
	</g>
	<g>
		<g class="st5">
			<path class="st6" d="M44.7,117.9v-8.6h1.1v8.6H44.7z"/>
			<path class="st6" d="M47.7,117.9v-6.2h0.9v0.9c0.5-0.7,1.1-1,2-1c0.4,0,0.7,0.1,1,0.2s0.5,0.3,0.7,0.5s0.3,0.5,0.3,0.8
				c0,0.2,0.1,0.5,0.1,1v3.8h-1.1v-3.8c0-0.4,0-0.8-0.1-1s-0.2-0.4-0.4-0.5s-0.5-0.2-0.7-0.2c-0.4,0-0.8,0.1-1.2,0.4
				s-0.5,0.8-0.5,1.6v3.4H47.7z"/>
			<path class="st6" d="M54.4,110.5v-1.2h1.1v1.2H54.4z M54.4,117.9v-6.2h1.1v6.2H54.4z"/>
			<path class="st6" d="M61.1,115.6l1,0.1c-0.1,0.7-0.4,1.3-0.9,1.7s-1,0.6-1.7,0.6c-0.9,0-1.5-0.3-2.1-0.8s-0.8-1.4-0.8-2.4
				c0-0.7,0.1-1.3,0.3-1.8s0.6-0.9,1-1.1s1-0.4,1.5-0.4c0.7,0,1.2,0.2,1.7,0.5s0.7,0.8,0.8,1.5l-1,0.2c-0.1-0.4-0.3-0.7-0.5-0.9
				s-0.5-0.3-0.9-0.3c-0.5,0-1,0.2-1.3,0.6s-0.5,1-0.5,1.8c0,0.8,0.2,1.4,0.5,1.8s0.7,0.6,1.3,0.6c0.4,0,0.8-0.1,1-0.4
				S61.1,116.2,61.1,115.6z"/>
			<path class="st6" d="M63.1,110.5v-1.2h1.1v1.2H63.1z M63.1,117.9v-6.2h1.1v6.2H63.1z"/>
			<path class="st6" d="M65.4,114.8c0-1.2,0.3-2,1-2.6c0.5-0.5,1.2-0.7,2-0.7c0.9,0,1.6,0.3,2.1,0.8s0.8,1.3,0.8,2.3
				c0,0.8-0.1,1.4-0.4,1.9s-0.6,0.8-1,1.1s-1,0.4-1.5,0.4c-0.9,0-1.6-0.3-2.1-0.8S65.4,115.9,65.4,114.8z M66.4,114.8
				c0,0.8,0.2,1.4,0.5,1.8s0.8,0.6,1.3,0.6c0.5,0,1-0.2,1.3-0.6s0.5-1,0.5-1.8c0-0.8-0.2-1.4-0.5-1.7s-0.8-0.6-1.3-0.6
				c-0.5,0-1,0.2-1.3,0.6S66.4,114,66.4,114.8z"/>
		</g>
	</g>
	<line class="st7" x1="41.9" y1="122.6" x2="139.5" y2="122.6"/>
	<path class="st8" d="M134.2,147h-87c-2.2,0-4-1.8-4-4v-11.8c0-2.2,1.8-4,4-4h87c2.2,0,4,1.8,4,4V143
		C138.2,145.2,136.4,147,134.2,147z"/>
	<g>
		<path class="st9" d="M50.3,140.1c0.3,0.2,0.9,0.4,1.4,0.4c0.8,0,1.3-0.4,1.3-1c0-0.6-0.3-0.9-1.1-1.2c-1-0.4-1.6-0.9-1.6-1.7
			c0-0.9,0.8-1.6,2-1.6c0.6,0,1.1,0.1,1.3,0.3l-0.2,0.6c-0.2-0.1-0.6-0.3-1.2-0.3c-0.8,0-1.1,0.5-1.1,0.9c0,0.6,0.4,0.9,1.2,1.2
			c1,0.4,1.5,0.9,1.5,1.8c0,0.9-0.7,1.8-2.1,1.8c-0.6,0-1.2-0.2-1.5-0.4L50.3,140.1z"/>
		<path class="st9" d="M58.8,138.9c0,1.6-1.1,2.3-2.2,2.3c-1.2,0-2.1-0.9-2.1-2.2c0-1.5,1-2.3,2.2-2.3
			C58,136.6,58.8,137.6,58.8,138.9z M55.4,138.9c0,0.9,0.5,1.7,1.3,1.7c0.8,0,1.3-0.7,1.3-1.7c0-0.7-0.4-1.7-1.3-1.7
			C55.8,137.2,55.4,138.1,55.4,138.9z"/>
		<path class="st9" d="M59.8,134.7h0.8v6.4h-0.8V134.7z"/>
		<path class="st9" d="M62.8,135.5c0,0.3-0.2,0.5-0.5,0.5c-0.3,0-0.5-0.2-0.5-0.5c0-0.3,0.2-0.5,0.5-0.5
			C62.6,135,62.8,135.2,62.8,135.5z M62,141.1v-4.4h0.8v4.4H62z"/>
		<path class="st9" d="M67.2,140.9c-0.2,0.1-0.7,0.2-1.2,0.2c-1.3,0-2.2-0.9-2.2-2.2c0-1.3,0.9-2.3,2.3-2.3c0.5,0,0.9,0.1,1.1,0.2
			l-0.2,0.6c-0.2-0.1-0.5-0.2-0.9-0.2c-1,0-1.5,0.7-1.5,1.6c0,1,0.7,1.6,1.5,1.6c0.4,0,0.8-0.1,1-0.2L67.2,140.9z"/>
		<path class="st9" d="M69,135.5c0,0.3-0.2,0.5-0.5,0.5c-0.3,0-0.5-0.2-0.5-0.5c0-0.3,0.2-0.5,0.5-0.5C68.8,135,69,135.2,69,135.5z
			 M68.1,141.1v-4.4h0.8v4.4H68.1z"/>
		<path class="st9" d="M71.2,135.5v1.2h1.1v0.6h-1.1v2.4c0,0.5,0.2,0.9,0.6,0.9c0.2,0,0.4,0,0.5-0.1l0,0.6c-0.2,0.1-0.4,0.1-0.7,0.1
			c-0.4,0-0.7-0.1-0.8-0.3c-0.2-0.2-0.3-0.6-0.3-1.1v-2.4h-0.7v-0.6h0.7v-1L71.2,135.5z"/>
		<path class="st9" d="M76.8,139.9c0,0.4,0,0.9,0,1.2h-0.7l0-0.7h0c-0.2,0.4-0.7,0.8-1.4,0.8c-0.7,0-1.5-0.4-1.5-1.9v-2.6H74v2.4
			c0,0.8,0.2,1.4,1,1.4c0.5,0,0.9-0.4,1-0.7c0-0.1,0.1-0.3,0.1-0.4v-2.7h0.8C76.8,136.7,76.8,139.9,76.8,139.9z"/>
		<path class="st9" d="M81.9,134.7v5.3c0,0.4,0,0.8,0,1.1h-0.7l0-0.8h0c-0.2,0.5-0.8,0.9-1.5,0.9c-1.1,0-1.9-0.9-1.9-2.2
			c0-1.4,0.9-2.3,1.9-2.3c0.7,0,1.1,0.3,1.3,0.7h0v-2.6H81.9z M81.1,138.5c0-0.1,0-0.2,0-0.3c-0.1-0.5-0.6-0.9-1.1-0.9
			c-0.8,0-1.3,0.7-1.3,1.7c0,0.9,0.4,1.6,1.3,1.6c0.5,0,1-0.4,1.2-0.9c0-0.1,0-0.2,0-0.3C81.1,139.3,81.1,138.5,81.1,138.5z"/>
		<path class="st9" d="M83.7,139.1c0,1.1,0.7,1.5,1.5,1.5c0.6,0,0.9-0.1,1.2-0.2l0.1,0.6c-0.3,0.1-0.8,0.3-1.4,0.3
			c-1.3,0-2.1-0.9-2.1-2.2s0.8-2.4,2-2.4c1.4,0,1.8,1.2,1.8,2.1c0,0.2,0,0.3,0,0.4H83.7z M86,138.5c0-0.5-0.2-1.3-1.1-1.3
			c-0.8,0-1.2,0.7-1.2,1.3H86z"/>
		<path class="st9" d="M87.6,140.3c0.2,0.1,0.7,0.3,1,0.3c0.6,0,0.8-0.3,0.8-0.6c0-0.4-0.2-0.6-0.8-0.8c-0.8-0.3-1.2-0.7-1.2-1.2
			c0-0.7,0.6-1.3,1.5-1.3c0.4,0,0.8,0.1,1.1,0.3l-0.2,0.6c-0.2-0.1-0.5-0.2-0.9-0.2c-0.5,0-0.7,0.3-0.7,0.6c0,0.4,0.3,0.5,0.8,0.7
			c0.8,0.3,1.1,0.7,1.1,1.3c0,0.8-0.6,1.3-1.6,1.3c-0.5,0-0.9-0.1-1.2-0.3L87.6,140.3z"/>
	</g>
	<path class="st8" d="M134.2,171.4h-87c-2.2,0-4-1.8-4-4v-11.8c0-2.2,1.8-4,4-4h87c2.2,0,4,1.8,4,4v11.8
		C138.2,169.6,136.4,171.4,134.2,171.4z"/>
	<g>
		<path class="st9" d="M52.6,161.7h-2.4v2.2h2.6v0.7h-3.4v-6.1h3.3v0.7h-2.5v1.9h2.4V161.7z"/>
		<path class="st9" d="M53.8,161.3c0-0.4,0-0.8,0-1.2h0.7l0,0.7h0c0.2-0.4,0.7-0.8,1.4-0.8c0.6,0,1,0.4,1.2,0.9h0
			c0.1-0.2,0.3-0.4,0.5-0.6c0.3-0.2,0.5-0.3,1-0.3c0.6,0,1.4,0.4,1.4,1.9v2.6h-0.8V162c0-0.8-0.3-1.3-1-1.3c-0.5,0-0.8,0.3-0.9,0.7
			c0,0.1-0.1,0.2-0.1,0.4v2.7h-0.8v-2.6c0-0.7-0.3-1.2-0.9-1.2c-0.5,0-0.8,0.4-1,0.8c0,0.1-0.1,0.2-0.1,0.4v2.6h-0.8L53.8,161.3
			L53.8,161.3z"/>
		<path class="st9" d="M61.3,161.6c0-0.6,0-1,0-1.4H62l0,0.8h0c0.3-0.5,0.8-0.9,1.5-0.9c1.1,0,1.8,0.9,1.8,2.2c0,1.6-0.9,2.3-2,2.3
			c-0.6,0-1.1-0.2-1.3-0.7h0v2.4h-0.8L61.3,161.6L61.3,161.6z M62.1,162.7c0,0.1,0,0.2,0,0.3c0.1,0.6,0.6,0.9,1.2,0.9
			c0.8,0,1.3-0.7,1.3-1.7c0-0.9-0.5-1.6-1.3-1.6c-0.5,0-1,0.4-1.2,1c0,0.1,0,0.2,0,0.3C62.1,162,62.1,162.7,62.1,162.7z"/>
		<path class="st9" d="M66.4,161.5c0-0.5,0-0.9,0-1.4h0.7l0,0.9h0c0.2-0.6,0.7-0.9,1.2-0.9c0.1,0,0.2,0,0.2,0v0.8
			c-0.1,0-0.2,0-0.3,0c-0.6,0-0.9,0.4-1.1,1c0,0.1,0,0.2,0,0.4v2.3h-0.8C66.5,164.5,66.5,161.5,66.4,161.5z"/>
		<path class="st9" d="M69.7,162.5c0,1.1,0.7,1.5,1.5,1.5c0.6,0,0.9-0.1,1.2-0.2l0.1,0.6c-0.3,0.1-0.8,0.3-1.4,0.3
			c-1.3,0-2.1-0.9-2.1-2.2s0.8-2.4,2-2.4c1.4,0,1.8,1.2,1.8,2.1c0,0.2,0,0.3,0,0.4H69.7z M72.1,161.9c0-0.5-0.2-1.3-1.1-1.3
			c-0.8,0-1.2,0.7-1.2,1.3H72.1z"/>
		<path class="st9" d="M73.7,163.7c0.2,0.1,0.7,0.3,1,0.3c0.6,0,0.8-0.3,0.8-0.6c0-0.4-0.2-0.6-0.8-0.8c-0.8-0.3-1.2-0.7-1.2-1.2
			c0-0.7,0.6-1.3,1.5-1.3c0.4,0,0.8,0.1,1.1,0.3l-0.2,0.6c-0.2-0.1-0.5-0.2-0.9-0.2c-0.5,0-0.7,0.3-0.7,0.6c0,0.4,0.3,0.5,0.8,0.7
			c0.8,0.3,1.1,0.7,1.1,1.3c0,0.8-0.6,1.3-1.6,1.3c-0.5,0-0.9-0.1-1.2-0.3L73.7,163.7z"/>
		<path class="st9" d="M79.8,164.5l-0.1-0.6h0c-0.2,0.3-0.7,0.6-1.3,0.6c-0.9,0-1.3-0.6-1.3-1.2c0-1.1,0.9-1.6,2.6-1.6v-0.1
			c0-0.4-0.1-1-1-1c-0.4,0-0.8,0.1-1.1,0.3l-0.2-0.5c0.4-0.2,0.9-0.4,1.4-0.4c1.3,0,1.7,0.9,1.7,1.8v1.6c0,0.4,0,0.8,0.1,1
			L79.8,164.5L79.8,164.5z M79.7,162.3c-0.9,0-1.8,0.1-1.8,1c0,0.5,0.3,0.8,0.8,0.8c0.6,0,0.9-0.4,1.1-0.7c0-0.1,0.1-0.2,0.1-0.2
			C79.7,163,79.7,162.3,79.7,162.3z"/>
		<path class="st9" d="M81.6,163.7c0.2,0.1,0.7,0.3,1,0.3c0.6,0,0.8-0.3,0.8-0.6c0-0.4-0.2-0.6-0.8-0.8c-0.8-0.3-1.2-0.7-1.2-1.2
			c0-0.7,0.6-1.3,1.5-1.3c0.4,0,0.8,0.1,1.1,0.3l-0.2,0.6c-0.2-0.1-0.5-0.2-0.9-0.2c-0.5,0-0.7,0.3-0.7,0.6c0,0.4,0.3,0.5,0.8,0.7
			c0.8,0.3,1.1,0.7,1.1,1.3c0,0.8-0.6,1.3-1.6,1.3c-0.5,0-0.9-0.1-1.2-0.3L81.6,163.7z"/>
		<path class="st9" d="M91.4,164.3c-0.3,0.1-0.9,0.3-1.6,0.3c-1.7,0-3-1.1-3-3.1c0-1.9,1.3-3.2,3.2-3.2c0.8,0,1.2,0.2,1.4,0.3
			l-0.2,0.6c-0.3-0.1-0.7-0.2-1.2-0.2c-1.4,0-2.4,0.9-2.4,2.5c0,1.5,0.9,2.4,2.3,2.4c0.5,0,1-0.1,1.3-0.2L91.4,164.3z"/>
		<path class="st9" d="M96.2,162.3c0,1.6-1.1,2.3-2.2,2.3c-1.2,0-2.1-0.9-2.1-2.2c0-1.5,0.9-2.3,2.2-2.3
			C95.4,160.1,96.2,161,96.2,162.3z M92.8,162.3c0,0.9,0.6,1.7,1.3,1.7c0.8,0,1.3-0.7,1.3-1.7c0-0.7-0.4-1.7-1.3-1.7
			C93.2,160.6,92.8,161.5,92.8,162.3z"/>
		<path class="st9" d="M97.2,161.3c0-0.4,0-0.8,0-1.2h0.7l0,0.7h0c0.2-0.4,0.7-0.8,1.4-0.8c0.6,0,1.5,0.4,1.5,1.9v2.6h-0.8V162
			c0-0.7-0.3-1.3-1-1.3c-0.5,0-0.9,0.4-1.1,0.8c0,0.1-0.1,0.2-0.1,0.4v2.6h-0.8C97.2,164.5,97.2,161.3,97.2,161.3z"/>
		<path class="st9" d="M102.1,163.7c0.2,0.1,0.7,0.3,1,0.3c0.6,0,0.8-0.3,0.8-0.6c0-0.4-0.2-0.6-0.8-0.8c-0.8-0.3-1.2-0.7-1.2-1.2
			c0-0.7,0.6-1.3,1.5-1.3c0.4,0,0.8,0.1,1.1,0.3l-0.2,0.6c-0.2-0.1-0.5-0.2-0.9-0.2c-0.5,0-0.7,0.3-0.7,0.6c0,0.4,0.3,0.5,0.8,0.7
			c0.8,0.3,1.1,0.7,1.1,1.3c0,0.8-0.6,1.3-1.6,1.3c-0.5,0-0.9-0.1-1.2-0.3L102.1,163.7z"/>
		<path class="st9" d="M106.8,158.9v1.2h1.1v0.6h-1.1v2.4c0,0.5,0.2,0.9,0.6,0.9c0.2,0,0.4,0,0.5-0.1l0,0.6
			c-0.2,0.1-0.4,0.1-0.7,0.1c-0.4,0-0.7-0.1-0.8-0.3c-0.2-0.2-0.3-0.6-0.3-1.1v-2.4h-0.7v-0.6h0.7v-1L106.8,158.9z"/>
		<path class="st9" d="M109.7,158.9c0,0.3-0.2,0.5-0.5,0.5c-0.3,0-0.5-0.2-0.5-0.5c0-0.3,0.2-0.5,0.5-0.5
			C109.5,158.4,109.7,158.6,109.7,158.9z M108.8,164.5v-4.4h0.8v4.4H108.8z"/>
		<path class="st9" d="M111.8,158.9v1.2h1.1v0.6h-1.1v2.4c0,0.5,0.2,0.9,0.6,0.9c0.2,0,0.4,0,0.5-0.1l0,0.6
			c-0.2,0.1-0.4,0.1-0.7,0.1c-0.4,0-0.7-0.1-0.8-0.3c-0.2-0.2-0.3-0.6-0.3-1.1v-2.4h-0.7v-0.6h0.7v-1L111.8,158.9z"/>
		<path class="st9" d="M117.5,163.3c0,0.4,0,0.9,0,1.2h-0.7l0-0.7h0c-0.2,0.4-0.7,0.8-1.4,0.8c-0.7,0-1.5-0.4-1.5-1.9v-2.6h0.8v2.4
			c0,0.8,0.2,1.4,1,1.4c0.5,0,0.9-0.4,1-0.7c0-0.1,0.1-0.3,0.1-0.4v-2.7h0.8C117.5,160.1,117.5,163.3,117.5,163.3z"/>
		<path class="st9" d="M119.7,158.9c0,0.3-0.2,0.5-0.5,0.5c-0.3,0-0.5-0.2-0.5-0.5c0-0.3,0.2-0.5,0.5-0.5
			C119.5,158.4,119.7,158.6,119.7,158.9z M118.8,164.5v-4.4h0.8v4.4H118.8z"/>
		<path class="st9" d="M124.7,158.1v5.3c0,0.4,0,0.8,0,1.1H124l0-0.8h0c-0.2,0.5-0.8,0.9-1.5,0.9c-1.1,0-1.9-0.9-1.9-2.2
			c0-1.4,0.9-2.3,1.9-2.3c0.7,0,1.1,0.3,1.3,0.7h0v-2.6H124.7z M123.9,161.9c0-0.1,0-0.2,0-0.3c-0.1-0.5-0.6-0.9-1.1-0.9
			c-0.8,0-1.3,0.7-1.3,1.7c0,0.9,0.4,1.6,1.3,1.6c0.5,0,1-0.4,1.2-0.9c0-0.1,0-0.2,0-0.3C123.9,162.7,123.9,161.9,123.9,161.9z"/>
		<path class="st9" d="M128.4,164.5l-0.1-0.6h0c-0.2,0.3-0.7,0.6-1.3,0.6c-0.9,0-1.3-0.6-1.3-1.2c0-1.1,0.9-1.6,2.6-1.6v-0.1
			c0-0.4-0.1-1-1-1c-0.4,0-0.8,0.1-1.1,0.3l-0.2-0.5c0.4-0.2,0.9-0.4,1.4-0.4c1.3,0,1.7,0.9,1.7,1.8v1.6c0,0.4,0,0.8,0.1,1
			L128.4,164.5L128.4,164.5z M128.3,162.3c-0.9,0-1.8,0.1-1.8,1c0,0.5,0.3,0.8,0.8,0.8c0.6,0,0.9-0.4,1-0.7c0-0.1,0.1-0.2,0.1-0.2
			V162.3z"/>
		<path class="st9" d="M130.2,163.7c0.2,0.1,0.6,0.3,1,0.3c0.6,0,0.9-0.3,0.9-0.6c0-0.4-0.2-0.6-0.8-0.8c-0.8-0.3-1.1-0.7-1.1-1.2
			c0-0.7,0.6-1.3,1.5-1.3c0.4,0,0.8,0.1,1.1,0.3l-0.2,0.6c-0.2-0.1-0.5-0.2-0.9-0.2c-0.5,0-0.7,0.3-0.7,0.6c0,0.4,0.3,0.5,0.8,0.7
			c0.8,0.3,1.1,0.7,1.1,1.3c0,0.8-0.6,1.3-1.6,1.3c-0.5,0-0.9-0.1-1.2-0.3L130.2,163.7z"/>
	</g>
	<path class="st8" d="M134.2,195.8h-87c-2.2,0-4-1.8-4-4V180c0-2.2,1.8-4,4-4h87c2.2,0,4,1.8,4,4v11.8
		C138.2,194,136.4,195.8,134.2,195.8z"/>
	<g>
		<path class="st9" d="M49.4,182.9c0.4-0.1,0.9-0.1,1.5-0.1c0.8,0,1.3,0.2,1.7,0.5c0.3,0.3,0.5,0.7,0.5,1.3c0,0.6-0.2,1-0.5,1.3
			c-0.4,0.4-1.1,0.7-1.8,0.7c-0.2,0-0.5,0-0.6-0.1v2.4h-0.8V182.9z M50.2,185.9c0.2,0.1,0.4,0.1,0.7,0.1c1,0,1.5-0.5,1.5-1.3
			c0-0.8-0.6-1.2-1.4-1.2c-0.3,0-0.6,0-0.7,0.1V185.9z"/>
		<path class="st9" d="M54.4,186.9c0,1.1,0.7,1.5,1.5,1.5c0.6,0,0.9-0.1,1.2-0.2l0.1,0.6c-0.3,0.1-0.8,0.3-1.5,0.3
			c-1.3,0-2.1-0.9-2.1-2.2s0.8-2.4,2-2.4c1.4,0,1.8,1.2,1.8,2.1c0,0.2,0,0.3,0,0.4H54.4z M56.7,186.3c0-0.5-0.2-1.3-1.1-1.3
			c-0.8,0-1.2,0.7-1.2,1.3H56.7z"/>
		<path class="st9" d="M58.5,185.9c0-0.5,0-0.9,0-1.4h0.7l0,0.9h0c0.2-0.6,0.7-0.9,1.2-0.9c0.1,0,0.2,0,0.2,0v0.8
			c-0.1,0-0.2,0-0.3,0c-0.6,0-1,0.4-1.1,1c0,0.1,0,0.2,0,0.4v2.3h-0.8L58.5,185.9L58.5,185.9z"/>
		<path class="st9" d="M61.8,188.9v-3.8h-0.6v-0.6h0.6v-0.2c0-1.1,0.7-1.9,1.9-1.9c0.4,0,0.9,0.1,1.1,0.3l-0.2,0.6
			c-0.2-0.1-0.5-0.2-0.9-0.2c-0.8,0-1.1,0.6-1.1,1.3v0.2h2.5v4.4h-0.8v-3.8h-1.8v3.8L61.8,188.9L61.8,188.9z"/>
		<path class="st9" d="M66.4,182.5h0.8v6.4h-0.8V182.5z"/>
	</g>
</g>
<text transform="matrix(1 0 0 1 583.4199 57.1193)" class="st10 st11 st12">2</text>
<g>
	<path class="st3" d="M599.6,49.6l2.3-0.1h1.4h7.6l-1.2,7.7h-26.1l14.9-17c1.7-2,2.9-3.6,3.6-4.8c0.7-1.2,1-2.3,1-3.3
		c0-1.1-0.4-2-1-2.6c-0.7-0.7-1.6-1-2.8-1c-1.4,0-2.5,0.5-3.4,1.5c-0.4,0.5-0.7,1.1-0.9,1.8c-0.2,0.7-0.3,1.5-0.3,2.4h-8.4
		c0-2,0.4-3.8,1.1-5.5c0.7-1.5,1.6-2.9,2.9-4.1c2.4-2.3,5.6-3.4,9.5-3.4c3.6,0,6.6,1,8.9,3c2.3,2,3.4,4.6,3.4,7.8
		c0,2.2-0.6,4.3-1.7,6.4s-3.1,4.4-6,7.1L599.6,49.6z"/>
</g>
</svg>
